SplineFontDB: 3.2
FontName: NewCMSans10-BookOblique
FullName: NewComputerModernSans10-BookOblique
FamilyName: NewComputerModernSans10
Weight: Book
Copyright: (C) 2019-2021 Antonis Tsolomitis. This work is released under the GUST Font License --  see http://tug.org/fonts/licenses/GUST-FONT-LICENSE.txt for details.
Version: 3.93
ItalicAngle: -12
UnderlinePosition: -146
UnderlineWidth: 40
Ascent: 806
Descent: 194
InvalidEm: 0
sfntRevision: 0x00021999
LayerCount: 2
Layer: 0 0 "Back" 1
Layer: 1 0 "Fore" 0
XUID: [1021 12 -395342500 14302404]
StyleMap: 0x0001
FSType: 12
OS2Version: 3
OS2_WeightWidthSlopeOnly: 0
OS2_UseTypoMetrics: 0
CreationTime: 1254996028
ModificationTime: 1633794232
PfmFamily: 81
TTFWeight: 400
TTFWidth: 5
LineGap: 0
VLineGap: 0
Panose: 0 0 5 0 0 0 0 0 0 0
OS2TypoAscent: 806
OS2TypoAOffset: 0
OS2TypoDescent: -194
OS2TypoDOffset: 0
OS2TypoLinegap: 200
OS2WinAscent: 1154
OS2WinAOffset: 0
OS2WinDescent: 309
OS2WinDOffset: 0
HheadAscent: 1154
HheadAOffset: 0
HheadDescent: -309
HheadDOffset: 0
OS2SubXSize: 650
OS2SubYSize: 600
OS2SubXOff: -16
OS2SubYOff: 75
OS2SupXSize: 650
OS2SupYSize: 600
OS2SupXOff: 74
OS2SupYOff: 350
OS2StrikeYSize: 40
OS2StrikeYPos: 266
OS2CapHeight: 694
OS2XHeight: 444
OS2Vendor: 'UKWN'
OS2CodePages: 20000193.00000000
OS2UnicodeRanges: 20000007.00000000.00000000.00000000
Lookup: 1 0 0 "'aalt' Access All Alternates lookup 0" { "'aalt' Access All Alternates lookup 0 subtable"  } ['aalt' ('DFLT' <'dflt' > 'cyrl' <'dflt' > 'latn' <'AZE ' 'CRT ' 'MOL ' 'NLD ' 'PLK ' 'ROM ' 'TRK ' 'dflt' > ) ]
Lookup: 3 0 0 "'aalt' Access All Alternates lookup 1" { "'aalt' Access All Alternates lookup 1 subtable"  } ['aalt' ('DFLT' <'dflt' > 'cyrl' <'dflt' > 'latn' <'AZE ' 'CRT ' 'MOL ' 'NLD ' 'PLK ' 'ROM ' 'TRK ' 'dflt' > ) ]
Lookup: 1 0 0 "'locl' Localized Forms in Latin lookup 2" { "'locl' Localized Forms in Latin lookup 2 subtable"  } ['locl' ('latn' <'MOL ' 'ROM ' > ) ]

StartChar: exclam
Encoding: 33 33 2
Width: 319
GlyphClass: 2
Flags: W
HStem: 0 90<136 205> 674 20G<245.182 350>
VStem: 262 88<662.829 694>
LayerCount: 2
Fore
SplineSet
233 173 m 1
 161 173 l 1
 194.467773438 346.865234375 228.36328125 520.303710938 262 694 c 1
 350 694 l 1
 233 173 l 1
205 0 m 1
 117 0 l 1
 136 90 l 1
 224 90 l 1
 205 0 l 1
EndSplineSet
EndChar

StartChar: quotedbl
Encoding: 34 34 3
Width: 434
GlyphClass: 2
Flags: W
HStem: 430 286<251 274 403 426>
VStem: 190 297
LayerCount: 2
Fore
SplineSet
426 430 m 1
 342 430 l 1
 403 716 l 1
 487 716 l 1
 426 430 l 1
274 430 m 1
 190 430 l 1
 251 716 l 1
 335 716 l 1
 274 430 l 1
EndSplineSet
EndChar

StartChar: numbersign
Encoding: 35 35 4
Width: 833
GlyphClass: 2
Flags: W
HStem: 127 48<88.3418 271.999 344.999 497.998 570.999 807.717> 325 48<130.342 366.998 440.999 592.999 667 849.656> 674 20G<556.666 571.333 783.667 798>
VStem: 757.999 50.001<668 691.943>
LayerCount: 2
Fore
SplineSet
808 325 m 2
 642.999023438 325 l 1
 570.999023438 175 l 1
 774.999023438 175 l 2
 796.901367188 175 813.401367188 169.810546875 807.998046875 150 c 0
 805.331054688 134.666992188 791.998046875 127 767.998046875 127 c 2
 547.998046875 127 l 1
 405.998046875 -168 l 2
 397.998046875 -185.333007812 387.998046875 -194 375.998046875 -194 c 0
 363.131835938 -194 353.274414062 -182.620117188 355.998046875 -169 c 0
 358.665039062 -160.333007812 361.665039062 -154 364.998046875 -150 c 2
 497.998046875 127 l 1
 320.998046875 127 l 1
 179.998046875 -168 l 2
 171.331054688 -185.333007812 160.998046875 -194 148.998046875 -194 c 0
 124.657226562 -194 126.66796875 -163.596679688 137.999023438 -150 c 1
 271.999023438 127 l 1
 120.999023438 127 l 2
 98.396484375 127 84.39453125 132.178710938 87.998046875 152 c 0
 91.3310546875 167.333007812 105.331054688 175 129.998046875 175 c 2
 294.998046875 175 l 1
 366.998046875 325 l 1
 162.998046875 325 l 2
 141.095703125 325 124.595703125 330.189453125 129.999023438 350 c 0
 133.33203125 365.333007812 146.999023438 373 170.999023438 373 c 2
 390.999023438 373 l 1
 531.999023438 668 l 2
 539.999023438 685.333007812 550.33203125 694 562.999023438 694 c 0
 579.666015625 694 585.999023438 685.666992188 581.999023438 669 c 0
 579.33203125 660.333007812 576.33203125 654 572.999023438 650 c 2
 440.999023438 373 l 1
 617.999023438 373 l 1
 757.999023438 668 l 2
 766.666015625 685.333007812 777.333007812 694 790 694 c 0
 806 694 812 685.666992188 808 669 c 0
 806 660.333007812 803.333007812 654 800 650 c 2
 667 373 l 1
 818 373 l 2
 840.75390625 373 853.622070312 367.919921875 850 348 c 0
 846.666992188 332.666992188 832.666992188 325 808 325 c 2
415.999023438 325 m 1
 344.999023438 175 l 1
 521.999023438 175 l 1
 592.999023438 325 l 1
 415.999023438 325 l 1
EndSplineSet
EndChar

StartChar: dollar
Encoding: 36 36 5
Width: 500
GlyphClass: 2
Flags: W
HStem: -9.99902 71<154.809 216> 633 71<431.999 485.888>
VStem: 158.999 85.001<441.226 563.169> 407 83<143.001 277.54>
LayerCount: 2
Fore
SplineSet
368 402 m 1
 441.182617188 384.95703125 490 329.21875 490 242.001953125 c 0
 490 174.668945312 464 115.001953125 412 63.001953125 c 0
 374 24.3349609375 330.333007812 0.66796875 281 -7.9990234375 c 1
 271 -55.9990234375 l 1
 206 -55.9990234375 l 1
 216 -9.9990234375 l 1
 157.333007812 -3.33203125 103.666015625 20.0009765625 54.9990234375 60.0009765625 c 1
 84.9990234375 135.000976562 l 1
 123.666015625 93.0009765625 171.999023438 68.333984375 229.999023438 61.0009765625 c 1
 284.999023438 319.000976562 l 1
 234.999023438 333.000976562 200.33203125 356.333984375 180.999023438 389.000976562 c 0
 166.33203125 413.000976562 158.999023438 441.000976562 158.999023438 473.000976562 c 0
 158.999023438 530.333984375 183.33203125 583.666992188 231.999023438 633 c 0
 267.999023438 669.666992188 312.666015625 693 365.999023438 703 c 1
 375.999023438 750 l 1
 440.999023438 750 l 1
 431.999023438 704 l 1
 479.33203125 700 523.999023438 681 565.999023438 647 c 1
 536.999023438 574 l 1
 501.666015625 608 461.333007812 627.666992188 416 633 c 1
 368 402 l 1
351 630.002929688 m 1
 296.53515625 614.640625 244 562.94140625 244 502.002929688 c 0
 244 458.669921875 264.666992188 430.669921875 306 418.002929688 c 1
 351 630.002929688 l 1
346 303.002929688 m 1
 296.999023438 66.001953125 l 1
 323.666015625 74.6689453125 346.333007812 89.3359375 365 110.002929688 c 0
 393 142.002929688 407 175.669921875 407 211.002929688 c 0
 407 259.002929688 386.666992188 289.669921875 346 303.002929688 c 1
EndSplineSet
Substitution2: "'onum' Oldstyle Figures lookup 4 subtable" dollar.oldstyle
Substitution2: "'aalt' Access All Alternates lookup 0 subtable" dollar.oldstyle
EndChar

StartChar: percent
Encoding: 37 37 6
Width: 833
GlyphClass: 2
Flags: W
HStem: -56.001 67.999<612.214 676.029> 282.998 68.001<658.117 725.414> 343 67.999<258.761 323.764> 681.999 68.001<302.732 372.224>
VStem: 166.002 80.001<418.777 595.429> 384.003 76.998<498.53 674.203> 519.002 81<19.3499 196.432> 738.002 76.001<98.7752 275.033>
LayerCount: 2
Fore
SplineSet
273 343 m 0xbf
 235 343 205.668945312 362.666992188 185.001953125 402 c 0
 172.334960938 426 166.001953125 453.666992188 166.001953125 485 c 0
 166.001953125 504.333007812 168.334960938 525.333007812 173.001953125 548 c 0
 192.108398438 635.174804688 262.8515625 750 357.000976562 750 c 0
 394.333984375 750 423.000976562 730.333007812 443.000976562 691 c 0
 455.000976562 667.666992188 461.000976562 640.666992188 461.000976562 610 c 0
 461.000976562 590 458.333984375 568.333007812 453.000976562 545 c 0
 435.036132812 458.770507812 364.268554688 343 273 343 c 0xbf
801.001953125 706 m 2
 215.001953125 -39.0009765625 l 2
 205.668945312 -50.333984375 196.668945312 -56.0009765625 188.001953125 -56.0009765625 c 0
 172.668945312 -56.0009765625 166.001953125 -47.66796875 168.001953125 -31.0009765625 c 1
 180.001953125 -12.0009765625 l 1
 767.001953125 732.999023438 l 2
 776.334960938 744.33203125 785.334960938 749.999023438 794.001953125 749.999023438 c 0
 806.868164062 749.999023438 816.725585938 738.619140625 814.001953125 724.999023438 c 0
 813.334960938 721.666015625 809.001953125 715.333007812 801.001953125 706 c 2
710.001953125 350.999023438 m 0xdf
 774.129882812 350.999023438 814.002929688 283.737304688 814.002929688 208.999023438 c 0
 814.002929688 188.999023438 811.669921875 167.999023438 807.002929688 145.999023438 c 0
 789.03125 59.7373046875 716.942382812 -56.0009765625 625.001953125 -56.0009765625 c 0
 587.668945312 -56.0009765625 558.668945312 -36.333984375 538.001953125 2.9990234375 c 0
 525.334960938 27.666015625 519.001953125 55.666015625 519.001953125 86.9990234375 c 0
 519.001953125 106.33203125 521.334960938 126.999023438 526.001953125 148.999023438 c 0
 543.918945312 236.194335938 616.458984375 350.999023438 710.001953125 350.999023438 c 0xdf
384.002929688 599.999023438 m 0
 384.002929688 637.1953125 372.750976562 681.999023438 344.001953125 681.999023438 c 0
 334.668945312 681.999023438 325.001953125 678.33203125 315.001953125 670.999023438 c 0
 287.668945312 650.999023438 267.3359375 608.999023438 254.002929688 544.999023438 c 0
 248.669921875 519.666015625 246.002929688 497.999023438 246.002929688 479.999023438 c 0
 246.002929688 449.999023438 251.669921875 429.999023438 263.002929688 419.999023438 c 0
 270.3359375 413.999023438 278.002929688 410.999023438 286.002929688 410.999023438 c 0xbf
 303.3359375 410.999023438 321.002929688 423.999023438 339.002929688 449.999023438 c 0
 369.002929688 495.33203125 384.002929688 545.33203125 384.002929688 599.999023438 c 0
738.001953125 203.999023438 m 0
 738.001953125 241.161132812 725.583007812 282.998046875 697.001953125 282.998046875 c 0xdf
 688.334960938 282.998046875 679.001953125 279.331054688 669.001953125 271.998046875 c 0
 641.001953125 251.998046875 620.334960938 209.998046875 607.001953125 145.998046875 c 0
 602.334960938 120.665039062 600.001953125 98.998046875 600.001953125 80.998046875 c 0
 600.001953125 50.998046875 605.334960938 30.998046875 616.001953125 20.998046875 c 0
 622.668945312 14.998046875 630.001953125 11.998046875 638.001953125 11.998046875 c 0
 656.001953125 11.998046875 674.001953125 25.3310546875 692.001953125 51.998046875 c 0
 722.668945312 96.6650390625 738.001953125 147.33203125 738.001953125 203.999023438 c 0
EndSplineSet
EndChar

StartChar: ampersand
Encoding: 38 38 7
Width: 758
GlyphClass: 2
Flags: W
HStem: -22.002 70.999<179.375 345.387 519.979 698.79> 647.998 68<389.461 470.726>
VStem: 260 82<410.998 558.641>
LayerCount: 2
Fore
SplineSet
460 130 m 1
 547.666015625 190.360351562 632.247070312 301.880859375 684 408.998046875 c 1
 749 388.998046875 l 1
 683.666992188 256.998046875 602 154.665039062 504 81.998046875 c 1
 531.333007812 59.998046875 561 48.998046875 593 48.998046875 c 0
 631 48.998046875 672 55.6650390625 716 68.998046875 c 1
 700 -6.001953125 l 1
 656 -16.6689453125 615.333007812 -22.001953125 578 -22.001953125 c 0
 522 -22.001953125 473 -3.001953125 431 34.998046875 c 1
 355 -3.001953125 285.333007812 -22.001953125 222 -22.001953125 c 0
 137.874023438 -22.001953125 69 30.2490234375 69 113.998046875 c 0
 69 168.665039062 93.3330078125 217.665039062 142 260.998046875 c 1
 142 260.998046875 216.793945312 316.342773438 255 344.998046875 c 1
 265 354.998046875 l 2
 265 356.998046875 264.666992188 359.331054688 264 361.998046875 c 0
 261.333007812 383.331054688 260 403.998046875 260 423.998046875 c 0
 260 520.665039062 286 598.665039062 338 657.998046875 c 0
 371.333007812 696.665039062 409 715.998046875 451 715.998046875 c 0
 490.333007812 715.998046875 519 699.331054688 537 665.998046875 c 0
 549 644.665039062 555 621.33203125 555 595.999023438 c 0
 555 547.999023438 534.333007812 501.999023438 493 457.999023438 c 0
 462.333007812 425.33203125 416.666015625 386.33203125 355.999023438 340.999023438 c 1
 374.666015625 271.666015625 409.333007812 201.333007812 460 130 c 1
438 647.998046875 m 0
 421.333007812 647.998046875 404.33203125 639.997070312 386.999023438 623.997070312 c 0
 369.666015625 607.997070312 356.333007812 580.330078125 347 540.997070312 c 0
 345.666992188 531.6640625 344 517.6640625 342 498.997070312 c 0
 339.333007812 463.6640625 340 434.331054688 344 410.998046875 c 1
 422 470.998046875 465.333007812 519.998046875 474 557.998046875 c 0
 475.670898438 583.06640625 481.015625 611.830078125 468.5 631.498046875 c 0
 461.5 642.498046875 451.333007812 647.998046875 438 647.998046875 c 0
383.999023438 83.9970703125 m 1
 352.969726562 126.404296875 300.619140625 222.55078125 279.999023438 285.997070312 c 1
 267.999023438 277.330078125 249.999023438 263.997070312 225.999023438 245.997070312 c 0
 215.33203125 238.6640625 209.999023438 234.6640625 209.999023438 233.997070312 c 0
 171.685546875 204.303710938 135.022460938 133.766601562 171.499023438 79.4970703125 c 0
 185.166015625 59.1640625 206.999023438 48.9970703125 236.999023438 48.9970703125 c 0
 283.666015625 48.9970703125 332.666015625 60.6640625 383.999023438 83.9970703125 c 1
EndSplineSet
Substitution2: "'lnum' Lining Figures lookup 5 subtable" ampersand
Substitution2: "'onum' Oldstyle Figures lookup 4 subtable" ampersand
Substitution2: "'aalt' Access All Alternates lookup 0 subtable" ampersand
EndChar

StartChar: quotesingle
Encoding: 39 39 8
Width: 278
GlyphClass: 2
Flags: W
HStem: 430 286<249 272>
VStem: 190 141
LayerCount: 2
Fore
SplineSet
272 430 m 1
 190 430 l 1
 249 716 l 1
 331 716 l 1
 272 430 l 1
EndSplineSet
EndChar

StartChar: parenleft
Encoding: 40 40 9
Width: 389
GlyphClass: 2
Flags: W
LayerCount: 2
Fore
SplineSet
498 750 m 1
 349.267578125 626.499023438 261.908203125 471.79296875 215.999023438 248.998046875 c 0
 188.247070312 121.338867188 182.702148438 -38.7587890625 224 -142.001953125 c 0
 248.900390625 -200.9765625 253.754882812 -205.674804688 287 -250.001953125 c 1
 218 -250.001953125 l 1
 146.666992188 -168.001953125 111 -62.6689453125 111 65.998046875 c 0
 111 122.665039062 118 184.33203125 132 250.999023438 c 0
 179.083007812 473.232421875 276.672851562 630.538085938 426 750 c 1
 498 750 l 1
EndSplineSet
EndChar

StartChar: parenright
Encoding: 41 41 10
Width: 389
GlyphClass: 2
Flags: W
LayerCount: 2
Fore
SplineSet
362 249 m 0
 316.883789062 29.056640625 217.0546875 -130.755859375 68.0009765625 -249.999023438 c 1
 -3.9990234375 -249.999023438 l 1
 145.411132812 -125.7109375 231.768554688 29.3564453125 278.000976562 251 c 0
 305.752929688 378.659179688 311.297851562 538.756835938 270 642 c 0
 245.099609375 700.974609375 240.245117188 705.672851562 207 750 c 1
 276 750 l 1
 347.333007812 668.666992188 383 563.333984375 383 434.000976562 c 0
 383 377.333984375 376 315.666992188 362 249 c 0
EndSplineSet
EndChar

StartChar: asterisk
Encoding: 42 42 11
Width: 500
GlyphClass: 2
Flags: W
HStem: 638 20G<227.002 243.335 533.334 547.086>
LayerCount: 2
Fore
SplineSet
532 582 m 2
 419.001953125 528.000976562 l 1
 435.668945312 517.333984375 464.3359375 499.666992188 505.002929688 475 c 0
 519.1875 467.907226562 532.131835938 457.861328125 529.002929688 437 c 0
 525.327148438 417.39453125 506.581054688 398 484.002929688 398 c 0
 476.669921875 398 466.336914062 403.666992188 453.00390625 415 c 2
 381.00390625 473 l 1
 373.00390625 413 366.170898438 370.166992188 360.50390625 344.5 c 0
 354.836914062 318.833007812 339.669921875 306 315.002929688 306 c 0
 289.669921875 306 279.669921875 319 285.002929688 345 c 0
 286.3359375 353 292.668945312 377 304.001953125 417 c 2
 319.001953125 472 l 1
 220.001953125 412 l 2
 205.334960938 402.666992188 194.001953125 398 186.001953125 398 c 0
 166.001953125 398 156.001953125 408.666992188 156.001953125 430 c 0
 156.001953125 456.262695312 170.793945312 463.396484375 192.001953125 474 c 2
 304.001953125 528 l 1
 218.001953125 580 l 2
 203.0859375 588.286132812 190.751953125 597.75 195.001953125 619 c 0
 200.334960938 645 215.001953125 658 239.001953125 658 c 0
 247.668945312 658 256.668945312 654 266.001953125 646 c 2
 342.001953125 583 l 1
 345.963867188 602.810546875 359.916015625 696.572265625 363.000976562 711.999023438 c 0
 367.66796875 737.33203125 382.66796875 749.999023438 408.000976562 749.999023438 c 0
 433.333984375 749.999023438 443.333984375 736.999023438 438.000976562 710.999023438 c 0
 433.333984375 685.666015625 422.000976562 643.333007812 404.000976562 584 c 1
 504.000976562 644 l 2
 518.66796875 653.333007812 529.66796875 658 537.000976562 658 c 0
 557.171875 658 571.194335938 638.966796875 567.000976562 618 c 0
 564.333984375 604 552.666992188 592 532 582 c 2
EndSplineSet
EndChar

StartChar: plus
Encoding: 43 43 12
Width: 778
GlyphClass: 2
Flags: W
HStem: 226 48<109.341 412.999 470.999 773.657>
LayerCount: 2
Fore
SplineSet
733 226 m 2
 461 226 l 1
 402 -47 l 2
 397.333007812 -71 387.333007812 -83 372 -83 c 0
 355.333007812 -83 349.666015625 -70.6669921875 354.999023438 -46 c 2
 412.999023438 226 l 1
 141.999023438 226 l 2
 119.396484375 226 105.39453125 231.178710938 108.998046875 251 c 0
 112.331054688 266.333007812 125.998046875 274 149.998046875 274 c 2
 422.998046875 274 l 1
 481.998046875 547 l 2
 486.665039062 571 496.665039062 583 511.998046875 583 c 0
 528.665039062 583 534.33203125 570.666992188 528.999023438 546 c 2
 470.999023438 274 l 1
 740.999023438 274 l 2
 763.6015625 274 777.603515625 268.821289062 774 249 c 0
 770.666992188 233.666992188 757 226 733 226 c 2
EndSplineSet
EndChar

StartChar: comma
Encoding: 44 44 13
Width: 278
GlyphClass: 2
Flags: W
HStem: -125 208
VStem: 68 131
LayerCount: 2
Fore
SplineSet
181 -1 m 1
 115 -125 l 1
 68 -125 l 1
 117 -5 l 1
 95 -5 l 1
 113 83 l 1
 199 83 l 1
 181 -1 l 1
EndSplineSet
EndChar

StartChar: hyphen
Encoding: 45 45 14
Width: 333
GlyphClass: 2
Flags: W
HStem: 193 58<64 317>
VStem: 51 279
LayerCount: 2
Fore
SplineSet
317 193 m 1
 51 193 l 1
 64 251 l 1
 330 251 l 1
 317 193 l 1
EndSplineSet
EndChar

StartChar: period
Encoding: 46 46 15
Width: 278
GlyphClass: 2
Flags: W
HStem: 0 83<114 181>
VStem: 96 103
LayerCount: 2
Fore
SplineSet
181 0 m 1
 96 0 l 1
 114 83 l 1
 199 83 l 1
 181 0 l 1
EndSplineSet
EndChar

StartChar: slash
Encoding: 47 47 16
Width: 500
GlyphClass: 2
Flags: W
LayerCount: 2
Fore
SplineSet
589 706 m 2
 55 -228 l 2
 46.3330078125 -242.666992188 37 -250 27 -250 c 0
 14.1337890625 -250 4.2763671875 -238.620117188 7 -225 c 0
 7.6669921875 -222.333007812 10.6669921875 -216 16 -206 c 2
 550 728 l 2
 558.666992188 742.666992188 568 750 578 750 c 0
 590.866210938 750 600.723632812 738.620117188 598 725 c 0
 597.333007812 722.333007812 594.333007812 716 589 706 c 2
EndSplineSet
EndChar

StartChar: zero
Encoding: 48 48 17
Width: 500
GlyphClass: 2
Flags: W
HStem: -22.001 68<205.174 323.787> 609.999 68.001<313.313 434.196>
VStem: 466.001 79.999<335.878 576.847>
LayerCount: 2
Fore
SplineSet
526 325 m 0
 505.333007812 224.333007812 475.666992188 145.33203125 437 87.9990234375 c 0
 387.666992188 14.666015625 323.666992188 -22.0009765625 245 -22.0009765625 c 0
 161.793945312 -22.0009765625 110.702148438 30.7490234375 97 102.999023438 c 0
 93.6669921875 121.666015625 92 142.666015625 92 165.999023438 c 0
 92 210.666015625 98.3330078125 264.333007812 111 327 c 0
 159 561 253 678 393 678 c 0
 465.70703125 678 515.838867188 635.114257812 534 577 c 0
 542 551.666992188 546 521.666992188 546 487 c 0
 546 441.666992188 539.333007812 387.666992188 526 325 c 0
466.000976562 492.999023438 m 0
 466.000976562 565.329101562 433.80859375 609.999023438 379.001953125 609.999023438 c 0
 328.334960938 609.999023438 286.001953125 577.33203125 252.001953125 511.999023438 c 0
 232.668945312 475.33203125 214.501953125 416.499023438 197.501953125 335.499023438 c 0
 172.666992188 217.166992188 143.764648438 45.9990234375 259.001953125 45.9990234375 c 0
 310.334960938 45.9990234375 353.001953125 80.666015625 387.001953125 149.999023438 c 0
 408.334960938 192.666015625 427.66796875 255.666015625 445.000976562 338.999023438 c 0
 459.000976562 406.999023438 466.000976562 458.33203125 466.000976562 492.999023438 c 0
EndSplineSet
Substitution2: "'zero' Slashed Zero lookup 14 subtable" zero.slash
Substitution2: "'pnum' Proportional Numbers lookup 6 subtable" zero.prop
Substitution2: "'onum' Oldstyle Figures lookup 4 subtable" zero.oldstyle
AlternateSubs2: "'aalt' Access All Alternates lookup 1 subtable" zero.oldstyle zero.prop zero.slash
EndChar

StartChar: one
Encoding: 49 49 18
Width: 500
GlyphClass: 2
Flags: W
HStem: -0.000976562 65<107 230 315 424> 547 66<217 334.307> 658 20G<394.667 444>
LayerCount: 2
Fore
SplineSet
315 65 m 1
 437 64.9990234375 l 1
 424 -0.0009765625 l 1
 94 -0.0009765625 l 1
 107 64.9990234375 l 1
 230 64.9990234375 l 1
 336 568.999023438 l 1
 300 555.666015625 256 548.333007812 204 547 c 1
 217 613 l 1
 304.333007812 616.333007812 371.333007812 638 418 678 c 1
 444 678 l 1
 315 65 l 1
EndSplineSet
Substitution2: "'pnum' Proportional Numbers lookup 6 subtable" one.prop
Substitution2: "'onum' Oldstyle Figures lookup 4 subtable" one.oldstyle
AlternateSubs2: "'aalt' Access All Alternates lookup 1 subtable" one.oldstyle one.prop
EndChar

StartChar: two
Encoding: 50 50 19
Width: 500
GlyphClass: 2
Flags: W
HStem: 0 78<151 450> 448.999 21G<172.499 195.333> 606.999 71.001<281.214 423.732>
VStem: 463 89.999<413.706 567.423>
LayerCount: 2
Fore
SplineSet
463 496 m 0
 463 564.302734375 420.5390625 606.999023438 352.000976562 606.999023438 c 0
 313.333984375 606.999023438 281.666992188 593.666015625 257 566.999023438 c 0
 232.333007812 540.33203125 207.666015625 500.999023438 182.999023438 448.999023438 c 1
 172.499023438 468.499023438 l 2
 161.587890625 488.762695312 165.259765625 481.801757812 148.999023438 512 c 1
 204.33203125 622.666992188 280.999023438 678 378.999023438 678 c 0
 442.999023438 678 490.33203125 656.666992188 520.999023438 614 c 0
 542.33203125 584 552.999023438 549.666992188 552.999023438 511 c 0
 552.999023438 495 550.999023438 478.333007812 546.999023438 461 c 0
 536.33203125 411.666992188 509.999023438 367.333984375 467.999023438 328.000976562 c 0
 432.451171875 294.068359375 411.620117188 276.936523438 359 239.000976562 c 0
 287.208007812 187.459960938 220.255859375 131.078125 151 77 c 1
 247 77 l 2
 251 77 257 77.3330078125 265 78 c 2
 466 78 l 1
 450 0 l 1
 49 0 l 1
 64 69 l 1
 213 193 l 1
 304 263 l 2
 322 277 345.333007812 297.333007812 374 324 c 0
 389.333007812 338.666992188 406 358.666992188 424 384 c 0
 450 420.666992188 463 458 463 496 c 0
EndSplineSet
Substitution2: "'pnum' Proportional Numbers lookup 6 subtable" two.prop
Substitution2: "'onum' Oldstyle Figures lookup 4 subtable" two.oldstyle
AlternateSubs2: "'aalt' Access All Alternates lookup 1 subtable" two.oldstyle two.prop
EndChar

StartChar: three
Encoding: 51 51 20
Width: 500
GlyphClass: 2
Flags: W
HStem: -22 68<164.236 324.882> 320 68<247.001 365.751> 613 65<296.388 438.394>
VStem: 405.002 95<136.149 293.035>
LayerCount: 2
Fore
SplineSet
391 678 m 0
 470.780273438 678 545.001953125 630.51953125 545.001953125 551.000976562 c 0
 545.001953125 510.333984375 527.668945312 468.666992188 493.001953125 426 c 0
 469.668945312 396.666992188 439.668945312 372.666992188 403.001953125 354 c 1
 454.22265625 334.94140625 500.001953125 286.02734375 500.001953125 219 c 0
 500.001953125 207 498.668945312 194.333007812 496.001953125 181 c 0
 484.001953125 124.333007812 453.334960938 76.3330078125 404.001953125 37 c 0
 354.668945312 -2.3330078125 301.001953125 -22 243.001953125 -22 c 0
 160.334960938 -22 99.001953125 13.3330078125 59.001953125 84 c 1
 86.001953125 154 l 1
 114.244140625 90.73828125 171.05078125 46 254.001953125 46 c 0
 332.284179688 46 386.361328125 114.45703125 401.001953125 184 c 0
 403.668945312 192.666992188 405.001953125 202.666992188 405.001953125 214 c 0
 405.001953125 231.333007812 402.001953125 250 396.001953125 270 c 0
 385.334960938 303.333007812 355.66796875 320 307.000976562 320 c 2
 232.000976562 320 l 1
 247.000976562 388 l 1
 297.66796875 392 324.66796875 394.333007812 328.000976562 395 c 0
 387.6953125 408.265625 440.93359375 464.890625 454.000976562 525 c 0
 465.037109375 580.178710938 430.313476562 613 378.000976562 613 c 0
 347.333984375 613 316.166992188 603.833007812 284.5 585.5 c 0
 252.833007812 567.166992188 225.333007812 540 202 504 c 1
 174 566 l 1
 234.666992188 640.666992188 307 678 391 678 c 0
EndSplineSet
Substitution2: "'pnum' Proportional Numbers lookup 6 subtable" three.prop
Substitution2: "'onum' Oldstyle Figures lookup 4 subtable" three.oldstyle
AlternateSubs2: "'aalt' Access All Alternates lookup 1 subtable" three.oldstyle three.prop
EndChar

StartChar: four
Encoding: 52 52 21
Width: 500
GlyphClass: 2
Flags: W
HStem: 0 21G<288 378.142> 169 68<166 324 424 506> 636 20G<399.895 512>
LayerCount: 2
Fore
SplineSet
506 169 m 1
 409 169 l 1
 374 0 l 1
 288 0 l 1
 324 169 l 1
 63 169 l 1
 77 235 l 1
 416 656 l 1
 512 656 l 1
 424 237 l 1
 521 237 l 1
 506 169 l 1
333 452 m 0
 276.333007812 376 220.666992188 304.333007812 166 237 c 1
 344 237 l 1
 415 571 l 1
 399 543 371.666992188 503.333007812 333 452 c 0
EndSplineSet
Substitution2: "'pnum' Proportional Numbers lookup 6 subtable" four.prop
Substitution2: "'onum' Oldstyle Figures lookup 4 subtable" four.oldstyle
AlternateSubs2: "'aalt' Access All Alternates lookup 1 subtable" four.oldstyle four.prop
EndChar

StartChar: five
Encoding: 53 53 22
Width: 500
GlyphClass: 2
Flags: W
HStem: -22 68<161.073 310.038> 360.999 69<265.502 383.425> 584.999 71<282.997 540.997>
VStem: 406 92.9971<158.82 339.824>
LayerCount: 2
Fore
SplineSet
406 270 m 0
 406 319.264648438 383.169921875 360.999023438 335.99609375 360.999023438 c 0
 286.663085938 360.999023438 245.330078125 334.999023438 211.997070312 282.999023438 c 1
 139.997070312 282.999023438 l 1
 217.997070312 655.999023438 l 1
 555.997070312 655.999023438 l 1
 540.997070312 584.999023438 l 1
 282.997070312 584.999023438 l 1
 241.997070312 393.999023438 l 1
 276.6640625 417.999023438 312.6640625 429.999023438 349.997070312 429.999023438 c 0
 402.6640625 429.999023438 442.997070312 407.666015625 470.997070312 362.999023438 c 0
 489.6640625 332.999023438 498.997070312 298.999023438 498.997070312 260.999023438 c 0
 498.997070312 242.999023438 496.997070312 223.666015625 492.997070312 202.999023438 c 0
 479.6640625 141.666015625 447.331054688 88.8330078125 395.998046875 44.5 c 0
 344.665039062 0.1669921875 287.998046875 -22 225.998046875 -22 c 0
 146.665039062 -22 89.33203125 11.6669921875 53.9990234375 79 c 1
 104.999023438 142 l 1
 122.96875 86.8935546875 168.841796875 46 237.999023438 46 c 0
 252.666015625 46 269.333007812 49.6669921875 288 57 c 0
 359.00390625 83.626953125 406 172.520507812 406 270 c 0
EndSplineSet
Substitution2: "'pnum' Proportional Numbers lookup 6 subtable" five.prop
Substitution2: "'onum' Oldstyle Figures lookup 4 subtable" five.oldstyle
AlternateSubs2: "'aalt' Access All Alternates lookup 1 subtable" five.oldstyle five.prop
EndChar

StartChar: six
Encoding: 54 54 23
Width: 500
GlyphClass: 2
Flags: W
HStem: -22 68<205.102 328.695> 396 68<293.7 398.116> 613 65<360.375 543.772>
VStem: 93 84.001<76.3866 283.508>
LayerCount: 2
Fore
SplineSet
541 590 m 1
 507 605.333007812 473.333984375 613 440.000976562 613 c 0
 324.69921875 613 249.344726562 493.650390625 217.000976562 392 c 1
 270.333984375 440 328.666992188 464 392 464 c 0
 439.333007812 464 473.666015625 440 494.999023438 392 c 0
 506.999023438 364 512.999023438 332.333007812 512.999023438 297 c 0
 512.999023438 273.666992188 510.33203125 248.666992188 504.999023438 222 c 0
 489.666015625 152.666992188 455.999023438 94 403.999023438 46 c 0
 354.666015625 0.6669921875 302.333007812 -22 247 -22 c 0
 208.333007812 -22 174 -8.5 144 18.5 c 0
 114 45.5 97 99 93 179 c 0
 91 216.333007812 96.6669921875 264.333007812 110 323 c 0
 130 413.666992188 168.333007812 492.666992188 225 560 c 0
 291 638.666992188 366.333007812 678 451 678 c 0
 487.666992188 678 522.666992188 671 556 657 c 1
 541 590 l 1
341.000976562 396 m 0
 260.497070312 396 201.704101562 319.291015625 187.000976562 247.000976562 c 0
 181.000976562 231.000976562 177.66796875 202.000976562 177.000976562 160.000976562 c 0
 176.333984375 135.333984375 182.000976562 110.166992188 194.000976562 84.5 c 0
 206.000976562 58.8330078125 228.000976562 46 260.000976562 46 c 0
 350.625976562 46 397.930664062 137.639648438 416.500976562 224.5 c 0
 436.37890625 317.478515625 420.317382812 396 341.000976562 396 c 0
EndSplineSet
Substitution2: "'pnum' Proportional Numbers lookup 6 subtable" six.prop
Substitution2: "'onum' Oldstyle Figures lookup 4 subtable" six.oldstyle
AlternateSubs2: "'aalt' Access All Alternates lookup 1 subtable" six.oldstyle six.prop
EndChar

StartChar: seven
Encoding: 55 55 24
Width: 500
GlyphClass: 2
Flags: W
HStem: -11 21G<149 254.333> 578 78<181 501>
VStem: 149 91<-11 71.0625>
LayerCount: 2
Fore
SplineSet
583 586 m 1
 523 530.666992188 462 458.333007812 400 369 c 0
 322 255.666992188 268.666992188 129 240 -11 c 1
 149 -11 l 1
 195 211 312.333007812 407.666992188 501 579 c 1
 393 579 l 2
 389 579 382.666992188 578.666992188 374 578 c 2
 165 578 l 1
 181 656 l 1
 597 656 l 1
 583 586 l 1
EndSplineSet
Substitution2: "'pnum' Proportional Numbers lookup 6 subtable" seven.prop
Substitution2: "'onum' Oldstyle Figures lookup 4 subtable" seven.oldstyle
AlternateSubs2: "'aalt' Access All Alternates lookup 1 subtable" seven.oldstyle seven.prop
EndChar

StartChar: eight
Encoding: 56 56 25
Width: 500
GlyphClass: 2
Flags: W
HStem: -22 68<193.133 333.033> 320.001 67.999<262.781 380.861> 613 65<301.457 448.599>
VStem: 75 87.999<76.0038 226.603> 412.999 87.001<135.244 288.299> 475.998 78.001<456.535 586.245>
LayerCount: 2
Fore
SplineSet
75 140 m 0xf8
 75 244.866210938 159.580078125 324.452148438 242.998046875 355 c 1
 190.709960938 376.59765625 146.814453125 427.599609375 161.998046875 502 c 0
 171.998046875 552 200.331054688 594.333007812 246.998046875 629 c 0
 291.665039062 661.666992188 340.33203125 678 392.999023438 678 c 0
 446.33203125 678 488.33203125 660.333007812 518.999023438 625 c 0
 542.33203125 599 553.999023438 569 553.999023438 535 c 0xf4
 553.999023438 523.666992188 552.666015625 512 549.999023438 500 c 0
 534.873046875 429.869140625 472.6171875 376.5390625 405 354 c 1
 454.698242188 333.196289062 500 286.03515625 500 220 c 0
 500 207.333007812 498.666992188 194.333007812 496 181 c 0
 484 124.333007812 453.666992188 76.3330078125 405 37 c 0
 356.333007812 -2.3330078125 303 -22 245 -22 c 0
 187.666992188 -22 143 -1.6669921875 111 39 c 0
 87 69 75 102.666992188 75 140 c 0xf8
475.998046875 529 m 0
 475.998046875 584.575195312 435.950195312 613 379.999023438 613 c 0
 299.681640625 613 234.999023438 553.732421875 234.999023438 472 c 0
 234.999023438 416.4296875 276.081054688 388 331.999023438 388 c 0
 407.143554688 388 459.40625 437.74609375 472.998046875 502 c 0
 474.998046875 511.333007812 475.998046875 520.333007812 475.998046875 529 c 0
412.999023438 225 m 0xf8
 412.999023438 282.098632812 375.096679688 320.000976562 317.999023438 320.000976562 c 0
 237.779296875 320.000976562 182.775390625 252.385742188 166.999023438 182.000976562 c 0
 164.33203125 167.333984375 162.999023438 153.666992188 162.999023438 141 c 0
 162.999023438 81.998046875 199.678710938 46 258.999023438 46 c 0
 340.733398438 46 393.0625 111.897460938 408.999023438 183 c 0
 411.666015625 198.333007812 412.999023438 212.333007812 412.999023438 225 c 0xf8
EndSplineSet
Substitution2: "'pnum' Proportional Numbers lookup 6 subtable" eight.prop
Substitution2: "'onum' Oldstyle Figures lookup 4 subtable" eight.oldstyle
AlternateSubs2: "'aalt' Access All Alternates lookup 1 subtable" eight.oldstyle eight.prop
EndChar

StartChar: nine
Encoding: 57 57 26
Width: 500
GlyphClass: 2
Flags: W
HStem: -21.999 68<143.638 289.043> 192.001 68<239.563 346.023> 613.001 64.999<314.424 437.208>
VStem: 455.999 89.001<361.253 593.184>
LayerCount: 2
Fore
SplineSet
528 334 m 0
 510 246 473.666015625 168.000976562 418.999023438 100.000976562 c 0
 354.999023438 18.66796875 282.666015625 -21.9990234375 201.999023438 -21.9990234375 c 0
 155.33203125 -21.9990234375 113.33203125 -5.666015625 75.9990234375 27.0009765625 c 1
 121.999023438 86.0009765625 l 1
 147.999023438 59.333984375 179.33203125 46.0009765625 215.999023438 46.0009765625 c 0
 321.948242188 46.0009765625 393.330078125 168.67578125 421.998046875 265.000976562 c 1
 368.665039062 216.333984375 309.998046875 192.000976562 245.998046875 192.000976562 c 0
 198.665039062 192.000976562 164.33203125 216.000976562 142.999023438 264.000976562 c 0
 130.999023438 292.000976562 124.999023438 323.333984375 124.999023438 358.000976562 c 0
 124.999023438 381.333984375 127.666015625 406.666992188 132.999023438 434 c 0
 146.33203125 497.333007812 176.999023438 553 224.999023438 601 c 0
 276.33203125 652.333007812 333.33203125 678 395.999023438 678 c 0
 436.666015625 678 470.333007812 664.333007812 497 637 c 0
 529 603.666992188 545 550 545 476 c 0
 545 435.333007812 539.333007812 388 528 334 c 0
455.999023438 434.000976562 m 0
 465.780273438 524.827148438 466.209960938 613.000976562 383.999023438 613.000976562 c 0
 344.666015625 613.000976562 308.999023438 594.66796875 276.999023438 558.000976562 c 0
 251.666015625 529.333984375 232.999023438 487.333984375 220.999023438 432.000976562 c 0
 200.965820312 336.842773438 216.5703125 260.000976562 296.999023438 260.000976562 c 0
 363.184570312 260.000976562 411.288085938 311.936523438 436.999023438 365.500976562 c 0
 448.999023438 390.500976562 455.33203125 413.333984375 455.999023438 434.000976562 c 0
EndSplineSet
Substitution2: "'pnum' Proportional Numbers lookup 6 subtable" nine.prop
Substitution2: "'onum' Oldstyle Figures lookup 4 subtable" nine.oldstyle
AlternateSubs2: "'aalt' Access All Alternates lookup 1 subtable" nine.oldstyle nine.prop
EndChar

StartChar: colon
Encoding: 58 58 27
Width: 278
GlyphClass: 2
Flags: W
HStem: 0 89<115 183> 355 89<188 257>
VStem: 96 179
LayerCount: 2
Fore
SplineSet
257 355 m 1
 170 355 l 1
 188 444 l 1
 275 444 l 1
 257 355 l 1
183 0 m 1
 96 0 l 1
 115 89 l 1
 202 89 l 1
 183 0 l 1
EndSplineSet
EndChar

StartChar: semicolon
Encoding: 59 59 28
Width: 278
GlyphClass: 2
Flags: W
HStem: 354 90<187 257>
VStem: 68 207
LayerCount: 2
Fore
SplineSet
257 354 m 1
 169 354 l 1
 187 444 l 1
 275 444 l 1
 257 354 l 1
183 2 m 1
 116 -125 l 1
 68 -125 l 1
 118 -2 l 1
 95 -2 l 1
 114 88 l 1
 202 88 l 1
 183 2 l 1
EndSplineSet
EndChar

StartChar: less
Encoding: 60 60 29
Width: 778
GlyphClass: 2
Flags: W
LayerCount: 2
Fore
SplineSet
779 491 m 2
 215 250.000976562 l 1
 674 9.0009765625 l 2
 687.333007812 2.333984375 693 -6.3330078125 691 -17 c 0
 687.666992188 -32.3330078125 678.333984375 -40 663.000976562 -40 c 0
 660.333984375 -40 654.333984375 -37.6669921875 645.000976562 -33 c 2
 152.000976562 225 l 2
 122.75390625 240.393554688 136.026367188 263.70703125 162.000976562 275 c 2
 764.000976562 533 l 2
 775.333984375 537.666992188 782.333984375 540 785.000976562 540 c 0
 797.8671875 540 807.724609375 528.620117188 805.000976562 515 c 0
 802.333984375 505.666992188 793.666992188 497.666992188 779 491 c 2
EndSplineSet
EndChar

StartChar: equal
Encoding: 61 61 30
Width: 778
GlyphClass: 2
Flags: W
HStem: 130 46<88.0892 752.948> 324 46<130.052 794.892>
LayerCount: 2
Fore
SplineSet
753 324 m 2
 163 324 l 2
 141.171875 324 124.641601562 328.352539062 130 348 c 0
 133.333007812 362.666992188 147 370 171 370 c 2
 763 370 l 2
 785.672851562 370 798.592773438 365.7578125 795 346 c 0
 791.666992188 331.333007812 777.666992188 324 753 324 c 2
713 130 m 2
 121 130 l 2
 98.48046875 130 84.42578125 134.33984375 88 154 c 0
 91.3330078125 168.666992188 105.333007812 176 130 176 c 2
 720 176 l 2
 741.828125 176 758.358398438 171.647460938 753 152 c 0
 750.333007812 137.333007812 737 130 713 130 c 2
EndSplineSet
EndChar

StartChar: greater
Encoding: 62 62 31
Width: 778
GlyphClass: 2
Flags: W
LayerCount: 2
Fore
SplineSet
721 225 m 2
 118.999023438 -33.0009765625 l 2
 107.666015625 -37.66796875 100.666015625 -40.0009765625 97.9990234375 -40.0009765625 c 0
 81.33203125 -40.0009765625 74.9990234375 -31.66796875 78.9990234375 -15.0009765625 c 0
 81.666015625 -5.0009765625 89.9990234375 2.9990234375 103.999023438 8.9990234375 c 2
 667.999023438 249.999023438 l 1
 208.999023438 490.999023438 l 2
 195.666015625 497.666015625 190.333007812 506.333007812 193 517 c 0
 196.333007812 532.333007812 205.333007812 540 220 540 c 0
 222.666992188 540 228.666992188 537.666992188 238 533 c 2
 731 275 l 2
 760.247070312 259.606445312 746.974609375 236.29296875 721 225 c 2
EndSplineSet
EndChar

StartChar: question
Encoding: 63 63 32
Width: 472
GlyphClass: 2
Flags: W
HStem: 0.000976562 90<198.001 268.001> 637.001 68<263.988 432.597>
VStem: 451.001 84.999<505.885 622.09>
LayerCount: 2
Fore
SplineSet
309 230 m 2
 297.000976562 173.000976562 l 1
 223.000976562 173.000976562 l 1
 231.000976562 209.000976562 l 2
 255.66796875 323.000976562 312.000976562 412.333984375 400.000976562 477.000976562 c 0
 434.000976562 502.333984375 451.000976562 535.333984375 451.000976562 576.000976562 c 0
 451.000976562 599.333984375 443.333984375 615.000976562 428.000976562 623.000976562 c 0
 409.333984375 632.333984375 387.000976562 637.000976562 361.000976562 637.000976562 c 0
 306.333984375 637.000976562 254.000976562 617.66796875 204.000976562 579.000976562 c 1
 194.000976562 651.000976562 l 1
 254.000976562 687.000976562 314.000976562 705.000976562 374.000976562 705.000976562 c 0
 441.333984375 705.000976562 486.666992188 689.000976562 510 657.000976562 c 0
 527.333007812 634.333984375 536 608.666992188 536 580 c 0
 536 569.333007812 534.666992188 558.333007812 532 547 c 0
 522.666992188 501 497 462 455 430 c 0
 373.666992188 370.666992188 325 304 309 230 c 2
268.000976562 0.0009765625 m 1
 179.000976562 0.0009765625 l 1
 198.000976562 90.0009765625 l 1
 288.000976562 90.0009765625 l 1
 268.000976562 0.0009765625 l 1
EndSplineSet
EndChar

StartChar: at
Encoding: 64 64 33
Width: 667
GlyphClass: 2
Flags: W
HStem: -11 68<309.643 503.928> 119 68.001<416.012 520.263> 507.001 67.999<475.185 578.715> 637 68<419.713 585.727>
VStem: 120.998 83.001<169.485 394.909> 304.998 82.0029<218.05 392.458> 607.999 96.999<345.041 560.68>
CounterMasks: 1 d0
LayerCount: 2
Fore
SplineSet
635 92 m 1
 577.072265625 38.900390625 492.193359375 -11 385.999023438 -11 c 0
 295.33203125 -11 224.665039062 23.6669921875 173.998046875 93 c 0
 138.665039062 142.333007812 120.998046875 199 120.998046875 263 c 0
 120.998046875 289.666992188 123.998046875 318 129.998046875 348 c 0
 149.998046875 442.666992188 197.998046875 525 273.998046875 595 c 0
 353.998046875 668.333007812 440.998046875 705 534.998046875 705 c 0
 648.331054688 705 704.998046875 639.666992188 704.998046875 509 c 0
 704.998046875 466.333007812 698.998046875 417 686.998046875 361 c 0
 668.331054688 273 632.331054688 209.333007812 578.998046875 170 c 0
 532.998046875 136 489.998046875 119 449.998046875 119 c 0
 399.331054688 119 359.998046875 141 331.998046875 185 c 0
 313.998046875 214.333007812 304.998046875 248.333007812 304.998046875 287 c 0
 304.998046875 305.666992188 306.998046875 326 310.998046875 348 c 0
 334.03515625 453.487304688 426.106445312 575 544.998046875 575 c 0
 571.665039062 575 595.998046875 568.333007812 617.998046875 555 c 1
 607.331054688 609.666992188 575.331054688 637 521.998046875 637 c 0
 448.665039062 637 381.33203125 606 319.999023438 544 c 0
 263.33203125 487.333007812 227.33203125 421.333007812 211.999023438 346 c 0
 206.666015625 320.666992188 203.999023438 296.666992188 203.999023438 274 c 0
 203.999023438 224 216.33203125 179.666992188 240.999023438 141 c 0
 277.666015625 85 331.333007812 57 402 57 c 0
 450 57 499.666992188 67.3330078125 551 88 c 0
 557.666992188 90.6669921875 566.666992188 92 578 92 c 2
 635 92 l 1
607.999023438 399 m 0
 607.999023438 454.646484375 580.354492188 507.000976562 532.000976562 507.000976562 c 0
 461.627929688 507.000976562 407.04296875 412.69921875 393.000976562 346.000976562 c 0
 389.000976562 328.000976562 387.000976562 310.66796875 387.000976562 294.000976562 c 0
 387.000976562 239.046875 414.14453125 187.000976562 462.000976562 187.000976562 c 0
 490.66796875 187.000976562 518.66796875 202.333984375 546.000976562 233.000976562 c 0
 565.333984375 254.333984375 578.666992188 273.666992188 586 291 c 0
 594.6015625 309.279296875 607.999023438 365.959960938 607.999023438 399 c 0
EndSplineSet
EndChar

StartChar: A
Encoding: 65 65 34
Width: 667
GlyphClass: 2
Flags: W
HStem: 0 21G<25 118.782 536.733 639> 202 63<263 496> 674 20G<421.242 529.256>
LayerCount: 2
Fore
SplineSet
540 0 m 1
 507 202 l 1
 226 202 l 1
 107 0 l 1
 25 0 l 1
 433 694 l 1
 526 694 l 1
 639 0 l 1
 540 0 l 1
452 603 m 1
 437.333007812 572.333007812 407.333007812 517.333984375 362 438.000976562 c 0
 340 399.333984375 307 341.666992188 263 265 c 1
 496 265 l 1
 461 515 l 2
 455.666992188 553 452.666992188 582.333007812 452 603 c 1
EndSplineSet
Position2: "'cpsp' Capital Spacing lookup 0 subtable" dx=7 dy=0 dh=14 dv=0
EndChar

StartChar: B
Encoding: 66 66 35
Width: 667
GlyphClass: 2
Flags: W
HStem: -0.00195312 63<200 455.085> 325.998 68<270 495.537> 630.998 63<320 550.786>
VStem: 565 89<148.332 270.609> 610 87<472.866 584.037>
LayerCount: 2
Fore
SplineSet
511 363 m 1xe8
 580.75 347.366210938 654 295.177734375 654 217.998046875 c 0xf0
 654 156.665039062 619.666992188 102.998046875 551 56.998046875 c 0
 495 18.998046875 431.666992188 -0.001953125 361 -0.001953125 c 2
 96 -0.001953125 l 1
 244 693.998046875 l 1
 481 693.998046875 l 2
 551 693.998046875 606.333007812 676.665039062 647 641.998046875 c 0
 680.333007812 613.331054688 697 580.998046875 697 544.998046875 c 0
 697 535.665039062 696 526.33203125 694 516.999023438 c 0
 677.317382812 439.145507812 592.177734375 386.728515625 511 363 c 1xe8
441 630.998046875 m 2
 320 630.998046875 l 1
 270 393.998046875 l 1
 379 393.998046875 l 2
 429.666992188 393.998046875 478 404.665039062 524 425.998046875 c 0
 581.333007812 452.665039062 610 488.665039062 610 533.998046875 c 0xe8
 610 567.331054688 589 592.998046875 547 610.998046875 c 0
 515 624.331054688 479.666992188 630.998046875 441 630.998046875 c 2
346 62.998046875 m 2
 446.71484375 62.998046875 565 118.326171875 565 212.998046875 c 0xf0
 565 249.665039062 545 278.665039062 505 299.998046875 c 0
 471.666992188 317.331054688 435 325.998046875 395 325.998046875 c 2
 255 325.998046875 l 1
 200 62.998046875 l 1
 346 62.998046875 l 2
EndSplineSet
Position2: "'cpsp' Capital Spacing lookup 0 subtable" dx=7 dy=0 dh=14 dv=0
EndChar

StartChar: C
Encoding: 67 67 36
Width: 639
GlyphClass: 2
Flags: W
HStem: -10.999 71<317.225 525.775> 635.002 70.998<430.894 629.63>
VStem: 130 97<163.559 390.906>
LayerCount: 2
Fore
SplineSet
685 579 m 1
 639 616.333007812 585 635.001953125 523 635.001953125 c 0
 460.333007812 635.001953125 401 607.001953125 345 551.001953125 c 0
 289 495.001953125 252.333007812 426.668945312 235 346.001953125 c 0
 229.666992188 318.668945312 227 292.668945312 227 268.001953125 c 0
 227 221.334960938 237.666992188 179.66796875 259 143.000976562 c 0
 291 87.66796875 337.666992188 60.0009765625 399 60.0009765625 c 0
 441 60.0009765625 475.166992188 64.0009765625 501.5 72.0009765625 c 0
 527.833007812 80.0009765625 563 97.333984375 607 124.000976562 c 1
 598 46.0009765625 l 1
 554.666992188 22.0009765625 519 6.5009765625 491 -0.4990234375 c 0
 463 -7.4990234375 428.333007812 -10.9990234375 387 -10.9990234375 c 0
 297.666992188 -10.9990234375 228.666992188 24.333984375 180 95.0009765625 c 0
 146.666992188 143.000976562 130 198.333984375 130 261.000976562 c 0
 130 288.333984375 133.333007812 317.333984375 140 348.000976562 c 0
 160.666992188 443.333984375 207.333984375 525.666992188 280.000976562 595 c 0
 357.333984375 669 442.666992188 706 536 706 c 0
 603.333007812 706 664.333007812 693.666992188 719 669 c 1
 685 579 l 1
EndSplineSet
Position2: "'cpsp' Capital Spacing lookup 0 subtable" dx=7 dy=0 dh=14 dv=0
EndChar

StartChar: D
Encoding: 68 68 37
Width: 722
GlyphClass: 2
Flags: W
HStem: 0 63<201.998 449.289> 631 63<321.998 561.86>
VStem: 653.998 93<300.628 532.397>
LayerCount: 2
Fore
SplineSet
360 0 m 2
 94.998046875 0 l 1
 242.998046875 694 l 1
 504.998046875 694 l 2
 590.998046875 694 656.331054688 659.333007812 700.998046875 590 c 0
 731.665039062 543.333007812 746.998046875 490 746.998046875 430 c 0
 746.998046875 401.333007812 743.665039062 371.333007812 736.998046875 340 c 0
 717.665039062 249.333007812 673.33203125 171 603.999023438 105 c 0
 530.666015625 35 449.333007812 0 360 0 c 2
621.998046875 551 m 0
 589.331054688 604.333007812 538.665039062 631 469.998046875 631 c 2
 321.998046875 631 l 1
 201.998046875 63 l 1
 347.998046875 63 l 2
 504.591796875 63 614.860351562 202.379882812 643.998046875 342 c 0
 650.665039062 372 653.998046875 400.333007812 653.998046875 427 c 0
 653.998046875 475 643.331054688 516.333007812 621.998046875 551 c 0
EndSplineSet
Position2: "'cpsp' Capital Spacing lookup 0 subtable" dx=7 dy=0 dh=14 dv=0
EndChar

StartChar: E
Encoding: 69 69 38
Width: 597
GlyphClass: 2
Flags: W
HStem: 0 77<205 555> 325 68<273 584> 619 72<320 672>
LayerCount: 2
Fore
SplineSet
672 619 m 1
 471 619 l 2
 463 619.666992188 457 620 453 620 c 2
 320 620 l 1
 273 393 l 1
 598 393 l 1
 584 325 l 1
 258 325 l 1
 205 77 l 1
 407 77 l 2
 411 77 417 77.3330078125 425 78 c 2
 571 78 l 1
 555 0 l 1
 93 0 l 1
 240 691 l 1
 688 691 l 1
 672 619 l 1
EndSplineSet
Position2: "'cpsp' Capital Spacing lookup 0 subtable" dx=7 dy=0 dh=14 dv=0
EndChar

StartChar: F
Encoding: 70 70 39
Width: 569
GlyphClass: 2
Flags: W
HStem: 0 21G<93 193.244> 311 69<270 553> 619 72<320 658>
LayerCount: 2
Fore
SplineSet
658 619 m 1
 464 619 l 2
 456 619.666992188 450 620 446 620 c 2
 320 620 l 1
 270 380 l 1
 567 380 l 1
 553 311 l 1
 255 311 l 1
 189 0 l 1
 93 0 l 1
 240 691 l 1
 674 691 l 1
 658 619 l 1
EndSplineSet
Position2: "'cpsp' Capital Spacing lookup 0 subtable" dx=7 dy=0 dh=14 dv=0
EndChar

StartChar: G
Encoding: 71 71 40
Width: 667
GlyphClass: 2
Flags: W
HStem: -10.999 71<317.225 529.946> 236.001 68<449 564> 635.002 70.998<431.08 625.496>
VStem: 130 97<163.559 390.906>
LayerCount: 2
Fore
SplineSet
695 564 m 1
 649.666992188 611.333007812 592.333007812 635.001953125 523 635.001953125 c 0
 460.333007812 635.001953125 401 607.001953125 345 551.001953125 c 0
 289 495.001953125 252.666992188 426.668945312 236 346.001953125 c 0
 230 318.668945312 227 292.668945312 227 268.001953125 c 0
 227 221.334960938 237.666992188 179.66796875 259 143.000976562 c 0
 291 87.66796875 337.666992188 60.0009765625 399 60.0009765625 c 0
 443.666992188 60.0009765625 487.666992188 66.66796875 531 80.0009765625 c 1
 564 236.000976562 l 1
 434 236.000976562 l 1
 449 304.000976562 l 1
 664 304.000976562 l 1
 607 39.0009765625 l 1
 533 5.66796875 459.666992188 -10.9990234375 387 -10.9990234375 c 0
 297.666992188 -10.9990234375 228.666992188 24.333984375 180 95.0009765625 c 0
 146.666992188 143.000976562 130 198.333984375 130 261.000976562 c 0
 130 288.333984375 133.333007812 317.333984375 140 348.000976562 c 0
 160.666992188 443.333984375 207.333984375 525.666992188 280.000976562 595 c 0
 357.333984375 669 443.000976562 706 537.000976562 706 c 0
 610.333984375 706 674.666992188 688.666992188 730 654 c 1
 695 564 l 1
EndSplineSet
Position2: "'cpsp' Capital Spacing lookup 0 subtable" dx=7 dy=0 dh=14 dv=0
EndChar

StartChar: H
Encoding: 72 72 41
Width: 708
GlyphClass: 2
Flags: W
HStem: 0 21G<93 193.233 518 618.265> 326 68<273 587> 674 20G<236.735 337 661.733 762>
LayerCount: 2
Fore
SplineSet
614 0 m 1
 518 0 l 1
 587 326 l 1
 258 326 l 1
 189 0 l 1
 93 0 l 1
 241 694 l 1
 337 694 l 1
 273 394 l 1
 602 394 l 1
 666 694 l 1
 762 694 l 1
 614 0 l 1
EndSplineSet
Position2: "'cpsp' Capital Spacing lookup 0 subtable" dx=7 dy=0 dh=14 dv=0
EndChar

StartChar: I
Encoding: 73 73 42
Width: 278
GlyphClass: 2
Flags: W
HStem: 0 21G<93 191.179> 674 20G<233.821 332>
VStem: 93 239
LayerCount: 2
Fore
SplineSet
187 0 m 1
 93 0 l 1
 238 694 l 1
 332 694 l 1
 187 0 l 1
EndSplineSet
Position2: "'cpsp' Capital Spacing lookup 0 subtable" dx=7 dy=0 dh=14 dv=0
EndChar

StartChar: J
Encoding: 74 74 43
Width: 472
GlyphClass: 2
Flags: W
HStem: -22 68<117.45 275.627> 674 20G<439.733 537>
LayerCount: 2
Fore
SplineSet
78 106 m 1
 103.48046875 70.548828125 139.848632812 46 194 46 c 0
 246.666992188 46 283 62.3330078125 303 95 c 0
 317 117 325.666992188 137 329 155 c 2
 444 694 l 1
 537 694 l 1
 422 150 l 2
 400.91015625 50.751953125 325.172851562 -22 209 -22 c 0
 153 -22 98.3330078125 -7.3330078125 45 22 c 1
 78 106 l 1
EndSplineSet
Position2: "'cpsp' Capital Spacing lookup 0 subtable" dx=7 dy=0 dh=14 dv=0
EndChar

StartChar: K
Encoding: 75 75 44
Width: 694
GlyphClass: 2
Flags: W
HStem: 0 21G<95 191.248 545.756 655> 674 20G<238.735 335 664.111 792>
LayerCount: 2
Fore
SplineSet
463 418 m 1
 655 0 l 1
 555 0 l 1
 390 357 l 1
 235 226 l 1
 187 0 l 1
 95 0 l 1
 243 694 l 1
 335 694 l 1
 258 334 l 1
 688 694 l 1
 792 694 l 1
 463 418 l 1
EndSplineSet
Position2: "'cpsp' Capital Spacing lookup 0 subtable" dx=7 dy=0 dh=14 dv=0
EndChar

StartChar: L
Encoding: 76 76 45
Width: 542
GlyphClass: 2
Flags: W
HStem: 0 71<204 499> 674 20G<235.764 335>
LayerCount: 2
Fore
SplineSet
499 0 m 1
 93 0 l 1
 240 694 l 1
 335 694 l 1
 204 71 l 1
 247 71 l 1
 514 73 l 1
 499 0 l 1
EndSplineSet
Position2: "'cpsp' Capital Spacing lookup 0 subtable" dx=7 dy=0 dh=14 dv=0
EndChar

StartChar: M
Encoding: 77 77 46
Width: 875
GlyphClass: 2
Flags: W
HStem: 0 21G<689 779.265> 674 20G<242.735 380.016 791.012 923>
LayerCount: 2
Fore
SplineSet
460 110 m 1
 482.666992188 156 529.666992188 238.333007812 601 357 c 2
 803 694 l 1
 923 694 l 1
 775 0 l 1
 689 0 l 1
 816 593 l 1
 800.666992188 563.666992188 782 530.333984375 760 493.000976562 c 2
 480 22.0009765625 l 1
 402 22.0009765625 l 1
 336 410.000976562 l 2
 322 490.000976562 313.333007812 550.000976562 310 590.000976562 c 1
 184 0.0009765625 l 1
 99 0.0009765625 l 1
 247 694.000976562 l 1
 366 694.000976562 l 1
 394.032226562 527.69921875 421.998046875 361.331054688 450 195 c 0
 454.666992188 167 458 138.666992188 460 110 c 1
EndSplineSet
Position2: "'cpsp' Capital Spacing lookup 0 subtable" dx=7 dy=0 dh=14 dv=0
EndChar

StartChar: N
Encoding: 78 78 47
Width: 708
GlyphClass: 2
Flags: W
HStem: 0 21G<95 184.231 477.215 616.265> 674 20G<238.735 377.752 670.736 760>
LayerCount: 2
Fore
SplineSet
546 89 m 1
 675 694 l 1
 760 694 l 1
 612 0 l 1
 483 0 l 1
 308 605 l 1
 180 0 l 1
 95 0 l 1
 243 694 l 1
 372 694 l 1
 546 89 l 1
EndSplineSet
Position2: "'cpsp' Capital Spacing lookup 0 subtable" dx=7 dy=0 dh=14 dv=0
EndChar

StartChar: O
Encoding: 79 79 48
Width: 736
GlyphClass: 2
Flags: W
HStem: -22 71.999<300.007 468.286> 645 70.999<414.029 585.35>
VStem: 118 99<147.031 385.676> 670 92.001<316.428 551.288>
LayerCount: 2
Fore
SplineSet
363 -22 m 0
 279 -22 213.666992188 13.3330078125 167 84 c 0
 134.333007812 132 118 188 118 252 c 0
 118 281.333007812 121.666992188 312.666015625 129 345.999023438 c 0
 149.666992188 441.33203125 195 524.999023438 265 596.999023438 c 0
 341.666992188 676.33203125 426.333984375 715.999023438 519.000976562 715.999023438 c 0
 603.66796875 715.999023438 669.000976562 679.666015625 715.000976562 606.999023438 c 0
 746.333984375 558.33203125 762.000976562 502.33203125 762.000976562 438.999023438 c 0
 762.000976562 408.999023438 758.66796875 377.33203125 752.000976562 343.999023438 c 0
 732.000976562 248.666015625 687.000976562 165.333007812 617.000976562 94 c 0
 540.333984375 16.6669921875 455.666992188 -22 363 -22 c 0
640 567 m 0
 608.666992188 619 563.666992188 645 505 645 c 0
 437 645 376 613.333007812 322 550 c 0
 274.666992188 495.333007812 243.666992188 431.666015625 229 358.999023438 c 0
 221 322.999023438 217 289.666015625 217 258.999023438 c 0
 217 211.666015625 226 170.666015625 244 135.999023438 c 0
 274 78.666015625 318.666992188 49.9990234375 378 49.9990234375 c 0
 448 49.9990234375 510.666992188 85.666015625 566 156.999023438 c 0
 612.666992188 216.33203125 644 284.33203125 660 360.999023438 c 0
 666.666992188 391.666015625 670 420.333007812 670 447 c 0
 670 493.666992188 660 533.666992188 640 567 c 0
EndSplineSet
Position2: "'cpsp' Capital Spacing lookup 0 subtable" dx=7 dy=0 dh=14 dv=0
EndChar

StartChar: P
Encoding: 80 80 49
Width: 639
GlyphClass: 2
Flags: W
HStem: 286.001 65<263 497.079> 631.001 63<322 549.461>
VStem: 603 87.999<447.15 583.751>
LayerCount: 2
Fore
SplineSet
413 286 m 2
 251 286.000976562 l 1
 191 0.0009765625 l 1
 95 0.0009765625 l 1
 243 694.000976562 l 1
 492 694.000976562 l 2
 559.333007812 694.000976562 611.666015625 673.66796875 648.999023438 633.000976562 c 0
 676.999023438 602.333984375 690.999023438 567.333984375 690.999023438 528.000976562 c 0
 690.999023438 515.333984375 689.666015625 502.666992188 686.999023438 490 c 0
 674.999023438 431.333007812 640.999023438 382.333007812 584.999023438 343 c 0
 531.666015625 305 474.333007812 286 413 286 c 2
603 522.000976562 m 0
 603 595.243164062 536.220703125 631.000976562 458 631.000976562 c 2
 322 631.000976562 l 1
 263 351.000976562 l 1
 397 351.000976562 l 2
 498.443359375 351.000976562 581.594726562 407.705078125 599 491.000976562 c 0
 601.666992188 501.66796875 603 512.000976562 603 522.000976562 c 0
EndSplineSet
Position2: "'cpsp' Capital Spacing lookup 0 subtable" dx=7 dy=0 dh=14 dv=0
EndChar

StartChar: Q
Encoding: 81 81 50
Width: 736
GlyphClass: 2
Flags: W
HStem: -23 71<298.698 429.567> 645 71<414.462 584.924>
VStem: 117.998 94.002<146.341 384.955> 669.998 93.001<302.346 546.805>
LayerCount: 2
Fore
SplineSet
544 34 m 1
 628.998046875 -125 l 1
 518.998046875 -125 l 1
 459.998046875 -6 l 1
 427.998046875 -17.3330078125 395.665039062 -23 362.998046875 -23 c 0
 278.998046875 -23 213.665039062 12.3330078125 166.998046875 83 c 0
 134.331054688 131.666992188 117.998046875 187.666992188 117.998046875 251 c 0
 117.998046875 281 121.665039062 312.333007812 128.998046875 345 c 0
 149.665039062 441 194.998046875 525 264.998046875 597 c 0
 341.665039062 676.333007812 426.33203125 716 518.999023438 716 c 0
 603.666015625 716 668.999023438 679.666992188 714.999023438 607 c 0
 746.999023438 558.333007812 762.999023438 502.333007812 762.999023438 439 c 0
 762.999023438 409 759.33203125 377.333007812 751.999023438 344 c 0
 724.666015625 214 655.333007812 110.666992188 544 34 c 1
640.998046875 562 m 0
 610.331054688 617.333007812 565 645 505 645 c 0
 435.666992188 645 373 611 317 543 c 0
 269 485 237.333007812 418.666992188 222 344 c 0
 215.333007812 312 212 282 212 254 c 0
 212 206 222 164.666992188 242 130 c 0
 273.333007812 75.3330078125 318.666015625 48 377.999023438 48 c 0
 396.239257812 48 413.688476562 50.9228515625 429.998046875 55 c 1
 358.998046875 199 l 1
 454.998046875 199 l 1
 509.998046875 97 l 1
 587.998046875 158.333007812 637.665039062 241 658.998046875 345 c 0
 666.331054688 379 669.998046875 410.333007812 669.998046875 439 c 0
 669.998046875 486.333007812 660.331054688 527.333007812 640.998046875 562 c 0
EndSplineSet
Position2: "'cpsp' Capital Spacing lookup 0 subtable" dx=7 dy=0 dh=14 dv=0
EndChar

StartChar: R
Encoding: 82 82 51
Width: 646
GlyphClass: 2
Flags: W
HStem: 0 21G<94.999 192.216 516.331 619.999> 313 69<268.998 403.999> 631 63<321.998 559.937>
VStem: 611.999 88.001<464.424 586.548>
LayerCount: 2
Fore
SplineSet
492 324 m 1
 619.999023438 0 l 1
 523.999023438 0 l 1
 403.999023438 313 l 1
 253.999023438 313 l 1
 187.999023438 0 l 1
 94.9990234375 0 l 1
 242.999023438 694 l 1
 483.999023438 694 l 2
 554.666015625 694 610.333007812 675.333007812 651 638 c 0
 683.666992188 608 700 574 700 536 c 0
 700 526 699 515.666992188 697 505 c 0
 677.717773438 414.098632812 585.196289062 350.447265625 492 324 c 1
611.999023438 530 m 0
 611.999023438 599.900390625 537.866210938 631 460.998046875 631 c 2
 321.998046875 631 l 1
 268.998046875 382 l 1
 405.998046875 382 l 2
 452.665039062 382 494.33203125 391.333007812 530.999023438 410 c 0
 574.33203125 432.666992188 600.33203125 465 608.999023438 507 c 0
 610.999023438 515 611.999023438 522.666992188 611.999023438 530 c 0
EndSplineSet
Position2: "'cpsp' Capital Spacing lookup 0 subtable" dx=7 dy=0 dh=14 dv=0
EndChar

StartChar: S
Encoding: 83 83 52
Width: 556
GlyphClass: 2
Flags: W
HStem: -22 76<177.2 369.284> 643.001 73<329.567 511.643>
VStem: 159.999 90.001<450.58 569.32> 454.999 90.002<139.582 271.122>
LayerCount: 2
Fore
SplineSet
285 54 m 0
 372.2109375 54 454.999023438 120.42578125 454.999023438 209 c 0
 454.999023438 285.295898438 398.778320312 298.120117188 321.999023438 317 c 0
 256.247070312 334.095703125 224.2109375 345.583984375 191.999023438 389 c 0
 170.666015625 417.666992188 159.999023438 448.333984375 159.999023438 481.000976562 c 0
 159.999023438 547.000976562 192.33203125 605.333984375 256.999023438 656.000976562 c 0
 307.666015625 696.000976562 366.333007812 716.000976562 433 716.000976562 c 0
 499 716.000976562 557.333007812 698.66796875 608 664.000976562 c 1
 573 576.000976562 l 1
 529 620.66796875 477.333007812 643.000976562 418 643.000976562 c 0
 333.333984375 643.000976562 250 586.673828125 250 504.000976562 c 0
 250 470.66796875 267.333007812 445.66796875 302 429.000976562 c 0
 310.666992188 425.000976562 330.666992188 419.000976562 362 411.000976562 c 0
 404.666992188 400.333984375 433.333984375 391.666992188 448.000976562 385 c 0
 500.194335938 360.8125 545.000976562 307.190429688 545.000976562 235 c 0
 545.000976562 220.333007812 543.333984375 205.333007812 540.000976562 190 c 0
 527.333984375 129.333007812 494.833984375 78.8330078125 442.500976562 38.5 c 0
 390.16796875 -1.8330078125 333.000976562 -22 271.000976562 -22 c 0
 190.333984375 -22 117.666992188 1.6669921875 53 49 c 1
 88 137 l 1
 142 81.6669921875 207.666992188 54 285 54 c 0
EndSplineSet
Position2: "'cpsp' Capital Spacing lookup 0 subtable" dx=7 dy=0 dh=14 dv=0
EndChar

StartChar: T
Encoding: 84 84 53
Width: 681
GlyphClass: 2
Flags: W
HStem: 0 21G<293 393.279> 616 72<183 425 521 775>
LayerCount: 2
Fore
SplineSet
775 616 m 1
 623 616 l 2
 615 616.666992188 609 617 605 617 c 2
 521 617 l 1
 389 0 l 1
 293 0 l 1
 425 617 l 1
 341 617 l 2
 337 617 331 616.666992188 323 616 c 2
 167 616 l 1
 183 688 l 1
 791 688 l 1
 775 616 l 1
EndSplineSet
Position2: "'cpsp' Capital Spacing lookup 0 subtable" dx=7 dy=0 dh=14 dv=0
EndChar

StartChar: U
Encoding: 85 85 54
Width: 688
GlyphClass: 2
Flags: W
HStem: -22 63<284.51 437.846> 674 20G<236.773 337 652.74 742.001>
VStem: 137 95<93.9345 298.258>
LayerCount: 2
Fore
SplineSet
232 173 m 0
 232 93.5302734375 282.875 41 355.000976562 41 c 0
 462.919921875 41 538.540039062 137.713867188 559.000976562 234 c 2
 657.000976562 694 l 1
 742.000976562 694 l 1
 644.000976562 233 l 2
 629.333984375 163 593.166992188 103 535.5 53 c 0
 477.833007812 3 413.333007812 -22 342 -22 c 0
 273.333007812 -22 219 2.6669921875 179 52 c 0
 151 87.3330078125 137 128.333007812 137 175 c 0
 137 194.333007812 139.333007812 214.333007812 144 235 c 2
 241 694 l 1
 337 694 l 1
 239 232 l 2
 234.333007812 210.666992188 232 191 232 173 c 0
EndSplineSet
Position2: "'cpsp' Capital Spacing lookup 0 subtable" dx=7 dy=0 dh=14 dv=0
EndChar

StartChar: V
Encoding: 86 86 55
Width: 667
GlyphClass: 2
Flags: W
HStem: 0 21G<282.398 394.133> 674 20G<161 264.453 704.941 803>
LayerCount: 2
Fore
SplineSet
360 90 m 1
 378 127.333007812 428.666992188 215.333007812 512 354 c 2
 717 694 l 1
 803 694 l 1
 382 0 l 1
 286 0 l 1
 161 694 l 1
 261 694 l 1
 338 248 l 2
 350.666992188 172.666992188 358 120 360 90 c 1
EndSplineSet
Position2: "'cpsp' Capital Spacing lookup 0 subtable" dx=7 dy=0 dh=14 dv=0
EndChar

StartChar: W
Encoding: 87 87 56
Width: 944
GlyphClass: 2
Flags: W
HStem: -0.00292969 21G<215.416 313.088 633.501 738.116>
VStem: 596.001 108.999<324.997 368.983>
LayerCount: 2
Fore
SplineSet
705 97 m 1
 724.333007812 144.333007812 769.66796875 238.997070312 841.000976562 380.997070312 c 2
 999.000976562 693.997070312 l 1
 1079.00097656 693.997070312 l 1
 728.000976562 -0.0029296875 l 1
 635.000976562 -0.0029296875 l 1
 605.000976562 399.997070312 l 2
 598.333984375 488.6640625 595.333984375 554.331054688 596.000976562 596.998046875 c 1
 576.66796875 548.331054688 537.000976562 464.331054688 477.000976562 344.998046875 c 2
 303.000976562 -0.001953125 l 1
 217.000976562 -0.001953125 l 1
 162.000976562 693.998046875 l 1
 255.000976562 693.998046875 l 1
 287.000976562 245.998046875 l 2
 291.000976562 188.665039062 292.333984375 140.33203125 291.000976562 100.999023438 c 1
 312.333984375 156.33203125 356.666992188 250.33203125 424 382.999023438 c 2
 581 693.999023438 l 1
 667 693.999023438 l 1
 692 352.999023438 l 2
 702 219.666015625 706.333007812 134.333007812 705 97 c 1
EndSplineSet
Position2: "'cpsp' Capital Spacing lookup 0 subtable" dx=7 dy=0 dh=14 dv=0
EndChar

StartChar: X
Encoding: 88 88 57
Width: 667
GlyphClass: 2
Flags: W
HStem: 0 21G<9 133.333 533.733 656> 674 20G<171 294.588 638.333 763>
LayerCount: 2
Fore
SplineSet
451 365 m 1
 656 0 l 1
 544 0 l 1
 390 300 l 1
 115 0 l 1
 9 0 l 1
 356 366 l 1
 171 694 l 1
 284 694 l 1
 419 439 l 1
 657 694 l 1
 763 694 l 1
 451 365 l 1
EndSplineSet
Position2: "'cpsp' Capital Spacing lookup 0 subtable" dx=7 dy=0 dh=14 dv=0
EndChar

StartChar: Y
Encoding: 89 89 58
Width: 667
GlyphClass: 2
Flags: W
HStem: 0 21G<287 384.275> 674 20G<149 270.375 667.661 816>
LayerCount: 2
Fore
SplineSet
396 406 m 2
 398 403.333007812 405.333007812 386 418 354 c 1
 514.918945312 470.415039062 617.322265625 581.344726562 718 694 c 1
 816 694 l 1
 439 276 l 1
 380 0 l 1
 287 0 l 1
 346 278 l 1
 149 694 l 1
 261 694 l 1
 396 406 l 2
EndSplineSet
Position2: "'cpsp' Capital Spacing lookup 0 subtable" dx=7 dy=0 dh=14 dv=0
EndChar

StartChar: Z
Encoding: 90 90 59
Width: 611
GlyphClass: 2
Flags: W
HStem: 0 71<194 561> 625 69<216 565>
LayerCount: 2
Fore
SplineSet
693 648 m 1
 194 71 l 1
 217 71 l 1
 576 73 l 1
 561 0 l 1
 55 0 l 1
 65 48 l 1
 565 626 l 1
 439 626 l 2
 435 626 429 625.666992188 421 625 c 2
 200 625 l 1
 216 694 l 1
 703 694 l 1
 693 648 l 1
EndSplineSet
Position2: "'cpsp' Capital Spacing lookup 0 subtable" dx=7 dy=0 dh=14 dv=0
EndChar

StartChar: bracketleft
Encoding: 91 91 60
Width: 289
GlyphClass: 2
Flags: W
HStem: -250 68<141 217> 682 68<321 412>
LayerCount: 2
Fore
SplineSet
412 682 m 1
 321 682 l 1
 141 -182 l 1
 231 -182 l 1
 217 -250 l 1
 48 -250 l 1
 257 750 l 1
 426 750 l 1
 412 682 l 1
EndSplineSet
EndChar

StartChar: backslash
Encoding: 92 92 61
Width: 500
GlyphClass: 2
Flags: W
VStem: 211 183
LayerCount: 2
Fore
SplineSet
367 -250 m 0
 356.333007812 -250 349.666992188 -241.666992188 347 -225 c 2
 211 727 l 1
 215 742.333007812 224 750 238 750 c 0
 249.333007812 750 256.333007812 741.666992188 259 725 c 2
 394 -226 l 1
 390.666992188 -242 381.666992188 -250 367 -250 c 0
EndSplineSet
EndChar

StartChar: bracketright
Encoding: 93 93 62
Width: 289
GlyphClass: 2
Flags: W
HStem: -250 68<-18 73> 682 68<177 253>
LayerCount: 2
Fore
SplineSet
137 -250 m 1
 -32 -250 l 1
 -18 -182 l 1
 73 -182 l 1
 253 682 l 1
 163 682 l 1
 177 750 l 1
 346 750 l 1
 137 -250 l 1
EndSplineSet
EndChar

StartChar: asciicircum
Encoding: 94 94 63
Width: 556
GlyphClass: 2
Flags: W
HStem: 561 184
LayerCount: 2
Fore
SplineSet
665 561 m 1
 423 679 l 1
 126 561 l 1
 118 589 l 1
 436 745 l 1
 687 588 l 1
 665 561 l 1
EndSplineSet
EndChar

StartChar: underscore
Encoding: 95 95 64
Width: 667
GlyphClass: 2
Flags: W
HStem: -164 78<-17 631>
LayerCount: 2
Fore
SplineSet
631 -164 m 1
 -36 -164 l 1
 -17 -86 l 1
 650 -86 l 1
 631 -164 l 1
EndSplineSet
EndChar

StartChar: grave
Encoding: 96 96 65
Width: 500
GlyphClass: 2
Flags: W
HStem: 527 167
VStem: 254 181
LayerCount: 2
Fore
SplineSet
368 527 m 1
 254 694 l 1
 338 694 l 1
 435 527 l 1
 368 527 l 1
EndSplineSet
EndChar

StartChar: a
Encoding: 97 97 66
Width: 481
GlyphClass: 2
Flags: W
HStem: -11 68<166.206 293.625> 0 21G<327.999 414.18> 190 59<221.957 364.999> 395 66<226.24 373.936>
VStem: 389.998 85.001<250.964 380.225>
LayerCount: 2
Fore
SplineSet
341 461 m 0xb8
 419.25 461 474.999023438 408.326171875 474.999023438 329.999023438 c 0
 474.999023438 316.666015625 473.33203125 302.333007812 469.999023438 287 c 2
 409.999023438 0 l 1
 327.999023438 0 l 1x78
 334.999023438 31 l 1
 288.999023438 3 233.33203125 -11 167.999023438 -11 c 0
 125.33203125 -11 97.9990234375 5 85.9990234375 37 c 0
 75.33203125 66.3330078125 72.6650390625 92.666015625 77.998046875 115.999023438 c 0
 89.998046875 164.666015625 131.998046875 200.333007812 203.998046875 223 c 0
 253.331054688 239 311.331054688 247.666992188 377.998046875 249 c 1
 385.998046875 287.666992188 389.998046875 312.666992188 389.998046875 324 c 0
 389.998046875 366.8203125 366.224609375 395 327.998046875 395 c 0
 276.665039062 395 222.33203125 377.333007812 164.999023438 342 c 1
 173.999023438 417 l 1
 230.666015625 446.333007812 286.333007812 461 341 461 c 0xb8
155.999023438 115.999023438 m 0
 147.931640625 75.66015625 189.8515625 57 230.999023438 57 c 0xb8
 301.666015625 57 342.666015625 82.6669921875 353.999023438 134 c 2
 364.999023438 190 l 1
 234.999023438 183.333007812 165.33203125 158.666015625 155.999023438 115.999023438 c 0
EndSplineSet
EndChar

StartChar: b
Encoding: 98 98 67
Width: 517
GlyphClass: 2
Flags: W
HStem: -11 68<212.45 346.899> 0 21G<81 170.39> 389 69<308.413 436.429> 674 20G<223.764 310>
VStem: 449 86<177.27 353.829>
LayerCount: 2
Fore
SplineSet
292 -11 m 0xb8
 246 -11 207 6.3330078125 175 41 c 1
 166 0 l 1
 81 0 l 1x78
 228 694 l 1
 310 694 l 1
 248 404 l 1
 302 440 357 458 413 458 c 0
 459.666992188 458 494 434.666992188 516 388 c 0
 528.666992188 360 535 329 535 295 c 0
 535 272.333007812 532.333007812 248.333007812 527 223 c 0
 503.897460938 114.78125 412.223632812 -11 292 -11 c 0xb8
431 349 m 0
 410.333007812 375.666992188 383.333984375 389 350.000976562 389 c 0
 307.333984375 389 269.333984375 370.333007812 236.000976562 333 c 1
 190.000976562 117 l 1
 203.333984375 77 229.666992188 57 269 57 c 0xb8
 363.807617188 57 424.731445312 139.747070312 443 225 c 0
 447 246.333007812 449 265.333007812 449 282 c 0
 449 310.666992188 443 333 431 349 c 0
EndSplineSet
EndChar

StartChar: c
Encoding: 99 99 68
Width: 444
GlyphClass: 2
Flags: W
HStem: -10.999 71<199.429 362.606> 390.001 71<260.961 432.847>
VStem: 77.001 84.999<98.6373 272.557>
LayerCount: 2
Fore
SplineSet
162 175 m 0
 162 107.911132812 198.471679688 60.0009765625 264 60.0009765625 c 0
 320.666992188 60.0009765625 377.333984375 79.0009765625 434.000976562 117.000976562 c 1
 425.000976562 41.0009765625 l 1
 367.66796875 6.333984375 309.66796875 -10.9990234375 251.000976562 -10.9990234375 c 0
 189.000976562 -10.9990234375 142.333984375 12.333984375 111.000976562 59.0009765625 c 0
 88.333984375 91.0009765625 77.0009765625 127.66796875 77.0009765625 169.000976562 c 0
 77.0009765625 186.333984375 79.0009765625 204.333984375 83.0009765625 223.000976562 c 0
 97.0009765625 287.66796875 128.66796875 343.000976562 178.000976562 389.000976562 c 0
 230.000976562 437.000976562 288.333984375 461.000976562 353.000976562 461.000976562 c 0
 404.333984375 461.000976562 453.333984375 446.000976562 500.000976562 416.000976562 c 1
 471.000976562 345.000976562 l 1
 431.66796875 375.000976562 388.000976562 390.000976562 340.000976562 390.000976562 c 0
 244.416992188 390.000976562 185.12109375 307.7734375 167 222.000976562 c 0
 163.666992188 205.333984375 162 189.666992188 162 175 c 0
EndSplineSet
EndChar

StartChar: d
Encoding: 100 100 69
Width: 517
GlyphClass: 2
Flags: W
HStem: -11.001 68.001<198.5 303.7> -0.000976562 21G<355.001 436> 389 69<263.123 399.959> 674 20G<496.749 583>
VStem: 75 86.001<94.6122 269.093>
LayerCount: 2
Fore
SplineSet
436 0 m 1xb8
 351.000976562 -0.0009765625 l 1x78
 360.000976562 44.9990234375 l 1
 310.66796875 7.666015625 260.000976562 -11.0009765625 208.000976562 -11.0009765625 c 0
 159.333984375 -11.0009765625 122.666992188 11.9990234375 98 57.9990234375 c 0
 82.6669921875 86.666015625 75 119.333007812 75 156 c 0
 75 177.333007812 77.6669921875 200 83 224 c 0
 105.6796875 329.044921875 194.461914062 458 310 458 c 0
 360.666992188 458 404 441 440 407 c 1
 501 694 l 1
 583 694 l 1
 436 0 l 1xb8
161.000976562 165.999023438 m 0
 161.000976562 100.12109375 202.749023438 57 261 57 c 0xb8
 285 57 309.833007812 65.5 335.5 82.5 c 0
 361.166992188 99.5 376.333984375 119.333007812 381.000976562 142 c 2
 422.000976562 339 l 1
 406.000976562 372.333007812 379.66796875 389 343.000976562 389 c 0
 246.864257812 389 185.421875 306.736328125 167.000976562 222 c 0
 163.000976562 201.333007812 161.000976562 182.666015625 161.000976562 165.999023438 c 0
EndSplineSet
EndChar

StartChar: e
Encoding: 101 101 70
Width: 444
GlyphClass: 2
Flags: W
HStem: -11 68<199.235 358.142> 215 62<176.002 409.153> 393 68<254.856 380.418>
VStem: 77.001 77.999<103.322 215> 409.002 61.998<277.2 362.573>
LayerCount: 2
Fore
SplineSet
155 180 m 0
 155 110.321289062 195.587890625 57 263.001953125 57 c 0
 316.334960938 57 371.66796875 76.6669921875 429.000976562 116 c 1
 420.000976562 42 l 1
 363.333984375 6.6669921875 306.333984375 -11 249.000976562 -11 c 0
 189.000976562 -11 143.000976562 12.3330078125 111.000976562 59 c 0
 88.333984375 91 77.0009765625 128 77.0009765625 170 c 0
 77.0009765625 188 79.0009765625 207 83.0009765625 227 c 0
 95.66796875 287.666992188 124.66796875 341 170.000976562 387 c 0
 219.333984375 436.333007812 273.666992188 461 333 461 c 0
 425 461 471 409.333007812 471 306 c 0
 471 279.333007812 467.333007812 249 460 215 c 1
 158 215 l 1
 156 203 155 191.333007812 155 180 c 0
409.001953125 277 m 1
 413.068359375 344.7734375 384.26171875 393 320.000976562 393 c 0
 254.119140625 393 199.62109375 328.737304688 176.001953125 277 c 1
 409.001953125 277 l 1
EndSplineSet
EndChar

StartChar: f
Encoding: 102 102 71
Width: 306
GlyphClass: 2
Flags: W
HStem: 0 21G<99.999 186.188> 382 65<120.999 179.999 271.999 369.999> 637 68<329.709 482.472>
LayerCount: 2
Fore
SplineSet
479 618 m 1
 453.666992188 630.666992188 427.666992188 637 401 637 c 0
 344.989257812 637 307.498046875 611.328125 296.999023438 560 c 2
 271.999023438 447 l 1
 382.999023438 447 l 1
 369.999023438 382 l 1
 261.999023438 382 l 1
 181.999023438 0 l 1
 99.9990234375 0 l 1
 179.999023438 382 l 1
 107.999023438 382 l 1
 120.999023438 447 l 1
 193.999023438 447 l 1
 207.999023438 511.666992188 216.999023438 549.666992188 220.999023438 561 c 0
 247.573242188 636.736328125 322.557617188 705 415 705 c 0
 437 705 464 701 496 693 c 1
 479 618 l 1
EndSplineSet
EndChar

StartChar: g
Encoding: 103 103 72
Width: 500
GlyphClass: 2
Flags: W
HStem: -206.002 64.001<119.972 327.836> -5.00098 78.999<151.731 366.133> 124.998 64<209.946 321.667> 390.998 64.002<244.694 357.518 437.748 566.662>
VStem: 11.001 78.999<-114.955 -29.6468> 119.001 75.999<204.395 337.121>
LayerCount: 2
Fore
SplineSet
436 384 m 1
 449.333007812 356 452.333007812 324.331054688 445 288.998046875 c 0
 426.831054688 206.630859375 345.967773438 124.998046875 249 124.998046875 c 0
 215.666992188 124.998046875 188 133.998046875 166 151.998046875 c 1
 154.666992188 139.331054688 149 124.331054688 149 106.998046875 c 0
 149 84.998046875 163.666992188 73.998046875 193 73.998046875 c 2
 280 73.998046875 l 2
 314.666992188 73.998046875 352 68.3310546875 392 56.998046875 c 0
 450 40.3310546875 472 -1.3359375 458 -68.0029296875 c 0
 448.666992188 -113.3359375 414.666992188 -148.668945312 356 -174.001953125 c 0
 308.666992188 -195.334960938 258.666992188 -206.001953125 206 -206.001953125 c 0
 144.666992188 -206.001953125 95.333984375 -192.668945312 58.0009765625 -166.001953125 c 0
 26.66796875 -144.001953125 11.0009765625 -118.001953125 11.0009765625 -88.001953125 c 0
 11.0009765625 -37.3349609375 39.333984375 3.6650390625 96.0009765625 34.998046875 c 1
 84.66796875 55.6650390625 82.0009765625 80.33203125 88.0009765625 108.999023438 c 0
 94.0009765625 138.33203125 109.000976562 166.33203125 133.000976562 192.999023438 c 1
 123.66796875 211.666015625 119.000976562 232.333007812 119.000976562 255 c 0
 119.000976562 314.333007812 144.000976562 365 194.000976562 407 c 0
 232.66796875 439 274.000976562 455 318.000976562 455 c 0
 354.66796875 455 383.66796875 444.666992188 405.000976562 424 c 1
 458.333984375 444.666992188 513.666992188 455 571 455 c 1
 568 385 l 1
 539.333007812 387 519 388 507 388 c 0
 493.200195312 388 449.372070312 384 436 384 c 1
195 254.998046875 m 0
 195 212.905273438 224.497070312 188.998046875 260.999023438 188.998046875 c 0
 320.250976562 188.998046875 355.268554688 235.830078125 368 290.998046875 c 0
 380.732421875 350.4140625 359.564453125 390.998046875 306 390.998046875 c 0
 237.001953125 390.998046875 195 324.860351562 195 254.998046875 c 0
335.999023438 -14.001953125 m 0
 309.33203125 -8.001953125 285.666992188 -5.0009765625 265 -5.0009765625 c 2
 177 -5.0009765625 l 2
 144.333007812 -5.0009765625 121.333007812 -14.66796875 108 -34.0009765625 c 0
 97.3330078125 -50.0009765625 91.3330078125 -61.333984375 90 -68.0009765625 c 2
 90 -69.0009765625 l 1
 79.2939453125 -121.190429688 160.870117188 -142.000976562 218.999023438 -142.000976562 c 0
 250.999023438 -142.000976562 282.33203125 -136.66796875 312.999023438 -126.000976562 c 0
 352.999023438 -112.66796875 375.666015625 -93.66796875 380.999023438 -69.0009765625 c 0
 386.999023438 -39.66796875 371.999023438 -21.3349609375 335.999023438 -14.001953125 c 0
EndSplineSet
EndChar

StartChar: h
Encoding: 104 104 73
Width: 517
GlyphClass: 2
Flags: W
HStem: 0 21G<80.001 169.164 351 440.161> 390 68<305.229 403.496> 674 20G<222.765 309.001>
VStem: 417 87<223.531 375.325>
LayerCount: 2
Fore
SplineSet
436 0 m 1
 351 0 l 1
 413 292 l 2
 415.666992188 304.666992188 417 316 417 326 c 0
 417 368.666992188 392.333007812 390 343 390 c 0
 271.510742188 390 230.170898438 312.307617188 216.000976562 245 c 2
 165.000976562 0 l 1
 80.0009765625 0 l 1
 227.000976562 694 l 1
 309.000976562 694 l 1
 245.000976562 394 l 1
 290.333984375 436.666992188 339.666992188 458 393 458 c 0
 467 458 504 423 504 353 c 0
 504 336.333007812 502 318 498 298 c 2
 436 0 l 1
EndSplineSet
EndChar

StartChar: i
Encoding: 105 105 74
Width: 239
GlyphClass: 2
Flags: W
HStem: 0 21G<80 164.161> 427 20G<167.884 253> 559 96<210 284>
VStem: 80 224
LayerCount: 2
Fore
SplineSet
284 559 m 1
 190 559 l 1
 210 655 l 1
 304 655 l 1
 284 559 l 1
160 0 m 1
 80 0 l 1
 172 447 l 1
 253 447 l 1
 160 0 l 1
EndSplineSet
EndChar

StartChar: j
Encoding: 106 106 75
Width: 267
GlyphClass: 2
Flags: W
HStem: -205 71<-61.2881 65.1963> 426 20G<193.812 280> 559 96<229 304>
VStem: 198 82<412.783 446>
LayerCount: 2
Fore
SplineSet
304 559 m 1
 208 559 l 1
 229 655 l 1
 324 655 l 1
 304 559 l 1
174 -57 m 2
 158.2265625 -129.799804688 99.1064453125 -205 17 -205 c 0
 -23.6669921875 -205 -62 -193 -98 -169 c 1
 -60 -100 l 1
 -42 -122.666992188 -20 -134 6 -134 c 0
 53.2666015625 -134 81.1455078125 -109.34375 91 -65 c 2
 198 446 l 1
 280 446 l 1
 174 -57 l 2
EndSplineSet
EndChar

StartChar: k
Encoding: 107 107 76
Width: 489
GlyphClass: 2
Flags: W
HStem: 0 21G<83 163.255 375.411 475> 427 20G<425.382 550> 674 20G<225.764 309>
LayerCount: 2
Fore
SplineSet
343 272 m 1
 475 0 l 1
 385 0 l 1
 280 219 l 1
 189 141 l 1
 159 0 l 1
 83 0 l 1
 230 694 l 1
 309 694 l 1
 214 248 l 1
 449 447 l 1
 550 447 l 1
 343 272 l 1
EndSplineSet
EndChar

StartChar: l
Encoding: 108 108 77
Width: 239
GlyphClass: 2
Flags: W
HStem: 0 21G<80 164.179> 674 20G<220.821 305>
VStem: 80 225
LayerCount: 2
Fore
SplineSet
160 0 m 1
 80 0 l 1
 225 694 l 1
 305 694 l 1
 160 0 l 1
EndSplineSet
EndChar

StartChar: m
Encoding: 109 109 78
Width: 794
GlyphClass: 2
Flags: W
HStem: 0 21G<628.001 717.257> 387.001 68<305.91 408.981 579.426 683.921>
LayerCount: 2
Fore
SplineSet
713 0 m 1
 628.000976562 0.0009765625 l 1
 690.000976562 291.000976562 l 2
 695.333984375 314.333984375 695.333984375 335.000976562 690.000976562 353.000976562 c 0
 684.000976562 375.66796875 660.333984375 387.000976562 619.000976562 387.000976562 c 0
 548.447265625 387.000976562 505.153320312 310.045898438 491.000976562 244.000976562 c 2
 439.000976562 0.0009765625 l 1
 354.000976562 0.0009765625 l 1
 416.000976562 291.000976562 l 2
 421.333984375 314.333984375 421.333984375 335.000976562 416.000976562 353.000976562 c 0
 410.000976562 375.66796875 386.333984375 387.000976562 345.000976562 387.000976562 c 0
 274.447265625 387.000976562 231.153320312 310.045898438 217.000976562 244.000976562 c 2
 165.000976562 0.0009765625 l 1
 80.0009765625 0.0009765625 l 1
 177.000976562 450.000976562 l 1
 256.000976562 450.000976562 l 1
 242.000976562 388.000976562 l 1
 289.333984375 432.66796875 340.666992188 455.000976562 396 455.000976562 c 0
 460.666992188 455.000976562 498 429.66796875 508 379.000976562 c 1
 556 429.66796875 610 455.000976562 670 455.000976562 c 0
 745.333007812 455.000976562 783 420.66796875 783 352.000976562 c 0
 783 335.333984375 780.666992188 316.666992188 776 296 c 2
 713 0 l 1
EndSplineSet
EndChar

StartChar: n
Encoding: 110 110 79
Width: 517
GlyphClass: 2
Flags: W
HStem: 0 21G<80 169.18 350.999 440.188> 387 63<298.2 403.495>
VStem: 416.999 87<265.529 372.506>
LayerCount: 2
Fore
SplineSet
242 390 m 1
 269.400390625 417.400390625 335.668945312 455 392.999023438 455 c 0
 466.999023438 455 503.999023438 420.333007812 503.999023438 351 c 0
 503.999023438 334.333007812 501.999023438 316 497.999023438 296 c 2
 435.999023438 0 l 1
 350.999023438 0 l 1
 412.999023438 291 l 2
 415.666015625 303 416.999023438 314 416.999023438 324 c 0
 416.999023438 366 392.33203125 387 342.999023438 387 c 0
 271.493164062 387 230.182617188 311.369140625 216 244 c 2
 165 0 l 1
 80 0 l 1
 176 450 l 1
 255 450 l 1
 242 390 l 1
EndSplineSet
EndChar

StartChar: o
Encoding: 111 111 80
Width: 500
GlyphClass: 2
Flags: W
HStem: -11 70.999<195.604 337.284> 392.999 68.001<256.212 399.993>
VStem: 70.998 86<100.379 271.07> 439.998 82.001<179.351 353.065>
LayerCount: 2
Fore
SplineSet
248 -11 m 0
 188 -11 140.998046875 11.3330078125 106.998046875 56 c 0
 82.998046875 87.3330078125 70.998046875 124.333007812 70.998046875 167 c 0
 70.998046875 183.666992188 72.998046875 201.666992188 76.998046875 221 c 0
 90.3310546875 285 122.331054688 340.333007812 172.998046875 387 c 0
 225.665039062 436.333007812 283.665039062 461 346.998046875 461 c 0
 407.665039062 461 454.33203125 437.333007812 486.999023438 390 c 0
 510.33203125 356.666992188 521.999023438 318.666992188 521.999023438 276 c 0
 521.999023438 258 519.999023438 239 515.999023438 219 c 0
 502.666015625 156.333007812 470.333007812 102.333007812 419 57 c 0
 367.666992188 11.6669921875 310.666992188 -11 248 -11 c 0
439.998046875 283 m 0
 439.998046875 350.755859375 394.826171875 392.999023438 332.998046875 392.999023438 c 0
 240.895507812 392.999023438 181.21484375 311.581054688 162.998046875 228.999023438 c 0
 158.998046875 208.999023438 156.998046875 190.999023438 156.998046875 174.999023438 c 0
 156.998046875 107.935546875 196.290039062 59.9990234375 260.998046875 59.9990234375 c 0
 312.998046875 59.9990234375 356.665039062 84.666015625 391.998046875 133.999023438 c 0
 423.998046875 178.666015625 439.998046875 228.333007812 439.998046875 283 c 0
EndSplineSet
EndChar

StartChar: p
Encoding: 112 112 81
Width: 517
GlyphClass: 2
Flags: W
HStem: -13 67.999<211.456 342.162> 383.999 71<308.189 439.667>
VStem: 447 88<175.085 341.709>
LayerCount: 2
Fore
SplineSet
293 -13 m 0
 245.666992188 -13 206 4.33203125 174 38.9990234375 c 1
 125 -194.000976562 l 1
 40 -194.000976562 l 1
 175 443.999023438 l 1
 256 443.999023438 l 1
 248 400.999023438 l 1
 300.666992188 436.999023438 356.666992188 454.999023438 416 454.999023438 c 0
 463.333007812 454.999023438 497 431.33203125 517 383.999023438 c 0
 529 356.666015625 535 326.333007812 535 293 c 0
 535 270.333007812 532.333007812 246.333007812 527 221 c 0
 504.014648438 113.333984375 412.28515625 -13 293 -13 c 0
447 265.999023438 m 0
 447 331.625976562 408.533203125 383.999023438 347.999023438 383.999023438 c 0
 305.33203125 383.999023438 267.999023438 365.666015625 235.999023438 328.999023438 c 1
 192.999023438 130.999023438 l 2
 190.33203125 118.999023438 191.33203125 108.33203125 195.999023438 98.9990234375 c 0
 210.666015625 69.666015625 234.333007812 54.9990234375 267 54.9990234375 c 0
 317 54.9990234375 360 78.33203125 396 124.999023438 c 0
 430 168.33203125 447 215.33203125 447 265.999023438 c 0
EndSplineSet
EndChar

StartChar: q
Encoding: 113 113 82
Width: 517
GlyphClass: 2
Flags: W
HStem: -12.999 68<202.193 303.103> 384.001 70.999<265.899 392.476>
VStem: 76 86.002<99.0273 266.93>
LayerCount: 2
Fore
SplineSet
319 455 m 0
 370.37109375 455 417.286132812 424.153320312 437.000976562 394.000976562 c 1
 450.000976562 455.000976562 l 1
 532.000976562 455.000976562 l 1
 395.000976562 -193.999023438 l 1
 310.000976562 -193.999023438 l 1
 360.000976562 42.0009765625 l 1
 309.333984375 5.333984375 257.666992188 -12.9990234375 205 -12.9990234375 c 0
 157 -12.9990234375 121.333007812 10.0009765625 98 56.0009765625 c 0
 83.3330078125 85.333984375 76 118.000976562 76 154.000976562 c 0
 76 175.333984375 78.3330078125 197.666992188 83 221 c 0
 95.6669921875 280.333007812 122.666992188 333 164 379 c 0
 210 429.666992188 261.666992188 455 319 455 c 0
341.001953125 384.000976562 m 0
 292.334960938 384.000976562 250.001953125 361.000976562 214.001953125 315.000976562 c 0
 179.334960938 271.66796875 162.001953125 225.000976562 162.001953125 175.000976562 c 0
 162.001953125 148.333984375 168.334960938 124.333984375 181.001953125 103.000976562 c 0
 199.001953125 71.0009765625 226.001953125 55.0009765625 262.001953125 55.0009765625 c 0
 300.001953125 55.0009765625 335.334960938 73.333984375 368.001953125 110.000976562 c 0
 376.001953125 118.66796875 381.334960938 129.000976562 384.001953125 141.000976562 c 2
 413.001953125 279.000976562 l 2
 425.423828125 334.211914062 393.399414062 384.000976562 341.001953125 384.000976562 c 0
EndSplineSet
EndChar

StartChar: r
Encoding: 114 114 83
Width: 342
GlyphClass: 2
Flags: W
HStem: 0 21G<81.001 166.226> 381 69<319.568 409>
LayerCount: 2
Fore
SplineSet
409 381 m 1
 304.358398438 378.209960938 225.801757812 304.499023438 207.000976562 213 c 2
 162.000976562 0 l 1
 81.0009765625 0 l 1
 177.000976562 450 l 1
 253.000976562 450 l 1
 235.000976562 370 l 1
 288.333984375 426 351.666992188 454.333007812 425 455 c 1
 409 381 l 1
EndSplineSet
EndChar

StartChar: s
Encoding: 115 115 84
Width: 383
GlyphClass: 2
Flags: W
HStem: -11 70<110.005 283.252> 394.998 66<201.425 376.112>
VStem: 99.001 82<292.475 373.912>
LayerCount: 2
Fore
SplineSet
207 59 m 0
 264.104492188 59 311.000976562 83.6923828125 311.000976562 136.998046875 c 0
 311.000976562 189.188476562 217.469726562 189.072265625 183.000976562 201.998046875 c 0
 136.03125 216.088867188 99.0009765625 253.83984375 99.0009765625 303.998046875 c 0
 99.0009765625 352.600585938 129.911132812 402.166992188 160.000976562 422.998046875 c 0
 203.265625 449.918945312 243.251953125 460.998046875 296.000976562 460.998046875 c 0
 344.66796875 460.998046875 391.000976562 449.665039062 435.000976562 426.998046875 c 1
 406.000976562 355.998046875 l 1
 368.000976562 381.998046875 323.66796875 394.998046875 273.000976562 394.998046875 c 0
 219.66796875 394.998046875 189.000976562 375.665039062 181.000976562 336.998046875 c 0
 176.333984375 316.331054688 182.333984375 301.831054688 199.000976562 293.498046875 c 0
 215.66796875 285.165039062 236.66796875 278.33203125 262.000976562 272.999023438 c 0
 310.66796875 263.666015625 346.000976562 246.999023438 368.000976562 222.999023438 c 1
 387.022460938 194.013671875 395.494140625 166.466796875 388.000976562 129 c 0
 370.47265625 41.3564453125 299.72265625 -11 195.000976562 -11 c 0
 142.333984375 -11 88.6669921875 4 34 34 c 1
 63 109 l 1
 107 75.6669921875 155 59 207 59 c 0
EndSplineSet
EndChar

StartChar: t
Encoding: 116 116 85
Width: 361
GlyphClass: 2
Flags: W
HStem: -11 71<164.333 299.285> 381 65<113 182 273 398>
VStem: 121 83.999<61.7062 194.516>
LayerCount: 2
Fore
SplineSet
398 381 m 1
 259.999023438 381 l 1
 208.999023438 137 l 2
 206.33203125 123 204.999023438 111 204.999023438 101 c 0
 204.999023438 73.6669921875 215.666015625 60 236.999023438 60 c 0
 268.999023438 60 301.666015625 72 334.999023438 96 c 1
 339.999023438 28 l 1
 284.666015625 2 233.333007812 -11 186 -11 c 0
 142.666992188 -11 121 15 121 67 c 0
 121 83 123 101.333007812 127 122 c 2
 182 381 l 1
 100 381 l 1
 113 446 l 1
 198 446 l 1
 225 571 l 1
 300 571 l 1
 273 446 l 1
 411 446 l 1
 398 381 l 1
EndSplineSet
EndChar

StartChar: u
Encoding: 117 117 86
Width: 517
GlyphClass: 2
Flags: W
HStem: -11 62<150.667 303.758> 0 21G<354.001 440.234> 424 20G<169.783 259 440.833 530>
LayerCount: 2
Fore
SplineSet
436 0 m 1x60
 354.000976562 0 l 1x60
 363.000976562 42 l 1
 311.66796875 6.6669921875 253.000976562 -11 187.000976562 -11 c 0
 114.333984375 -11 86.6669921875 30 104 112 c 2
 174 444 l 1
 259 444 l 1
 189 114 l 2
 178.318359375 60.591796875 192.111328125 51 247 51 c 0xa0
 319.096679688 51 371.3203125 95.064453125 385 156 c 2
 445 444 l 1
 530 444 l 1
 436 0 l 1x60
EndSplineSet
EndChar

StartChar: v
Encoding: 118 118 87
Width: 461
GlyphClass: 2
Flags: W
HStem: 0 21G<181.486 288.982> 424 20G<107 195.256 448.155 543>
LayerCount: 2
Fore
SplineSet
247 73 m 1
 261 103.666992188 291.333007812 158.666992188 338 238 c 2
 460 444 l 1
 543 444 l 1
 277 0 l 1
 185 0 l 1
 107 444 l 1
 192 444 l 1
 234 186 l 2
 242 134 246.333007812 96.3330078125 247 73 c 1
EndSplineSet
EndChar

StartChar: w
Encoding: 119 119 88
Width: 683
GlyphClass: 2
Flags: W
HStem: 0 21G<149.063 245.392> 424.001 20G<108 192.839 384.626 471.878 673.62 765.001>
VStem: 415.001 83.999<111.923 327.516>
LayerCount: 2
Fore
SplineSet
499 77 m 1
 515.666992188 115.666992188 541.000976562 168.000976562 575.000976562 234.000976562 c 2
 684.000976562 444.000976562 l 1
 765.000976562 444.000976562 l 1
 532.000976562 0.0009765625 l 1
 439.000976562 0.0009765625 l 1
 419.000976562 247.000976562 l 2
 415.000976562 294.333984375 413.66796875 331.666992188 415.000976562 359 c 1
 402.333984375 327.666992188 377.666992188 276 341 204 c 2
 235 0 l 1
 151 0 l 1
 108 444 l 1
 191 444 l 1
 207 270 l 2
 214.333007812 190 217.333007812 127.666992188 216 83 c 1
 232 123.666992188 259.333007812 181.666992188 298 257 c 2
 395 444 l 1
 470 444 l 1
 490 231 l 2
 496.666992188 162.333007812 499.666992188 111 499 77 c 1
EndSplineSet
EndChar

StartChar: x
Encoding: 120 120 89
Width: 461
GlyphClass: 2
Flags: W
HStem: 0 21G<-6 105.78 361.242 465> 424 20G<95 198.5 430.375 543>
LayerCount: 2
Fore
SplineSet
314 228 m 1
 465 0 l 1
 373 0 l 1
 266 182 l 1
 86 0 l 1
 -6 0 l 1
 238 229 l 1
 95 444 l 1
 186 444 l 1
 286 284 l 1
 451 444 l 1
 543 444 l 1
 314 228 l 1
EndSplineSet
EndChar

StartChar: y
Encoding: 121 121 90
Width: 461
GlyphClass: 2
Flags: W
HStem: -205.001 64<8.4208 124.326>
LayerCount: 2
Fore
SplineSet
255 82 m 1
 279 140.666992188 347.333984375 261.33203125 460.000976562 443.999023438 c 1
 543.000976562 443.999023438 l 1
 213.000976562 -91.0009765625 l 2
 166.333984375 -167.000976562 120.000976562 -205.000976562 74.0009765625 -205.000976562 c 0
 50.0009765625 -205.000976562 25.66796875 -202.000976562 1.0009765625 -196.000976562 c 1
 10.0009765625 -123.000976562 l 1
 36.0009765625 -135.000976562 61.66796875 -141.000976562 87.0009765625 -141.000976562 c 0
 112.700195312 -141.000976562 138.322265625 -106.130859375 151 -85.0009765625 c 2
 205 1.9990234375 l 1
 105 443.999023438 l 1
 191 443.999023438 l 1
 220 316.999023438 l 2
 243.333007812 211.666015625 255 133.333007812 255 82 c 1
EndSplineSet
EndChar

StartChar: z
Encoding: 122 122 91
Width: 435
GlyphClass: 2
Flags: W
HStem: 0 69<158 403> 378 66<135 366>
LayerCount: 2
Fore
SplineSet
486 400 m 1
 158 68 l 1
 250 68 l 2
 258 68.6669921875 264 69 268 69 c 2
 417 69 l 1
 403 0 l 1
 27 0 l 1
 37 46 l 1
 366 379 l 1
 281 379 l 2
 273 378.333007812 267 378 263 378 c 2
 121 378 l 1
 135 444 l 1
 495 444 l 1
 486 400 l 1
EndSplineSet
EndChar

StartChar: braceleft
Encoding: 123 123 92
Width: 500
GlyphClass: 2
Flags: W
HStem: -250.001 30<302.419 378.933> 236 29<125.141 192.064> 720 30<500.148 583.904>
VStem: 188.001 74<-191.911 -19.8291>
LayerCount: 2
Fore
SplineSet
570 720 m 0
 517.643554688 716.727539062 484.39453125 702.741210938 453.000976562 675.998046875 c 0
 438.333984375 663.331054688 427.333984375 645.331054688 420.000976562 621.998046875 c 0
 418.66796875 616.665039062 414.000976562 595.998046875 406.000976562 559.998046875 c 2
 368.000976562 380.998046875 l 2
 363.333984375 359.665039062 354.000976562 338.33203125 340.000976562 316.999023438 c 0
 321.333984375 288.33203125 286.000976562 265.999023438 234.000976562 249.999023438 c 1
 290.000976562 229.999023438 317.66796875 195.999023438 317.000976562 147.999023438 c 0
 317.000976562 139.33203125 311.333984375 108.999023438 300.000976562 56.9990234375 c 2
 268.000976562 -92.0009765625 l 2
 263.333984375 -115.333984375 261.333984375 -131.000976562 262.000976562 -139.000976562 c 0
 264.000976562 -189.66796875 297.66796875 -216.66796875 363.000976562 -220.000976562 c 0
 375.66796875 -222.000976562 381.000976562 -227.333984375 379.000976562 -236.000976562 c 0
 377.66796875 -245.333984375 369.334960938 -250.000976562 354.001953125 -250.000976562 c 0
 297.334960938 -250.000976562 253.66796875 -237.000976562 223.000976562 -211.000976562 c 0
 199.66796875 -192.333984375 188.000976562 -168.666992188 188.000976562 -140 c 0
 188.000976562 -128 191.000976562 -108 197.000976562 -80 c 2
 238.000976562 117 l 2
 247.623046875 158.6953125 239.567382812 193.395507812 213.000976562 210 c 0
 189.36328125 225.990234375 163.173828125 236 136.000976562 236 c 0
 126.000976562 236 122.333984375 239.333007812 125.000976562 246 c 0
 125.66796875 246.666992188 125.66796875 248 125.000976562 250 c 0
 126.333984375 259.333007812 132.666992188 264.333007812 144 265 c 0
 185.333007812 267 222 281.666992188 254 309 c 0
 270.666992188 322.333007812 283 343 291 371 c 0
 291.666992188 373 297 397 307 443 c 2
 345 625 l 2
 360.478515625 699.578125 469.162109375 750 562 750 c 0
 577.33984375 750 585.85546875 746.986328125 584 734 c 0
 582 726.666992188 577.333007812 722 570 720 c 0
EndSplineSet
EndChar

StartChar: bar
Encoding: 124 124 93
Width: 278
GlyphClass: 2
Flags: W
VStem: 73 46<-248.664 -180.24> 265 46<680.24 748.664>
LayerCount: 2
Fore
SplineSet
119 -214 m 2
 114.333007812 -238 104.333007812 -250 89 -250 c 0
 73 -250 67.6669921875 -237.333007812 73 -212 c 2
 265 714 l 2
 269.666992188 738 279.666992188 750 295 750 c 0
 311 750 316.333007812 737.333007812 311 712 c 2
 119 -214 l 2
EndSplineSet
EndChar

StartChar: braceright
Encoding: 125 125 94
Width: 500
GlyphClass: 2
Flags: W
HStem: -249.998 30<21.095 103.392> 235 29<412.935 479.859> 721.001 29<225.205 300.315>
VStem: 287.999 76<295.375 463.954> 342.999 74<519.829 691.911>
LayerCount: 2
Fore
SplineSet
461 235 m 0xf0
 419.666992188 233 382.998046875 218.334960938 350.998046875 191.001953125 c 0
 334.331054688 177.668945312 321.998046875 157.001953125 313.998046875 129.001953125 c 0
 313.331054688 127.001953125 307.998046875 103.001953125 297.998046875 57.001953125 c 2
 259.998046875 -124.998046875 l 2
 251.331054688 -164.998046875 222.331054688 -196.665039062 172.998046875 -219.998046875 c 0
 131.665039062 -239.998046875 88.33203125 -249.998046875 42.9990234375 -249.998046875 c 0
 28.845703125 -249.998046875 19.3818359375 -246.93359375 20.9990234375 -233.998046875 c 0
 22.9990234375 -226.665039062 27.9990234375 -221.998046875 35.9990234375 -219.998046875 c 0
 87.9462890625 -216.646484375 117.640625 -203.629882812 151.999023438 -174.998046875 c 0
 166.666015625 -163.665039062 177.666015625 -145.998046875 184.999023438 -121.998046875 c 0
 187.666015625 -114.665039062 192.666015625 -93.998046875 199.999023438 -59.998046875 c 2
 236.999023438 119.001953125 l 2
 241.666015625 140.334960938 250.999023438 161.66796875 264.999023438 183.000976562 c 0
 283.666015625 211.66796875 318.999023438 234.000976562 370.999023438 250.000976562 c 1
 314.999023438 270.000976562 287.33203125 304.000976562 287.999023438 352.000976562 c 0xf0
 287.999023438 360.66796875 293.666015625 391.000976562 304.999023438 443.000976562 c 2
 336.999023438 592.000976562 l 2
 341.666015625 615.333984375 343.666015625 631.000976562 342.999023438 639.000976562 c 0
 340.999023438 689.66796875 307.666015625 716.66796875 242.999023438 720.000976562 c 0
 239.666015625 720.66796875 237.666015625 721.000976562 236.999023438 721.000976562 c 0
 226.33203125 721.000976562 222.665039062 724.333984375 225.998046875 731.000976562 c 0
 225.998046875 731.66796875 225.665039062 733.000976562 224.998046875 735.000976562 c 0
 226.998046875 745.000976562 235.665039062 750.000976562 250.998046875 750.000976562 c 0
 307.665039062 750.000976562 351.33203125 737.000976562 381.999023438 711.000976562 c 0
 405.33203125 692.333984375 416.999023438 668.666992188 416.999023438 640 c 0xe8
 416.999023438 628 413.999023438 608 407.999023438 580 c 2
 366.999023438 383 l 2
 364.999023438 373 363.999023438 363 363.999023438 353 c 0
 363.999023438 323 373.33203125 302 391.999023438 290 c 0
 415.63671875 274.009765625 441.826171875 264 468.999023438 264 c 0
 478.999023438 264 482.666015625 260.666992188 479.999023438 254 c 0
 479.33203125 253.333007812 479.33203125 252 479.999023438 250 c 0
 478.666015625 240.666992188 472.333007812 235.666992188 461 235 c 0xf0
EndSplineSet
EndChar

StartChar: asciitilde
Encoding: 126 126 95
Width: 556
GlyphClass: 2
Flags: W
HStem: 192.999 48.001<364.173 500.928> 258.999 48.001<162.695 293.996>
LayerCount: 2
Fore
SplineSet
552 243 m 2
 500.666992188 209.666992188 453.666015625 192.999023438 410.999023438 192.999023438 c 0
 386.33203125 192.999023438 354.499023438 203.999023438 315.499023438 225.999023438 c 0
 276.499023438 247.999023438 245.999023438 258.999023438 223.999023438 258.999023438 c 0
 180.666015625 258.999023438 125.333007812 236.33203125 58 190.999023438 c 1
 44 213.999023438 l 1
 83.1259765625 240.50390625 128.921875 272.092773438 173 290 c 0
 201 301.333007812 226.666992188 307 250 307 c 0
 278.666992188 307 310 296.333007812 344 275 c 0
 365.333007812 261 384.333007812 251.333007812 401 246 c 0
 412.333007812 242.666992188 424.333007812 241 437 241 c 0
 481 241 536.333007812 263.666992188 603 309 c 1
 618 286 l 1
 552 243 l 2
EndSplineSet
EndChar

StartChar: exclamdown
Encoding: 161 161 97
Width: 319
GlyphClass: 3
Flags: W
HStem: 410 90<220 290>
VStem: 76 232
LayerCount: 2
Fore
SplineSet
290 410 m 1
 202 410 l 1
 220 500 l 1
 308 500 l 1
 290 410 l 1
264 327 m 1
 230.704101562 153.295898438 197.328125 -20.328125 164 -194 c 1
 76 -194 l 1
 192 327 l 1
 264 327 l 1
EndSplineSet
Ligature2: "'dlig' Discretionary Ligatures lookup 13 subtable" exclam quoteleft
Ligature2: "'dlig' Discretionary Ligatures lookup 13 subtable" exclam grave
EndChar

StartChar: cent
Encoding: 162 162 98
Width: 444
GlyphClass: 2
Flags: W
HStem: -10 71<291.999 367.187> 390 71<376.999 434.658>
LayerCount: 2
Fore
SplineSet
208 -7 m 1
 132.5234375 9.7724609375 76.998046875 78.3017578125 76.998046875 169.999023438 c 0
 76.998046875 187.33203125 78.998046875 204.999023438 82.998046875 222.999023438 c 0
 105.081054688 332.11328125 198.010742188 435.866210938 304.999023438 457 c 1
 315.999023438 508 l 1
 386.999023438 508 l 1
 376.999023438 461 l 1
 416.33203125 459.666992188 457.33203125 445 499.999023438 417 c 1
 470.999023438 345 l 1
 436.33203125 372.333007812 399.999023438 387.333007812 361.999023438 390 c 1
 291.999023438 61 l 1
 339.999023438 66.3330078125 387.33203125 85 433.999023438 117 c 1
 424.999023438 40 l 1
 375.666015625 10.6669921875 326.333007812 -6 277 -10 c 1
 266 -64 l 1
 195 -64 l 1
 208 -7 l 1
289.998046875 381.999023438 m 1
 226.825195312 360.94140625 183.056640625 294.265625 166.997070312 221.999023438 c 0
 151.942382812 146.724609375 173.1328125 87.1826171875 222.998046875 66.9990234375 c 1
 289.998046875 381.999023438 l 1
EndSplineSet
Substitution2: "'onum' Oldstyle Figures lookup 4 subtable" cent.oldstyle
Substitution2: "'aalt' Access All Alternates lookup 0 subtable" cent.oldstyle
EndChar

StartChar: sterling
Encoding: 163 163 99
Width: 667
GlyphClass: 2
Flags: W
HStem: -21.999 84.999<360.574 513.276> -9.99902 21G<117 145> 17.001 86<242 343.284> 311.001 71<148.001 244.001 334.001 469.001> 609 85.001<396.589 526.342>
VStem: 237.001 86<383.741 532.043> 252.001 85<231.655 311.001> 547 85<99.1544 154 485 518.499> 555.001 87<485.703 580.392>
CounterMasks: 1 98
LayerCount: 2
Fore
SplineSet
632 154 m 1x9b
 615.166015625 70.951171875 548.080078125 -21.9990234375 455 -21.9990234375 c 0x9b
 398.5390625 -21.9990234375 323.259765625 1.50390625 271 14.0009765625 c 0
 251 18.0009765625 227.666992188 19.0009765625 201 17.0009765625 c 0
 174.333007812 15.0009765625 153 6.0009765625 137 -9.9990234375 c 1
 82 45.0009765625 l 1
 192.666992188 151.000976562 249.333984375 239.66796875 252.000976562 311.000976562 c 1x7b
 132.000976562 311.000976562 l 1
 148.000976562 382.000976562 l 1
 244.000976562 382.000976562 l 1
 237.000976562 435.000976562 l 1
 236.333984375 501.000976562 261.000976562 560.66796875 311.000976562 614.000976562 c 0
 361.000976562 667.333984375 419.000976562 694.000976562 485.000976562 694.000976562 c 0
 539.66796875 694.000976562 581.66796875 674.000976562 611.000976562 634.000976562 c 0
 631.66796875 605.333984375 642.000976562 572.666992188 642.000976562 536 c 0
 642.000976562 520 640.000976562 503 636.000976562 485 c 1
 551.000976562 485 l 1
 553.66796875 497 555.000976562 508.333007812 555.000976562 519 c 0
 555.000976562 571.223632812 520.637695312 609 468.000976562 609 c 0
 428.66796875 609 394.500976562 592.833007812 365.500976562 560.5 c 0
 336.500976562 528.166992188 322.333984375 492 323.000976562 452 c 0x7c80
 323.000976562 442.666992188 326.66796875 419.333984375 334.000976562 382.000976562 c 1
 484.000976562 382.000976562 l 1
 469.000976562 311.000976562 l 1
 337.000976562 311.000976562 l 1
 330.333984375 244.333984375 298.666992188 175.000976562 242 103.000976562 c 1x7a
 280 102.333984375 329.333007812 93.6669921875 390 77 c 0
 423.333007812 67.6669921875 450.333007812 63 471 63 c 0
 513.181640625 63 539.831054688 113.377929688 547 154 c 1
 632 154 l 1x9b
EndSplineSet
EndChar

StartChar: currency
Encoding: 164 164 100
Width: 778
GlyphClass: 2
Flags: W
HStem: 53.002 46.999<336.903 491.487> 400.001 47.001<392.576 546.542>
VStem: 240 48.002<149.007 294.477> 595.001 48<199.276 352.635>
LayerCount: 2
Fore
SplineSet
247 467 m 0
 247 479.668945312 259.635742188 492.001953125 272.000976562 492.001953125 c 0
 280.66796875 492.001953125 289.000976562 486.668945312 297.000976562 476.001953125 c 2
 353.000976562 405.001953125 l 1
 395.000976562 433.001953125 438.333984375 447.001953125 483.000976562 447.001953125 c 0
 527.000976562 447.001953125 564.333984375 433.001953125 595.000976562 405.001953125 c 1
 681.000976562 475.001953125 l 2
 693.000976562 485.001953125 703.333984375 490.001953125 712.000976562 490.001953125 c 0
 724.231445312 490.001953125 737.020507812 475.53125 728.000976562 462.001953125 c 0
 724.66796875 456.668945312 718.000976562 450.001953125 708.000976562 442.001953125 c 2
 622.000976562 371.001953125 l 1
 636.000976562 347.001953125 643.000976562 320.668945312 643.000976562 292.001953125 c 0
 643.000976562 278.001953125 641.333984375 263.668945312 638.000976562 249.001953125 c 0
 628.000976562 203.001953125 606.000976562 163.001953125 572.000976562 129.001953125 c 1
 627.000976562 58.001953125 l 2
 633.66796875 49.3349609375 637.000976562 41.3349609375 637.000976562 34.001953125 c 0
 637.000976562 22.158203125 623.818359375 10.001953125 612.000976562 10.001953125 c 0
 603.333984375 10.001953125 595.000976562 15.001953125 587.000976562 25.001953125 c 2
 531.000976562 95.001953125 l 1
 489.000976562 67.001953125 445.66796875 53.001953125 401.000976562 53.001953125 c 0
 356.333984375 53.001953125 318.666992188 67.001953125 288 95.001953125 c 1
 202 25.001953125 l 2
 190 15.001953125 179.666992188 10.001953125 171 10.001953125 c 0
 158.76953125 10.001953125 145.98046875 24.47265625 155 38.001953125 c 0
 158.333007812 43.3349609375 165 50.001953125 175 58.001953125 c 2
 261 130.001953125 l 1
 247 154.001953125 240 180.334960938 240 209.001953125 c 0
 240 268.334960938 264 322.66796875 312 372.000976562 c 1
 257 442.000976562 l 2
 250.333007812 451.333984375 247 459.666992188 247 467 c 0
595.000976562 284.001953125 m 0
 595.000976562 351.637695312 542.53125 400.000976562 475.001953125 400.000976562 c 0
 385.18359375 400.000976562 308.008789062 325.342773438 292.001953125 249.000976562 c 0
 289.334960938 237.66796875 288.001953125 226.66796875 288.001953125 216.000976562 c 0
 288.001953125 148.365234375 341.499023438 100.000976562 409.001953125 100.000976562 c 0
 450.334960938 100.000976562 488.66796875 114.66796875 524.000976562 144.000976562 c 0
 556.66796875 170.66796875 576.66796875 196.334960938 584.000976562 221.001953125 c 0
 591.333984375 245.668945312 595.000976562 266.668945312 595.000976562 284.001953125 c 0
EndSplineSet
EndChar

StartChar: yen
Encoding: 165 165 101
Width: 667
GlyphClass: 2
Flags: W
HStem: 0 21G<287 384.354> 147 71<157 319 427 590> 295 71<188 305 520 620> 674 20G<149 270.412 669.446 816>
CounterMasks: 1 70
LayerCount: 2
Fore
SplineSet
520 366 m 1
 636 366 l 1
 620 295 l 1
 455 295 l 1
 439 276 l 1
 427 218 l 1
 604 218 l 1
 590 147 l 1
 412 147 l 1
 380 0 l 1
 287 0 l 1
 319 147 l 1
 142 147 l 1
 157 218 l 1
 333 218 l 1
 346 278 l 1
 338 295 l 1
 173 295 l 1
 188 366 l 1
 305 366 l 1
 149 694 l 1
 261 694 l 1
 397 405 l 2
 401.666992188 394.333007812 407 381.333007812 413 366 c 1
 428 366 l 1
 521.809570312 478.190429688 620.892578125 585.107421875 718 694 c 1
 816 694 l 1
 520 366 l 1
EndSplineSet
EndChar

StartChar: brokenbar
Encoding: 166 166 102
Width: 278
GlyphClass: 2
Flags: W
VStem: 188 46<308.063 374.727> 265 46<680.273 748.664>
LayerCount: 2
Fore
SplineSet
234 341 m 2
 229.333007812 318.333007812 219.666992188 307 205 307 c 0
 189 307 183.333007812 319 188 343 c 2
 265 714 l 2
 269.666992188 738 279.666992188 750 295 750 c 0
 311 750 316.333007812 737.333007812 311 712 c 2
 234 341 l 2
196.000976562 157 m 2
 119 -214 l 2
 114.333007812 -238 104.333007812 -250 89 -250 c 0
 73 -250 67.6669921875 -237.333007812 73 -212 c 2
 150 159 l 2
 154.666992188 181.666992188 164.333984375 193 179.000976562 193 c 0
 194.53125 193 201.8359375 174.505859375 196.000976562 157 c 2
EndSplineSet
EndChar

StartChar: section
Encoding: 167 167 103
Width: 528
GlyphClass: 2
Flags: W
HStem: -212.002 77<173.655 304.461> 635 77<329.54 460.19>
VStem: 63.001 86<-110.065 -35.002> 94 86<228.969 349.303> 184 86.001<467.101 578.366> 364 86.001<-78.5259 32.8691> 455 86.001<152.242 271.03> 485 86<535 610.251>
LayerCount: 2
Fore
SplineSet
413 712 m 0xdc
 498.373046875 712 571 657.51171875 571 572 c 0
 571 560 569.666992188 547.666992188 567 535 c 1
 482 535 l 1
 484 543.666992188 485 551.666992188 485 559 c 0xdd
 485 605.999023438 446.068359375 635 399 635 c 0
 367.666992188 635 338.333984375 623.166992188 311.000976562 599.5 c 0
 283.66796875 575.833007812 270.000976562 548.666015625 270.000976562 517.999023438 c 0
 270.000976562 484.666015625 294.000976562 455.666015625 342.000976562 430.999023438 c 2
 432.000976562 384.999023438 l 2
 504.66796875 348.33203125 541.000976562 297.665039062 541.000976562 232.998046875 c 0
 541.000976562 222.331054688 539.66796875 211.331054688 537.000976562 199.998046875 c 0
 525.000976562 141.331054688 491.000976562 93.6640625 435.000976562 56.9970703125 c 1
 445.000976562 37.6640625 450.000976562 17.3310546875 450.000976562 -4.001953125 c 0
 450.000976562 -64.001953125 421.333984375 -116.334960938 364.000976562 -161.001953125 c 0
 320.000976562 -195.001953125 272.333984375 -212.001953125 221.000976562 -212.001953125 c 0
 134.787109375 -212.001953125 63.0009765625 -156.388671875 63.0009765625 -72.001953125 c 0
 63.0009765625 -60.001953125 64.333984375 -47.6689453125 67.0009765625 -35.001953125 c 1
 152.000976562 -35.001953125 l 1
 150.000976562 -43.6689453125 149.000976562 -51.6689453125 149.000976562 -59.001953125 c 0xee
 149.000976562 -106.000976562 187.932617188 -135.001953125 235.000976562 -135.001953125 c 0
 266.333984375 -135.001953125 295.666992188 -123.168945312 323 -99.501953125 c 0
 350.333007812 -75.8349609375 364 -48.66796875 364 -18.0009765625 c 0
 364 15.33203125 340 44.33203125 292 68.9990234375 c 2
 202 114.999023438 l 2
 130 151.666015625 94 202.333007812 94 267 c 0
 94 305.666992188 107.333007812 343.666992188 134 381 c 0
 152 405 173.666992188 425.333007812 199 442 c 1
 189 461.333007812 184 481.666015625 184 502.999023438 c 0
 184 563.666015625 212.666992188 616.333007812 270 661 c 0
 314 695 361.666992188 712 413 712 c 0xdc
382 308 m 2
 293 354 l 2
 277 362 260.666992188 372.666992188 244 386 c 1
 201.333007812 361.333007812 180 326.333007812 180 281 c 0
 180 246.333007812 204 216.666015625 252 191.999023438 c 2
 341 145.999023438 l 2
 359 137.33203125 375.333007812 126.33203125 390 112.999023438 c 1
 433.333007812 139.666015625 455 174.999023438 455 218.999023438 c 0xde
 455 253.666015625 430.666992188 283.333007812 382 308 c 2
EndSplineSet
EndChar

StartChar: dieresis
Encoding: 168 168 104
Width: 500
GlyphClass: 2
Flags: W
HStem: 571 80<275 342 417 484>
VStem: 257 245
LayerCount: 2
Fore
SplineSet
484 571 m 1
 398 571 l 1
 417 651 l 1
 502 651 l 1
 484 571 l 1
342 571 m 1
 257 571 l 1
 275 651 l 1
 361 651 l 1
 342 571 l 1
EndSplineSet
EndChar

StartChar: copyright
Encoding: 169 169 105
Width: 694
GlyphClass: 2
Flags: W
HStem: 0 44.999<245.057 474.752> 113.997 47<336.599 493.452> 532.997 48.001<408.68 561.659> 648.998 45.001<366.807 594.93>
VStem: 65 47<178.394 391.801> 229.002 63<209.61 392.042> 730 53<320.319 514.501>
CounterMasks: 2 d0 0e
LayerCount: 2
Fore
SplineSet
348 0 m 0
 252 0 177 33.998046875 123 101.998046875 c 0
 84.3330078125 150.665039062 65 206.998046875 65 270.998046875 c 0
 65 295.665039062 68 321.33203125 74 347.999023438 c 0
 94.6669921875 443.33203125 145.5 524.83203125 226.5 592.499023438 c 0
 307.5 660.166015625 396.666992188 693.999023438 494 693.999023438 c 0
 590.666992188 693.999023438 665.666992188 659.999023438 719 591.999023438 c 0
 761.666992188 537.999023438 783 488.33203125 783 442.999023438 c 0
 783 423.666015625 778 391.333007812 768 346 c 0
 747.333007812 250.666992188 696.5 169.166992188 615.5 101.5 c 0
 534.5 33.8330078125 445.333007812 0 348 0 c 0
680 560.998046875 m 0
 633.333007812 619.665039062 568.333984375 648.998046875 485.000976562 648.998046875 c 0
 400.333984375 648.998046875 322.666992188 619.498046875 252 560.498046875 c 0
 181.333007812 501.498046875 137 429.998046875 119 345.998046875 c 0
 114.333007812 322.665039062 112 300.33203125 112 278.999023438 c 0
 112 223.666015625 128.666992188 174.999023438 162 132.999023438 c 0
 208 74.33203125 272.666992188 44.9990234375 356 44.9990234375 c 0
 440.666992188 44.9990234375 518.5 74.666015625 589.5 133.999023438 c 0
 660.5 193.33203125 705 264.665039062 723 347.998046875 c 0
 727.666992188 370.665039062 730 392.665039062 730 413.998046875 c 0
 730 469.331054688 713.333007812 518.331054688 680 560.998046875 c 0
583.000976562 497.998046875 m 1
 550.333984375 521.331054688 516.668945312 532.997070312 482.001953125 532.997070312 c 0
 387.608398438 532.997070312 317.186523438 431.12890625 298.001953125 345.997070312 c 0
 294.001953125 327.997070312 292.001953125 310.6640625 292.001953125 293.997070312 c 0
 292.001953125 265.997070312 298.001953125 239.997070312 310.001953125 215.997070312 c 0
 328.668945312 179.330078125 359.668945312 160.997070312 403.001953125 160.997070312 c 0
 443.001953125 160.997070312 486.001953125 174.997070312 532.001953125 202.997070312 c 1
 526.001953125 149.997070312 l 1
 482.001953125 125.997070312 438.001953125 113.997070312 394.001953125 113.997070312 c 0
 333.334960938 113.997070312 288.334960938 137.330078125 259.001953125 183.997070312 c 0
 239.001953125 215.330078125 229.001953125 250.997070312 229.001953125 290.997070312 c 0
 229.001953125 308.997070312 231.001953125 327.997070312 235.001953125 347.997070312 c 0
 248.334960938 410.6640625 278.334960938 464.331054688 325.001953125 508.998046875 c 0
 374.334960938 556.998046875 429.66796875 580.998046875 491.000976562 580.998046875 c 0
 531.000976562 580.998046875 569.000976562 572.998046875 605.000976562 556.998046875 c 1
 583.000976562 497.998046875 l 1
EndSplineSet
EndChar

StartChar: ordfeminine
Encoding: 170 170 106
Width: 372
GlyphClass: 2
Flags: W
HStem: 311.001 52<140.936 374.742> 385 50.001<206.974 339.688> 668 48<236.207 385.333>
VStem: 392 73<568.966 660.912>
LayerCount: 2
Fore
SplineSet
348 716 m 0
 411.075195312 716 465 680.23046875 465 620.000976562 c 0
 465 611.333984375 464 602.666992188 462 594 c 2
 419 392 l 1
 350 392 l 1
 354 413 l 1
 316.666992188 394.333007812 271 385 217 385 c 0
 164.486328125 385 125.665039062 418.807617188 138 475 c 0
 152.435546875 543.240234375 284.32421875 566.7421875 385 568.000976562 c 1
 389.666992188 593.333984375 392 609.666992188 392 617 c 0
 392 651 374.333007812 668 339 668 c 0
 295.666992188 668 250.666992188 655.666992188 204 631 c 1
 210 685 l 1
 256 705.666992188 302 716 348 716 c 0
336 311.000976562 m 2
 169.999023438 311.000976562 l 2
 145.33203125 311.000976562 135.33203125 320.000976562 139.999023438 338.000976562 c 0
 143.999023438 354.66796875 157.33203125 363.000976562 179.999023438 363.000976562 c 2
 345.999023438 363.000976562 l 2
 361.709960938 363.000976562 380.23828125 353.958984375 375.999023438 337.000976562 c 0
 372.666015625 319.66796875 359.333007812 311.000976562 336 311.000976562 c 2
203.999023438 474.000976562 m 0
 198.551757812 445.403320312 236.077148438 435.000976562 267.998046875 435.000976562 c 0
 326.665039062 435.000976562 359.665039062 452.333984375 366.998046875 487.000976562 c 2
 375.998046875 525.000976562 l 1
 266.665039062 519.000976562 209.33203125 502.000976562 203.999023438 474.000976562 c 0
EndSplineSet
EndChar

StartChar: guillemotleft
Encoding: 171 171 107
Width: 500
GlyphClass: 2
Flags: W
HStem: 0 21G<210.727 283 373.727 447>
VStem: 216 67<0 26.5517> 379 68<0 26.5517>
LayerCount: 2
Fore
SplineSet
406 218 m 1
 447 0 l 1
 379 0 l 1
 321 220 l 1
 471 439 l 1
 540 439 l 1
 406 218 l 1
242 218 m 1
 283 0 l 1
 216 0 l 1
 158 220 l 1
 308 439 l 1
 377 439 l 1
 242 218 l 1
EndSplineSet
Substitution2: "'cv04' Character Variants 04 in Greek lookup 24-1" guillemotleft.gr
Substitution2: "'cv03' Character Variants 03 in Cyrillic lookup 23-1" guillemotleft.cyr
EndChar

StartChar: logicalnot
Encoding: 172 172 108
Width: 778
GlyphClass: 2
Flags: W
HStem: 324 46<130.192 742.999>
VStem: 705.999 47.001<130.344 184.333>
LayerCount: 2
Fore
SplineSet
753 152 m 2
 750.333007812 137.333007812 741.333007812 130 726 130 c 0
 709.333007812 130 702.666015625 138 705.999023438 154 c 2
 742.999023438 324 l 1
 149.999023438 324 l 2
 137.142578125 324 127.272460938 334.364257812 130 348 c 0
 134 362.666992188 143.666992188 370 159 370 c 2
 776 370 l 2
 792 370 798.333007812 362 795 346 c 2
 753 152 l 2
EndSplineSet
EndChar

StartChar: uni00AD
Encoding: 173 173 109
Width: 333
GlyphClass: 2
Flags: W
HStem: 193 58<64 317>
VStem: 51 279
LayerCount: 2
Fore
SplineSet
317 193 m 1
 51 193 l 1
 64 251 l 1
 330 251 l 1
 317 193 l 1
EndSplineSet
EndChar

StartChar: registered
Encoding: 174 174 110
Width: 694
GlyphClass: 2
Flags: W
HStem: 0 44.999<245.057 474.752> 323.998 47<336.001 419.001> 523.998 43<369.001 529.065> 648.998 45.001<366.807 594.93>
VStem: 65 47<178.394 391.801> 730 53<320.319 514.501>
CounterMasks: 1 f0
LayerCount: 2
Fore
SplineSet
348 0 m 0
 252 0 177 33.998046875 123 101.998046875 c 0
 84.3330078125 150.665039062 65 206.998046875 65 270.998046875 c 0
 65 295.665039062 68 321.33203125 74 347.999023438 c 0
 94.6669921875 443.33203125 145.5 524.83203125 226.5 592.499023438 c 0
 307.5 660.166015625 396.666992188 693.999023438 494 693.999023438 c 0
 590.666992188 693.999023438 665.666992188 659.999023438 719 591.999023438 c 0
 761.666992188 537.999023438 783 488.33203125 783 442.999023438 c 0
 783 423.666015625 778 391.333007812 768 346 c 0
 747.333007812 250.666992188 696.5 169.166992188 615.5 101.5 c 0
 534.5 33.8330078125 445.333007812 0 348 0 c 0
680 560.998046875 m 0
 633.333007812 619.665039062 568.333984375 648.998046875 485.000976562 648.998046875 c 0
 400.333984375 648.998046875 322.666992188 619.498046875 252 560.498046875 c 0
 181.333007812 501.498046875 137 429.998046875 119 345.998046875 c 0
 114.333007812 322.665039062 112 300.33203125 112 278.999023438 c 0
 112 223.666015625 128.666992188 174.999023438 162 132.999023438 c 0
 208 74.33203125 272.666992188 44.9990234375 356 44.9990234375 c 0
 440.666992188 44.9990234375 518.5 74.666015625 589.5 133.999023438 c 0
 660.5 193.33203125 705 264.665039062 723 347.998046875 c 0
 727.666992188 370.665039062 730 392.665039062 730 413.998046875 c 0
 730 469.331054688 713.333007812 518.331054688 680 560.998046875 c 0
608.000976562 466.998046875 m 0
 608.000976562 397.549804688 538.767578125 349.52734375 478.000976562 331.998046875 c 1
 557.000976562 127.998046875 l 1
 493.000976562 127.998046875 l 1
 419.000976562 323.998046875 l 1
 326.000976562 323.998046875 l 1
 284.000976562 127.998046875 l 1
 222.000976562 127.998046875 l 1
 316.000976562 566.998046875 l 1
 469.000976562 566.998046875 l 2
 538.46484375 566.998046875 608.000976562 531.733398438 608.000976562 466.998046875 c 0
456.000976562 523.998046875 m 2
 369.000976562 523.998046875 l 1
 336.000976562 370.998046875 l 1
 421.000976562 370.998046875 l 2
 484.334960938 370.998046875 536.744140625 398.966796875 548.000976562 448.998046875 c 0
 558.786132812 500.225585938 509.061523438 523.998046875 456.000976562 523.998046875 c 2
EndSplineSet
EndChar

StartChar: macron
Encoding: 175 175 111
Width: 500
GlyphClass: 2
Flags: W
HStem: 567 64<204 550>
LayerCount: 2
Fore
SplineSet
550 567 m 1
 189 567 l 1
 204 631 l 1
 565 631 l 1
 550 567 l 1
EndSplineSet
EndChar

StartChar: degree
Encoding: 176 176 112
Width: 375
GlyphClass: 2
Flags: W
HStem: 417 47<230.614 349.237> 647 47<261.86 379.982>
VStem: 163.999 283<541 576>
LayerCount: 2
Fore
SplineSet
335 694 m 0
 398.583007812 694 446.999023438 648.66015625 446.999023438 585 c 0
 446.999023438 541 429.83203125 502 395.499023438 468 c 0
 361.166015625 434 321.999023438 417 277.999023438 417 c 0
 213.622070312 417 163.999023438 461.82421875 163.999023438 526 c 0
 163.999023438 576 185.33203125 618.666992188 227.999023438 654 c 0
 260.666015625 680.666992188 296.333007812 694 335 694 c 0
325.999023438 647 m 0
 270.59375 647 223.764648438 602.612304688 213.998046875 555 c 0
 201.528320312 502.349609375 236.575195312 464 285.998046875 464 c 0
 341.370117188 464 387.244140625 509.450195312 396.998046875 557 c 0
 409.611328125 608.854492188 374.872070312 647 325.999023438 647 c 0
EndSplineSet
EndChar

StartChar: plusminus
Encoding: 177 177 113
Width: 778
GlyphClass: 2
Flags: W
HStem: 0 47<60.0212 375 422.999 725.656> 309 48<126.342 431 487.999 791.657> 646 20G<522.332 538.332>
LayerCount: 2
Fore
SplineSet
751 309 m 2
 478.999023438 309 l 1
 422.999023438 47 l 1
 693.999023438 47 l 2
 716.671875 47 729.591796875 42.7578125 725.999023438 23 c 0
 722.666015625 7.6669921875 708.999023438 0 684.999023438 0 c 2
 92.9990234375 0 l 2
 71.0966796875 0 54.5966796875 5.189453125 60 25 c 0
 64 39.6669921875 78 47 102 47 c 2
 375 47 l 1
 431 309 l 1
 159 309 l 2
 136.397460938 309 122.395507812 314.178710938 125.999023438 334 c 0
 129.33203125 349.333007812 142.999023438 357 166.999023438 357 c 2
 440.999023438 357 l 1
 498.999023438 630 l 2
 504.33203125 654 514.665039062 666 529.998046875 666 c 0
 546.665039062 666 552.33203125 653.666992188 546.999023438 629 c 2
 487.999023438 357 l 1
 758.999023438 357 l 2
 781.6015625 357 795.603515625 351.821289062 792 332 c 0
 788.666992188 316.666992188 775 309 751 309 c 2
EndSplineSet
EndChar

StartChar: two.superior
Encoding: 178 178 114
Width: 354
GlyphClass: 2
Flags: W
HStem: 310.002 49<179 390> 671.001 44.999<239.92 365.727>
LayerCount: 2
Fore
SplineSet
321 716 m 0
 393.150390625 716 451.000976562 678.25 451.000976562 610.000976562 c 0
 451.000976562 602.000976562 450.000976562 593.66796875 448.000976562 585.000976562 c 0
 442.000976562 555.66796875 424.333984375 529.334960938 395.000976562 506.001953125 c 0
 356.600585938 474.001953125 334.806640625 464.206054688 282 429.001953125 c 0
 231.333007812 394.334960938 197 371.001953125 179 359.001953125 c 1
 400 359.001953125 l 1
 390 310.001953125 l 1
 101 310.001953125 l 1
 110 354.001953125 l 1
 165.454101562 392.880859375 220.323242188 432.344726562 278 469.001953125 c 0
 282.666992188 472.334960938 298.666992188 484.66796875 326 506.000976562 c 0
 358 530.000976562 377 556.333984375 383 585.000976562 c 0
 394.13671875 640.68359375 355.924804688 671.000976562 303 671.000976562 c 0
 275.666992188 671.000976562 253.666992188 663.16796875 237 647.500976562 c 0
 220.333007812 631.833984375 203.333007812 608.000976562 186 576.000976562 c 1
 180.037109375 583.951171875 166.9296875 604.10546875 159 616 c 1
 196.333007812 682.666992188 250.333007812 716 321 716 c 0
EndSplineSet
EndChar

StartChar: three.superior
Encoding: 179 179 115
Width: 359
GlyphClass: 2
Flags: W
HStem: 296 44<167.397 310.993> 500 44<233.001 292.001> 675 41<249.065 374.659>
CounterMasks: 1 e0
LayerCount: 2
Fore
SplineSet
445 637 m 0
 445 585.081054688 393.565429688 542.016601562 350 522 c 1
 397.333007812 504.666992188 421 476.666992188 421 438 c 0
 421 398.666992188 399.333007812 363.666992188 356 333 c 0
 322.666992188 308.333007812 284.666992188 296 242 296 c 0
 182 296 136.333007812 317.666992188 105 361 c 1
 125 406 l 1
 148.33203125 366.3359375 189.689453125 340 248 340 c 0
 300.40234375 340 338.142578125 376.641601562 348 421 c 0
 352.666992188 433.666992188 350.666992188 450.666992188 342 472 c 0
 334.666992188 490.666992188 313.333984375 500 278.000976562 500 c 2
 223.000976562 500 l 1
 233.000976562 544 l 1
 292.000976562 548 l 1
 331.028320312 555.805664062 369.9921875 585.291015625 378.000976562 624 c 0
 385.333984375 658 366.666992188 675 322 675 c 0
 267.103515625 675 224.767578125 644.333984375 198 609 c 1
 175 648 l 1
 218.333007812 693.333007812 270 716 330 716 c 0
 385.857421875 716 445 689.735351562 445 637 c 0
EndSplineSet
EndChar

StartChar: acute
Encoding: 180 180 116
Width: 500
GlyphClass: 2
Flags: W
HStem: 527 167
VStem: 286 259
LayerCount: 2
Fore
SplineSet
356 527 m 1
 286 527 l 1
 458 694 l 1
 545 694 l 1
 356 527 l 1
EndSplineSet
EndChar

StartChar: uni00B5
Encoding: 181 181 117
Width: 517
GlyphClass: 2
Flags: W
HStem: -13 62<186.147 305.795> -2 21G<354 440.215> 424 20G<169.768 258 440.764 530>
LayerCount: 2
Fore
SplineSet
436 -2 m 1x60
 354 -2 l 1x60
 363 40 l 1
 313 4.6669921875 254.333007812 -13 187 -13 c 0
 177 -13 168.666992188 -12.6669921875 162 -12 c 1
 124 -194 l 1
 39 -194 l 1
 174 444 l 1
 258 444 l 1
 188 114 l 2
 186 102 185 90 185 78 c 0
 185 58.6669921875 205.666992188 49 247 49 c 0xa0
 319.97265625 49 371.4609375 93.306640625 384 156 c 2
 445 444 l 1
 530 444 l 1
 436 -2 l 1x60
EndSplineSet
EndChar

StartChar: paragraph
Encoding: 182 182 118
Width: 611
GlyphClass: 2
Flags: W
HStem: 646 48<529.997 590.997 637.998 724.657>
LayerCount: 2
Fore
SplineSet
685 646 m 2
 637.998046875 646 l 1
 467.998046875 -158 l 2
 463.331054688 -182 453.331054688 -194 437.998046875 -194 c 0
 421.331054688 -194 415.6640625 -181.666992188 420.997070312 -157 c 2
 590.997070312 646 l 1
 529.997070312 646 l 1
 359.997070312 -158 l 2
 354.6640625 -182 344.331054688 -194 328.998046875 -194 c 0
 312.998046875 -194 307.665039062 -181.666992188 312.998046875 -157 c 2
 393.998046875 226 l 1
 291.331054688 232 218.331054688 267.333007812 174.998046875 332 c 0
 157.665039062 357.333007812 148.998046875 386 148.998046875 418 c 0
 148.998046875 432 150.665039062 446.666992188 153.998046875 462 c 0
 167.998046875 528 204.331054688 583.166992188 262.998046875 627.5 c 0
 321.665039062 671.833007812 385.33203125 694 453.999023438 694 c 2
 692.999023438 694 l 2
 715.752929688 694 728.62109375 688.919921875 724.999023438 669 c 0
 721.666015625 653.666992188 708.333007812 646 685 646 c 2
EndSplineSet
EndChar

StartChar: periodcentered
Encoding: 183 183 119
Width: 778
GlyphClass: 2
Flags: W
HStem: 306 83<429 496>
VStem: 411 103
LayerCount: 2
Fore
SplineSet
496 306 m 1
 411 306 l 1
 429 389 l 1
 514 389 l 1
 496 306 l 1
EndSplineSet
EndChar

StartChar: cedilla
Encoding: 184 184 120
Width: 444
GlyphClass: 2
Flags: W
HStem: -192 168
VStem: 101 177
LayerCount: 2
Fore
SplineSet
176 -192 m 1
 101 -192 l 1
 211 -24 l 1
 278 -24 l 1
 176 -192 l 1
EndSplineSet
EndChar

StartChar: one.superior
Encoding: 185 185 121
Width: 369
GlyphClass: 2
Flags: W
HStem: 309.999 41<140.998 228.998 292 371> 635 43<205.999 289.898> 696 20G<332.667 368>
VStem: 132.998 246.002
LayerCount: 2
Fore
SplineSet
371 310 m 1
 132.998046875 309.999023438 l 1
 140.998046875 350.999023438 l 1
 228.998046875 350.999023438 l 1
 290.998046875 647.999023438 l 1
 267.665039062 640.666015625 236.33203125 636.333007812 196.999023438 635 c 1
 205.999023438 678 l 1
 268.666015625 680 316.333007812 692.666992188 349 716 c 1
 368 716 l 1
 292 351 l 1
 379 351 l 1
 371 310 l 1
EndSplineSet
EndChar

StartChar: ordmasculine
Encoding: 186 186 122
Width: 419
GlyphClass: 2
Flags: W
HStem: 311 52<128.518 433.588> 385 52<239.148 373.896> 667 49<276.765 416.033>
VStem: 137 74<463.734 598.282> 443.001 70.999<507.159 640.203>
LayerCount: 2
Fore
SplineSet
514 581 m 0
 514 467.985351562 403.623046875 385 292 385 c 0
 210.018554688 385 137 434.606445312 137 516 c 0
 137 574 164.666992188 624.333007812 220 667 c 0
 262.666992188 699.666992188 309.666992188 716 361 716 c 0
 441.866210938 716 514 663.731445312 514 581 c 0
127 334 m 0
 127 350.797851562 149.037109375 363 168.000976562 363 c 2
 404.000976562 363 l 2
 420.013671875 363 437.795898438 353.7734375 435 337 c 0
 431 319.666992188 417.333007812 311 394 311 c 2
 158 311 l 2
 137.333007812 311 127 318.666992188 127 334 c 0
443.000976562 586 m 0
 443.000976562 637.508789062 402.895507812 667 351 667 c 0
 271.002929688 667 211 601.372070312 211 520 c 0
 211 468.129882812 249.313476562 437 301 437 c 0
 375.125 437 426.565429688 491.487304688 440.000976562 555 c 0
 442.000976562 565.666992188 443.000976562 576 443.000976562 586 c 0
EndSplineSet
EndChar

StartChar: guillemotright
Encoding: 187 187 123
Width: 500
GlyphClass: 2
Flags: W
HStem: 0 21G<53 135.853 216 298.853>
VStem: 146 68<412.78 439> 310 67<412.78 439>
LayerCount: 2
Fore
SplineSet
285 0 m 1
 216 0 l 1
 352 220 l 1
 310 439 l 1
 377 439 l 1
 436 218 l 1
 285 0 l 1
122 0 m 1
 53 0 l 1
 188 220 l 1
 146 439 l 1
 214 439 l 1
 273 218 l 1
 122 0 l 1
EndSplineSet
Substitution2: "'cv04' Character Variants 04 in Greek lookup 24-1" guillemotright.gr
Substitution2: "'cv03' Character Variants 03 in Cyrillic lookup 23-1" guillemotright.cyr
EndChar

StartChar: onequarter
Encoding: 188 188 124
Width: 788
GlyphClass: 3
Flags: W
HStem: 0 21G<589 657.314> 102 43<500 610 684 745> 307 41<142 231 295 375> 635 42<208 292.25> 696 20G<336.667 373>
LayerCount: 2
Fore
SplineSet
265 20 m 1
 209 20 l 1
 748 674 l 1
 804 674 l 1
 265 20 l 1
745 102 m 1
 675 102 l 1
 653 0 l 1
 589 0 l 1
 610 102 l 1
 423 102 l 1
 432 143 l 1
 667 398 l 1
 738 398 l 1
 684 145 l 1
 755 145 l 1
 745 102 l 1
375 307 m 1
 133 307 l 1
 142 348 l 1
 231 348 l 1
 294 647 l 1
 270 640.333007812 238 636.333007812 198 635 c 1
 208 677 l 1
 272 679 320.333007812 692 353 716 c 1
 373 716 l 1
 295 348 l 1
 384 348 l 1
 375 307 l 1
500 145 m 1
 625 145 l 1
 666 340 l 1
 642 304.666992188 586.666992188 239.666992188 500 145 c 1
EndSplineSet
Ligature2: "'frac' Diagonal Fractions lookup 3 subtable" one fraction four
Ligature2: "'frac' Diagonal Fractions lookup 3 subtable" one slash four
EndChar

StartChar: onehalf
Encoding: 189 189 125
Width: 788
GlyphClass: 3
Flags: W
HStem: 0 50<508.999 722.999> 307.001 41<141.999 230.999 294.999 374.999> 364 46<570.859 697.693> 635.001 42<207.999 292.249>
VStem: 717.999 67<238.277 344.572>
LayerCount: 2
Fore
SplineSet
655 410 m 0
 727.978515625 410 784.999023438 373.510742188 784.999023438 304.000976562 c 0
 784.999023438 263.333984375 765.999023438 227.666992188 727.999023438 197 c 0
 713.33203125 185.666992188 699.999023438 175.666992188 687.999023438 167 c 0
 687.33203125 167 674.999023438 159.333007812 650.999023438 144 c 0
 638.999023438 136.666992188 591.666015625 105 508.999023438 49 c 1
 574.999023438 49 l 2
 577.666015625 49 581.666015625 49.3330078125 586.999023438 50 c 2
 733.999023438 50 l 1
 722.999023438 0 l 1
 430.999023438 0 l 1
 440.999023438 44 l 1
 545.999023438 119 l 1
 609.999023438 161 l 2
 619.999023438 167 636.33203125 179 658.999023438 197 c 0
 682.236328125 215.879882812 717.999023438 259.071289062 717.999023438 296 c 0
 717.999023438 340.060546875 681.969726562 364 635.999023438 364 c 0
 607.999023438 364 585.33203125 356 567.999023438 340 c 0
 550.666015625 324 533.666015625 299.666992188 516.999023438 267 c 1
 513.666015625 274.333007812 508.333007812 282.333007812 501 291 c 0
 501 292.333007812 497.333007812 298 490 308 c 1
 529.333007812 376 584.333007812 410 655 410 c 0
225.999023438 20.0009765625 m 1
 168.999023438 20.0009765625 l 1
 707.999023438 674.000976562 l 1
 764.999023438 674.000976562 l 1
 225.999023438 20.0009765625 l 1
374.999023438 307.000976562 m 1
 132.999023438 307.000976562 l 1
 141.999023438 348.000976562 l 1
 230.999023438 348.000976562 l 1
 293.999023438 647.000976562 l 1
 269.999023438 640.333984375 237.999023438 636.333984375 197.999023438 635.000976562 c 1
 207.999023438 677.000976562 l 1
 271.999023438 679.000976562 320.33203125 692.000976562 352.999023438 716.000976562 c 1
 372.999023438 716.000976562 l 1
 294.999023438 348.000976562 l 1
 383.999023438 348.000976562 l 1
 374.999023438 307.000976562 l 1
EndSplineSet
Ligature2: "'frac' Diagonal Fractions lookup 3 subtable" one fraction two
Ligature2: "'frac' Diagonal Fractions lookup 3 subtable" one slash two
EndChar

StartChar: threequarters
Encoding: 190 190 126
Width: 788
GlyphClass: 3
Flags: W
HStem: -0.000976562 21G<588.997 657.311> 101.999 43<499.997 609.997 683.997 744.997> 293 44<197.932 342.314> 498 45<263.998 323.998> 654 20G<731.517 804> 674 42<279.452 407.581>
VStem: 382.998 70.999<376.853 484.46>
CounterMasks: 1 34
LayerCount: 2
Fore
SplineSet
265 20 m 1xfa
 209 20 l 1
 748 674 l 1
 804 674 l 1
 265 20 l 1xfa
362 716 m 0xf6
 418.438476562 716 477.997070312 688.72265625 477.997070312 636.999023438 c 0
 477.997070312 588.999023438 446.330078125 550.33203125 382.997070312 520.999023438 c 1
 430.330078125 503.666015625 453.997070312 475.333007812 453.997070312 436 c 0
 453.997070312 396 432.330078125 360.666992188 388.997070312 330 c 0
 354.997070312 305.333007812 316.330078125 293 272.997070312 293 c 0
 212.330078125 293 166.330078125 315 134.997070312 359 c 1
 154.997070312 403 l 1
 178.043945312 362.668945312 221.833984375 337 279.998046875 337 c 0
 335.336914062 337 382.998046875 384.014648438 382.998046875 434 c 0
 382.998046875 476.666992188 358.998046875 498 310.998046875 498 c 2
 254.998046875 498 l 1
 263.998046875 543 l 1
 323.998046875 547 l 2
 363.46875 553.578125 403.084960938 584.754882812 410.998046875 623 c 0
 418.331054688 657 399.331054688 674 353.998046875 674 c 0
 298.384765625 674 255.763671875 644.400390625 228.999023438 608 c 1
 206.999023438 647 l 1
 249.666015625 693 301.333007812 716 362 716 c 0xf6
744.997070312 101.999023438 m 1
 674.997070312 101.999023438 l 1
 652.997070312 -0.0009765625 l 1
 588.997070312 -0.0009765625 l 1
 609.997070312 101.999023438 l 1
 422.997070312 101.999023438 l 1
 431.997070312 142.999023438 l 1
 666.997070312 397.999023438 l 1
 737.997070312 397.999023438 l 1
 683.997070312 144.999023438 l 1
 754.997070312 144.999023438 l 1
 744.997070312 101.999023438 l 1
499.997070312 144.999023438 m 1
 624.997070312 144.999023438 l 1
 665.997070312 339.999023438 l 1
 641.997070312 304.666015625 586.6640625 239.666015625 499.997070312 144.999023438 c 1
EndSplineSet
Ligature2: "'frac' Diagonal Fractions lookup 3 subtable" three fraction four
Ligature2: "'frac' Diagonal Fractions lookup 3 subtable" three slash four
EndChar

StartChar: questiondown
Encoding: 191 191 127
Width: 472
GlyphClass: 3
Flags: W
HStem: -205 68<134.479 302.415> 410 90<281 352>
VStem: 41.001 84<-126.304 -6.77902>
LayerCount: 2
Fore
SplineSet
352 410 m 1
 263 410 l 1
 281 500 l 1
 370 500 l 1
 352 410 l 1
180 -205 m 0
 91.732421875 -205 41.0009765625 -169.341796875 41.0009765625 -87.998046875 c 0
 41.0009765625 -74.6650390625 42.333984375 -60.998046875 45.0009765625 -46.998046875 c 0
 55.0009765625 0.3349609375 80.0009765625 40.66796875 120.000976562 74.0009765625 c 0
 184.66796875 128.000976562 224.66796875 192.333984375 240.000976562 267.000976562 c 2
 253.000976562 327.000976562 l 1
 326.000976562 327.000976562 l 1
 318.000976562 291.000976562 l 2
 294.000976562 179.000976562 246.000976562 90.333984375 174.000976562 25.0009765625 c 0
 143.877929688 -1.775390625 125.000976562 -35.455078125 125.000976562 -83 c 0
 125.000976562 -119 147.66796875 -137 193.000976562 -137 c 0
 252.333984375 -137 312.000976562 -118 372.000976562 -80 c 1
 383.000976562 -151 l 1
 314.333984375 -187 246.666992188 -205 180 -205 c 0
EndSplineSet
Ligature2: "'dlig' Discretionary Ligatures lookup 13 subtable" question quoteleft
Ligature2: "'dlig' Discretionary Ligatures lookup 13 subtable" question grave
EndChar

StartChar: Agrave
Encoding: 192 192 128
Width: 667
GlyphClass: 2
Flags: W
HStem: 0 21G<25 118.782 536.733 639> 202 63.999<263 496> 676 20G<421.276 529.247>
LayerCount: 2
Fore
SplineSet
494 739 m 1
 314 868 l 1
 437 868 l 1
 594 739 l 1
 494 739 l 1
540 0 m 1
 507 202 l 1
 226 202 l 1
 107 0 l 1
 25 0 l 1
 433 696 l 1
 526 696 l 1
 639 0 l 1
 540 0 l 1
452 605 m 1
 409.564453125 516.271484375 333.036132812 388.032226562 263 265.999023438 c 1
 496 265.999023438 l 1
 461 515.999023438 l 2
 455.666992188 554.666015625 452.666992188 584.333007812 452 605 c 1
EndSplineSet
Position2: "'cpsp' Capital Spacing lookup 0 subtable" dx=7 dy=0 dh=14 dv=0
EndChar

StartChar: Aacute
Encoding: 193 193 129
Width: 667
GlyphClass: 2
Flags: W
HStem: 0 21G<25 118.782 537.733 640> 202 63.999<262.999 496.999> 676 20G<422.247 530.247>
LayerCount: 2
Fore
SplineSet
485 739 m 1
 382 739 l 1
 593 868 l 1
 719 868 l 1
 485 739 l 1
541 0 m 1
 508 202 l 1
 226 202 l 1
 107 0 l 1
 25 0 l 1
 434 696 l 1
 527 696 l 1
 640 0 l 1
 541 0 l 1
452 605 m 1
 409.287109375 515.69140625 332.926757812 387.842773438 262.999023438 265.999023438 c 1
 496.999023438 265.999023438 l 1
 461.999023438 515.999023438 l 2
 456.666015625 554.666015625 453.333007812 584.333007812 452 605 c 1
EndSplineSet
Position2: "'cpsp' Capital Spacing lookup 0 subtable" dx=7 dy=0 dh=14 dv=0
EndChar

StartChar: Acircumflex
Encoding: 194 194 130
Width: 667
GlyphClass: 2
Flags: W
HStem: 0 21G<25 118.782 536.733 639> 202 63.999<263 496> 676 20G<421.276 529.247>
LayerCount: 2
Fore
SplineSet
581 729 m 1
 507 824 l 1
 393 729 l 1
 322 729 l 1
 485 870 l 1
 547 870 l 1
 649 729 l 1
 581 729 l 1
540 0 m 1
 507 202 l 1
 226 202 l 1
 107 0 l 1
 25 0 l 1
 433 696 l 1
 526 696 l 1
 639 0 l 1
 540 0 l 1
452 605 m 1
 409.564453125 516.271484375 333.036132812 388.032226562 263 265.999023438 c 1
 496 265.999023438 l 1
 461 515.999023438 l 2
 455.666992188 554.666015625 452.666992188 584.333007812 452 605 c 1
EndSplineSet
Position2: "'cpsp' Capital Spacing lookup 0 subtable" dx=7 dy=0 dh=14 dv=0
EndChar

StartChar: Atilde
Encoding: 195 195 131
Width: 667
GlyphClass: 2
Flags: W
HStem: 0 21G<25.001 118.783 536.833 639.001> 202 64<263 497> 675 20G<422.231 529.253> 729 69.001<519.43 600.404> 787 68.001<401.521 481.092>
VStem: 318.001 69<729 773.859> 615 68<810.525 855.001>
LayerCount: 2
Fore
SplineSet
556 729 m 0xf6
 538.666992188 729 517.16796875 738.666992188 491.500976562 758 c 0
 465.833984375 777.333007812 447.000976562 787 435.000976562 787 c 0xee
 413.000976562 787 397.000976562 767.666992188 387.000976562 729 c 1
 318.000976562 729 l 1xf6
 328.000976562 769.666992188 345.333984375 800.833984375 370.000976562 822.500976562 c 0
 394.66796875 844.16796875 420.000976562 855.000976562 446.000976562 855.000976562 c 0xee
 463.333984375 855.000976562 484.666992188 845.500976562 510 826.500976562 c 0
 535.333007812 807.500976562 554 798.000976562 566 798.000976562 c 0xf6
 588.666992188 798.000976562 605 817.000976562 615 855.000976562 c 1
 683 855.000976562 l 1xee
 673.666992188 814.333984375 656.666992188 783.166992188 632 761.5 c 0
 607.333007812 739.833007812 582 729 556 729 c 0xf6
540.000976562 0 m 1
 508.000976562 202 l 1
 226.000976562 202 l 1
 107.000976562 0 l 1
 25.0009765625 0 l 1
 434.000976562 695 l 1
 526.000976562 695 l 1
 639.000976562 0 l 1
 540.000976562 0 l 1
452.000976562 604 m 1
 437.333984375 573.333007812 407.333007812 518.333984375 362 439.000976562 c 0
 340 400.333984375 307 342.666992188 263 266 c 1
 497 266 l 1
 462 516 l 2
 456.666992188 554 453.333984375 583.333007812 452.000976562 604 c 1
EndSplineSet
Position2: "'cpsp' Capital Spacing lookup 0 subtable" dx=7 dy=0 dh=14 dv=0
EndChar

StartChar: Adieresis
Encoding: 196 196 132
Width: 667
GlyphClass: 2
Flags: W
HStem: 0 21G<25 118.782 536.733 639> 202 62.999<263 496> 675 20G<421.259 529.252> 729 87<375 444 547 616>
LayerCount: 2
Fore
SplineSet
616 729 m 1
 528 729 l 1
 547 816 l 1
 634 816 l 1
 616 729 l 1
444 729 m 1
 357 729 l 1
 375 816 l 1
 462 816 l 1
 444 729 l 1
540 0 m 1
 507 202 l 1
 226 202 l 1
 107 0 l 1
 25 0 l 1
 433 695 l 1
 526 695 l 1
 639 0 l 1
 540 0 l 1
452 604 m 1
 437.333007812 573.333007812 407.333007812 518.33203125 362 438.999023438 c 2
 263 264.999023438 l 1
 496 264.999023438 l 1
 461 514.999023438 l 2
 455.666992188 553.666015625 452.666992188 583.333007812 452 604 c 1
EndSplineSet
Position2: "'cpsp' Capital Spacing lookup 0 subtable" dx=7 dy=0 dh=14 dv=0
EndChar

StartChar: Aring
Encoding: 197 197 133
Width: 667
GlyphClass: 2
Flags: W
HStem: 0 21G<25 118.782 536.733 639> 202 64<262.999 495.999> 688 8<433 526> 808 54<456.104 541.609>
VStem: 381 230<728.525 816.644>
LayerCount: 2
Fore
SplineSet
611 788 m 0
 611 728.525390625 540.819335938 688 478 688 c 0
 428.212890625 688 381 714.4140625 381 761 c 0
 381 816.643554688 449.495117188 862 514 862 c 0
 563.15234375 862 611 835.049804688 611 788 c 0
540 0 m 1
 507 202 l 1
 226 202 l 1
 107 0 l 1
 25 0 l 1
 433 696 l 1
 526 696 l 1
 639 0 l 1
 540 0 l 1
504 808 m 0
 473.333007812 808 455.33203125 796.666992188 449.999023438 774 c 0
 445.09765625 749.495117188 465.974609375 742 487.999023438 742 c 0
 518.666015625 742 536.333007812 753.333007812 541 776 c 0
 547.413085938 798.444335938 526.474609375 808 504 808 c 0
451.999023438 605 m 1
 409.563476562 516.271484375 333.03515625 388.033203125 262.999023438 266 c 1
 495.999023438 266 l 1
 460.999023438 516 l 2
 455.666015625 554 452.666015625 583.666992188 451.999023438 605 c 1
EndSplineSet
Position2: "'cpsp' Capital Spacing lookup 0 subtable" dx=7 dy=0 dh=14 dv=0
EndChar

StartChar: AE
Encoding: 198 198 134
Width: 861
GlyphClass: 2
Flags: W
HStem: 0 77<527 818> 219 64<285 461> 326 68<594 847> 623 71<497 548 643 937>
LayerCount: 2
Fore
SplineSet
937 622 m 1
 765 622 l 2
 757 622.666992188 751 623 747 623 c 2
 643 623 l 1
 594 394 l 1
 862 394 l 1
 847 326 l 1
 579 326 l 1
 527 77 l 1
 690 77 l 2
 694 77 700 77.3330078125 708 78 c 2
 835 78 l 1
 818 0 l 1
 415 0 l 1
 461 219 l 1
 245 219 l 1
 109 0 l 1
 25 0 l 1
 458 694 l 1
 953 694 l 1
 937 622 l 1
497 623 m 1
 285 283 l 1
 475 283 l 1
 548 623 l 1
 497 623 l 1
EndSplineSet
Position2: "'cpsp' Capital Spacing lookup 0 subtable" dx=7 dy=0 dh=14 dv=0
EndChar

StartChar: Ccedilla
Encoding: 199 199 135
Width: 639
GlyphClass: 2
Flags: W
HStem: -24 72<321.679 522.253> 645 71<434.925 631.577>
LayerCount: 2
Fore
SplineSet
688 591 m 1
 639.333007812 627 586.998046875 645 530.998046875 645 c 0
 459.665039062 645 394.665039062 612 335.998046875 546 c 0
 283.998046875 487.333007812 250.665039062 420.333007812 235.998046875 345 c 0
 226.665039062 296.333007812 225.998046875 248.333007812 233.998046875 201 c 0
 247.697265625 116.31640625 309.469726562 48 404.999023438 48 c 0
 445.666015625 48 480.999023438 53 510.999023438 63 c 0
 536.33203125 71.6669921875 568.33203125 88 606.999023438 112 c 1
 595.999023438 33 l 1
 556.666015625 11.6669921875 523.666015625 -3 496.999023438 -11 c 0
 467.666015625 -19.6669921875 431.999023438 -24 389.999023438 -24 c 0
 327.33203125 -24 274.33203125 -6.3330078125 230.999023438 29 c 0
 164.33203125 82.3330078125 130.999023438 158.333007812 130.999023438 257 c 0
 130.999023438 286.333007812 134.33203125 316.333007812 140.999023438 347 c 0
 161.666015625 445.666992188 208.666015625 530.666992188 281.999023438 602 c 0
 359.999023438 678 447.33203125 716 543.999023438 716 c 0
 604.666015625 716 664.333007812 704 723 680 c 1
 688 591 l 1
290.998046875 -214 m 1
 213.998046875 -214 l 1
 325.998046875 -40 l 1
 394.998046875 -40 l 1
 290.998046875 -214 l 1
EndSplineSet
Position2: "'cpsp' Capital Spacing lookup 0 subtable" dx=7 dy=0 dh=14 dv=0
EndChar

StartChar: Egrave
Encoding: 200 200 136
Width: 597
GlyphClass: 2
Flags: W
HStem: 0 77<205 555> 326 68<273 584> 620 73<320 672>
LayerCount: 2
Fore
SplineSet
461 739 m 1
 281 868 l 1
 404 868 l 1
 561 739 l 1
 461 739 l 1
672 620 m 1
 489 620 l 2
 485 620 479 620.333007812 471 621 c 2
 320 621 l 1
 273 394 l 1
 598 394 l 1
 584 326 l 1
 258 326 l 1
 205 77 l 1
 407 77 l 2
 411 77 417 77.3330078125 425 78 c 2
 571 78 l 1
 555 0 l 1
 93 0 l 1
 240 693 l 1
 688 693 l 1
 672 620 l 1
EndSplineSet
Position2: "'cpsp' Capital Spacing lookup 0 subtable" dx=7 dy=0 dh=14 dv=0
EndChar

StartChar: Eacute
Encoding: 201 201 137
Width: 597
GlyphClass: 2
Flags: W
HStem: 0 77<205 555> 326 68<273 584> 620 73<320 672>
LayerCount: 2
Fore
SplineSet
451 739 m 1
 348 739 l 1
 560 868 l 1
 686 868 l 1
 451 739 l 1
672 620 m 1
 489 620 l 2
 485 620 479 620.333007812 471 621 c 2
 320 621 l 1
 273 394 l 1
 598 394 l 1
 584 326 l 1
 258 326 l 1
 205 77 l 1
 407 77 l 2
 411 77 417 77.3330078125 425 78 c 2
 571 78 l 1
 555 0 l 1
 93 0 l 1
 240 693 l 1
 688 693 l 1
 672 620 l 1
EndSplineSet
Position2: "'cpsp' Capital Spacing lookup 0 subtable" dx=7 dy=0 dh=14 dv=0
EndChar

StartChar: Ecircumflex
Encoding: 202 202 138
Width: 597
GlyphClass: 2
Flags: W
HStem: 0 77<205 555> 326 68<273 584> 620 73<320 672>
LayerCount: 2
Fore
SplineSet
548 729 m 1
 474 824 l 1
 360 729 l 1
 290 729 l 1
 452 870 l 1
 514 870 l 1
 616 729 l 1
 548 729 l 1
672 620 m 1
 489 620 l 2
 485 620 479 620.333007812 471 621 c 2
 320 621 l 1
 273 394 l 1
 598 394 l 1
 584 326 l 1
 258 326 l 1
 205 77 l 1
 407 77 l 2
 411 77 417 77.3330078125 425 78 c 2
 571 78 l 1
 555 0 l 1
 93 0 l 1
 240 693 l 1
 688 693 l 1
 672 620 l 1
EndSplineSet
Position2: "'cpsp' Capital Spacing lookup 0 subtable" dx=7 dy=0 dh=14 dv=0
EndChar

StartChar: Edieresis
Encoding: 203 203 139
Width: 597
GlyphClass: 2
Flags: W
HStem: 0 77<205 555> 326 68<273 584> 620 72<320 672> 729 87<342 411 514 583>
LayerCount: 2
Fore
SplineSet
583 729 m 1
 496 729 l 1
 514 816 l 1
 601 816 l 1
 583 729 l 1
411 729 m 1
 324 729 l 1
 342 816 l 1
 429 816 l 1
 411 729 l 1
672 620 m 1
 471 620 l 2
 463 620.666992188 457 621 453 621 c 2
 320 621 l 1
 273 394 l 1
 598 394 l 1
 584 326 l 1
 258 326 l 1
 205 77 l 1
 407 77 l 2
 411 77 417 77.3330078125 425 78 c 2
 571 78 l 1
 555 0 l 1
 93 0 l 1
 240 692 l 1
 688 692 l 1
 672 620 l 1
EndSplineSet
Position2: "'cpsp' Capital Spacing lookup 0 subtable" dx=7 dy=0 dh=14 dv=0
EndChar

StartChar: Igrave
Encoding: 204 204 140
Width: 278
GlyphClass: 2
Flags: W
HStem: 0 21G<93 191.167> 676 20G<233.833 332>
VStem: 73 275
LayerCount: 2
Fore
SplineSet
250 739 m 1
 73 868 l 1
 194 868 l 1
 348 739 l 1
 250 739 l 1
187 0 m 1
 93 0 l 1
 238 696 l 1
 332 696 l 1
 187 0 l 1
EndSplineSet
Position2: "'cpsp' Capital Spacing lookup 0 subtable" dx=7 dy=0 dh=14 dv=0
EndChar

StartChar: Iacute
Encoding: 205 205 141
Width: 278
GlyphClass: 2
Flags: W
HStem: 0 21G<93 193.224> 676 20G<235.776 336>
LayerCount: 2
Fore
SplineSet
342 739 m 1
 239 739 l 1
 450 868 l 1
 575 868 l 1
 342 739 l 1
189 0 m 1
 93 0 l 1
 240 696 l 1
 336 696 l 1
 189 0 l 1
EndSplineSet
Position2: "'cpsp' Capital Spacing lookup 0 subtable" dx=7 dy=0 dh=14 dv=0
EndChar

StartChar: Icircumflex
Encoding: 206 206 142
Width: 278
GlyphClass: 2
Flags: W
HStem: 0 21G<93 192.224> 676 20G<235.776 335>
LayerCount: 2
Fore
SplineSet
387 729 m 1
 314 824 l 1
 201 729 l 1
 131 729 l 1
 292 870 l 1
 354 870 l 1
 455 729 l 1
 387 729 l 1
188 0 m 1
 93 0 l 1
 240 696 l 1
 335 696 l 1
 188 0 l 1
EndSplineSet
Position2: "'cpsp' Capital Spacing lookup 0 subtable" dx=7 dy=0 dh=14 dv=0
EndChar

StartChar: Idieresis
Encoding: 207 207 143
Width: 278
GlyphClass: 2
Flags: W
HStem: 0 21G<93 192.201> 675 20G<234.799 334> 729 87<184 252 354 422>
LayerCount: 2
Fore
SplineSet
422 729 m 1
 335 729 l 1
 354 816 l 1
 440 816 l 1
 422 729 l 1
252 729 m 1
 165 729 l 1
 184 816 l 1
 270 816 l 1
 252 729 l 1
188 0 m 1
 93 0 l 1
 239 695 l 1
 334 695 l 1
 188 0 l 1
EndSplineSet
Position2: "'cpsp' Capital Spacing lookup 0 subtable" dx=7 dy=0 dh=14 dv=0
EndChar

StartChar: Eth
Encoding: 208 208 144
Width: 722
GlyphClass: 2
Flags: W
HStem: 0 63<201.998 449.289> 311 72<99.998 160.998 269.998 353.998> 631 63<321.998 561.86>
VStem: 653.998 93<300.628 532.397>
CounterMasks: 1 e0
LayerCount: 2
Fore
SplineSet
360 0 m 2
 94.998046875 0 l 1
 160.998046875 311 l 1
 83.998046875 311 l 1
 99.998046875 383 l 1
 176.998046875 383 l 1
 242.998046875 694 l 1
 504.998046875 694 l 2
 590.998046875 694 656.331054688 659.333007812 700.998046875 590 c 0
 731.665039062 543.333007812 746.998046875 490 746.998046875 430 c 0
 746.998046875 401.333007812 743.665039062 371.333007812 736.998046875 340 c 0
 717.665039062 249.333007812 673.33203125 171 603.999023438 105 c 0
 530.666015625 35 449.333007812 0 360 0 c 2
621.998046875 551 m 0
 589.331054688 604.333007812 538.665039062 631 469.998046875 631 c 2
 321.998046875 631 l 1
 269.998046875 383 l 1
 369.998046875 383 l 1
 353.998046875 311 l 1
 253.998046875 311 l 1
 201.998046875 63 l 1
 347.998046875 63 l 2
 504.591796875 63 614.860351562 202.379882812 643.998046875 342 c 0
 650.665039062 372 653.998046875 400.333007812 653.998046875 427 c 0
 653.998046875 475 643.331054688 516.333007812 621.998046875 551 c 0
EndSplineSet
Position2: "'cpsp' Capital Spacing lookup 0 subtable" dx=7 dy=0 dh=14 dv=0
EndChar

StartChar: Ntilde
Encoding: 209 209 145
Width: 708
GlyphClass: 2
Flags: W
HStem: 0 21G<94.9971 184.215 477.231 616.256> 675 20G<238.738 377.74 670.74 759.997> 729 69.001<540.83 621.718> 787 68.001<422.684 503.094>
VStem: 339.998 68<729 773.859> 636 69<810.142 855.001>
LayerCount: 2
Fore
SplineSet
577 729 m 0xec
 559.666992188 729 538.331054688 738.666992188 512.998046875 758 c 0
 487.665039062 777.333007812 468.998046875 787 456.998046875 787 c 0xdc
 434.331054688 787 417.998046875 767.666992188 407.998046875 729 c 1
 339.998046875 729 l 1xec
 349.331054688 769.666992188 366.331054688 800.833984375 390.998046875 822.500976562 c 0
 415.665039062 844.16796875 441.33203125 855.000976562 467.999023438 855.000976562 c 0xdc
 484.666015625 855.000976562 505.833007812 845.500976562 531.5 826.500976562 c 0
 557.166992188 807.500976562 576 798.000976562 588 798.000976562 c 0xec
 610.666992188 798.000976562 626.666992188 817.000976562 636 855.000976562 c 1
 705 855.000976562 l 1xdc
 695 814.333984375 677.666992188 783.166992188 653 761.5 c 0
 628.333007812 739.833007812 603 729 577 729 c 0xec
545.997070312 89 m 1
 674.997070312 695 l 1
 759.997070312 695 l 1
 611.997070312 0 l 1
 482.997070312 0 l 1
 307.997070312 607 l 1
 179.997070312 0 l 1
 94.9970703125 0 l 1
 242.997070312 695 l 1
 371.997070312 695 l 1
 545.997070312 89 l 1
EndSplineSet
Position2: "'cpsp' Capital Spacing lookup 0 subtable" dx=7 dy=0 dh=14 dv=0
EndChar

StartChar: Ograve
Encoding: 210 210 146
Width: 736
GlyphClass: 2
Flags: W
HStem: -22 71.999<300.007 468.286> 646.001 70.998<413.78 585.35>
VStem: 118 99<147.272 386.687> 670 92.001<317.09 552.287>
LayerCount: 2
Fore
SplineSet
530 739 m 1
 350 868 l 1
 473 868 l 1
 630 739 l 1
 530 739 l 1
363 -22 m 0
 279 -22 213.666992188 13.33203125 167 83.9990234375 c 0
 134.333007812 132.666015625 118 188.666015625 118 251.999023438 c 0
 118 281.999023438 121.666992188 313.666015625 129 346.999023438 c 0
 149.666992188 442.33203125 195 526.33203125 265 598.999023438 c 0
 341.666992188 677.666015625 426.333984375 716.999023438 519.000976562 716.999023438 c 0
 603.66796875 716.999023438 669.000976562 680.666015625 715.000976562 607.999023438 c 0
 746.333984375 559.33203125 762.000976562 503.33203125 762.000976562 439.999023438 c 0
 762.000976562 409.999023438 758.66796875 378.33203125 752.000976562 344.999023438 c 0
 732.000976562 249.666015625 687.000976562 166.333007812 617.000976562 95 c 0
 540.333984375 17 455.666992188 -22 363 -22 c 0
640 567.999023438 m 0
 608.666992188 619.999023438 563.666992188 646.000976562 505 646.000976562 c 0
 436.333007812 646.000976562 375.333007812 614.333984375 322 551.000976562 c 0
 274.666992188 496.333984375 243.666992188 432.666992188 229 360 c 0
 221 323.333007812 217 289.666015625 217 258.999023438 c 0
 217 211.666015625 226 170.666015625 244 135.999023438 c 0
 274 78.666015625 318.666992188 49.9990234375 378 49.9990234375 c 0
 448 49.9990234375 510.666992188 85.666015625 566 156.999023438 c 0
 612.666992188 216.999023438 644 284.999023438 660 360.999023438 c 0
 666.666992188 392.33203125 670 421.33203125 670 447.999023438 c 0
 670 494.666015625 660 534.666015625 640 567.999023438 c 0
EndSplineSet
Position2: "'cpsp' Capital Spacing lookup 0 subtable" dx=7 dy=0 dh=14 dv=0
EndChar

StartChar: Oacute
Encoding: 211 211 147
Width: 736
GlyphClass: 2
Flags: W
HStem: -22 71.999<300.007 468.286> 646.001 70.998<413.78 585.35>
VStem: 118 99<147.272 386.687> 670 92.001<317.09 552.287>
LayerCount: 2
Fore
SplineSet
520 739 m 1
 417 739 l 1
 629 868 l 1
 755 868 l 1
 520 739 l 1
363 -22 m 0
 279 -22 213.666992188 13.33203125 167 83.9990234375 c 0
 134.333007812 132.666015625 118 188.666015625 118 251.999023438 c 0
 118 281.999023438 121.666992188 313.666015625 129 346.999023438 c 0
 149.666992188 442.33203125 195 526.33203125 265 598.999023438 c 0
 341.666992188 677.666015625 426.333984375 716.999023438 519.000976562 716.999023438 c 0
 603.66796875 716.999023438 669.000976562 680.666015625 715.000976562 607.999023438 c 0
 746.333984375 559.33203125 762.000976562 503.33203125 762.000976562 439.999023438 c 0
 762.000976562 409.999023438 758.66796875 378.33203125 752.000976562 344.999023438 c 0
 732.000976562 249.666015625 687.000976562 166.333007812 617.000976562 95 c 0
 540.333984375 17 455.666992188 -22 363 -22 c 0
640 567.999023438 m 0
 608.666992188 619.999023438 563.666992188 646.000976562 505 646.000976562 c 0
 436.333007812 646.000976562 375.333007812 614.333984375 322 551.000976562 c 0
 274.666992188 496.333984375 243.666992188 432.666992188 229 360 c 0
 221 323.333007812 217 289.666015625 217 258.999023438 c 0
 217 211.666015625 226 170.666015625 244 135.999023438 c 0
 274 78.666015625 318.666992188 49.9990234375 378 49.9990234375 c 0
 448 49.9990234375 510.666992188 85.666015625 566 156.999023438 c 0
 612.666992188 216.999023438 644 284.999023438 660 360.999023438 c 0
 666.666992188 392.33203125 670 421.33203125 670 447.999023438 c 0
 670 494.666015625 660 534.666015625 640 567.999023438 c 0
EndSplineSet
Position2: "'cpsp' Capital Spacing lookup 0 subtable" dx=7 dy=0 dh=14 dv=0
EndChar

StartChar: Ocircumflex
Encoding: 212 212 148
Width: 736
GlyphClass: 2
Flags: W
HStem: -22 71.998<300.007 468.286> 646 70.998<413.78 585.35>
VStem: 118 99<147.271 386.686> 670 92.001<317.089 552.492>
LayerCount: 2
Fore
SplineSet
617 729 m 1
 543 824 l 1
 429 729 l 1
 358 729 l 1
 521 870 l 1
 583 870 l 1
 685 729 l 1
 617 729 l 1
363 -22 m 0
 279 -22 213.666992188 13.3310546875 167 83.998046875 c 0
 134.333007812 132.665039062 118 188.665039062 118 251.998046875 c 0
 118 281.998046875 121.666992188 313.665039062 129 346.998046875 c 0
 149.666992188 442.331054688 195 526.331054688 265 598.998046875 c 0
 341.666992188 677.665039062 426.333984375 716.998046875 519.000976562 716.998046875 c 0
 603.66796875 716.998046875 669.000976562 680.998046875 715.000976562 608.998046875 c 0
 746.333984375 559.665039062 762.000976562 503.33203125 762.000976562 439.999023438 c 0
 762.000976562 409.999023438 758.66796875 378.33203125 752.000976562 344.999023438 c 0
 732.000976562 249.666015625 687.000976562 166.333007812 617.000976562 95 c 0
 540.333984375 17 455.666992188 -22 363 -22 c 0
640 567.998046875 m 0
 608.666992188 619.998046875 563.666992188 646 505 646 c 0
 436.333007812 646 375.333007812 614.333007812 322 551 c 0
 274.666992188 496.333007812 243.666992188 432.666015625 229 359.999023438 c 0
 221 323.33203125 217 289.665039062 217 258.998046875 c 0
 217 211.665039062 226 170.665039062 244 135.998046875 c 0
 274 78.6650390625 318.666992188 49.998046875 378 49.998046875 c 0
 448 49.998046875 510.666992188 85.6650390625 566 156.998046875 c 0
 612.666992188 216.998046875 644 284.998046875 660 360.998046875 c 0
 666.666992188 392.331054688 670 421.331054688 670 447.998046875 c 0
 670 494.665039062 660 534.665039062 640 567.998046875 c 0
EndSplineSet
Position2: "'cpsp' Capital Spacing lookup 0 subtable" dx=7 dy=0 dh=14 dv=0
EndChar

StartChar: Otilde
Encoding: 213 213 149
Width: 736
GlyphClass: 2
Flags: W
HStem: -22 72<300.006 468.285> 646.002 70.998<413.779 585.349> 729 69.001<554.831 635.48> 787 68.001<436.596 517.019>
VStem: 117.999 99<147.273 386.309> 354 68<729 773.859> 650 69<810.142 855.001> 669.999 92.001<317.086 552.156>
LayerCount: 2
Fore
SplineSet
591 729 m 0xee
 573.666992188 729 552.333007812 738.666992188 527 758 c 0
 501.666992188 777.333007812 483 787 471 787 c 0xde
 448.333007812 787 432 767.666992188 422 729 c 1
 354 729 l 1xee
 363.333007812 769.666992188 380.333007812 800.833984375 405 822.500976562 c 0
 429.666992188 844.16796875 455 855.000976562 481 855.000976562 c 0xde
 498.333007812 855.000976562 519.833007812 845.500976562 545.5 826.500976562 c 0
 571.166992188 807.500976562 590 798.000976562 602 798.000976562 c 0xee
 624 798.000976562 640 817.000976562 650 855.000976562 c 1
 719 855.000976562 l 1xde
 709 814.333984375 691.666992188 783.166992188 667 761.5 c 0
 642.333007812 739.833007812 617 729 591 729 c 0xee
362.999023438 -22 m 0
 278.999023438 -22 213.666015625 13.3330078125 166.999023438 84 c 0
 134.33203125 132.666992188 117.999023438 188.666992188 117.999023438 252 c 0
 117.999023438 282 121.666015625 313.333007812 128.999023438 346 c 0
 149.666015625 442 194.999023438 526 264.999023438 598 c 0
 341.666015625 677.333007812 426.333007812 717 519 717 c 0
 603.666992188 717 669 680.666992188 715 608 c 0
 746.333007812 559.333007812 762 503.333007812 762 440 c 0xcd
 762 410 758.666992188 378.333007812 752 345 c 0
 732 249.666992188 687 166 617 94 c 0
 540.333007812 16.6669921875 455.666015625 -22 362.999023438 -22 c 0
639.999023438 568 m 0
 608.666015625 620 563.666015625 646.001953125 504.999023438 646.001953125 c 0
 436.33203125 646.001953125 375.33203125 614.334960938 321.999023438 551.001953125 c 0
 274.666015625 496.334960938 243.666015625 432.66796875 228.999023438 360.000976562 c 0
 220.999023438 323.333984375 216.999023438 289.666992188 216.999023438 259 c 0
 216.999023438 211.666992188 225.999023438 170.666992188 243.999023438 136 c 0
 273.999023438 78.6669921875 318.666015625 50 377.999023438 50 c 0
 447.999023438 50 510.666015625 85.6669921875 565.999023438 157 c 0
 612.666015625 217 643.999023438 285 659.999023438 361 c 0
 666.666015625 392.333007812 669.999023438 421.333007812 669.999023438 448 c 0
 669.999023438 494 659.999023438 534 639.999023438 568 c 0
EndSplineSet
Position2: "'cpsp' Capital Spacing lookup 0 subtable" dx=7 dy=0 dh=14 dv=0
EndChar

StartChar: Odieresis
Encoding: 214 214 150
Width: 736
GlyphClass: 2
Flags: W
HStem: -22 72<300.007 468.286> 646.002 70.998<413.78 585.35> 729 87<411 480 583 652>
VStem: 118 99<147.273 386.309> 670 92.001<316.925 550.534>
LayerCount: 2
Fore
SplineSet
652 729 m 1
 565 729 l 1
 583 816 l 1
 670 816 l 1
 652 729 l 1
480 729 m 1
 393 729 l 1
 411 816 l 1
 498 816 l 1
 480 729 l 1
363 -22 m 0
 279 -22 213.666992188 13.3330078125 167 84 c 0
 134.333007812 132.666992188 118 188.666992188 118 252 c 0
 118 282 121.666992188 313.333007812 129 346 c 0
 149.666992188 442 195 526 265 598 c 0
 341.666992188 677.333007812 426.333984375 717 519.000976562 717 c 0
 603.66796875 717 669.000976562 680.666992188 715.000976562 608 c 0
 746.333984375 559.333007812 762.000976562 503.333007812 762.000976562 440 c 0
 762.000976562 410 758.66796875 378.333007812 752.000976562 345 c 0
 732.000976562 249.666992188 687.000976562 166 617.000976562 94 c 0
 540.333984375 16.6669921875 455.666992188 -22 363 -22 c 0
640 567 m 0
 608.666992188 619.666992188 563.666992188 646.001953125 505 646.001953125 c 0
 436.333007812 646.001953125 375.333007812 614.334960938 322 551.001953125 c 0
 274.666992188 496.334960938 243.666992188 432.66796875 229 360.000976562 c 0
 221 323.333984375 217 289.666992188 217 259 c 0
 217 211.666992188 226 170.666992188 244 136 c 0
 274 78.6669921875 318.666992188 50 378 50 c 0
 448 50 510.666992188 85.6669921875 566 157 c 0
 612.666992188 216.333007812 644 284.333007812 660 361 c 0
 666.666992188 392.333007812 670 421.333007812 670 448 c 0
 670 494 660 533.666992188 640 567 c 0
EndSplineSet
Position2: "'cpsp' Capital Spacing lookup 0 subtable" dx=7 dy=0 dh=14 dv=0
EndChar

StartChar: multiply
Encoding: 215 215 151
Width: 778
GlyphClass: 2
Flags: W
LayerCount: 2
Fore
SplineSet
247 467 m 0
 247 479.668945312 259.634765625 492.000976562 272 492.000976562 c 0
 280.666992188 492.000976562 289 486.66796875 297 476.000976562 c 2
 449 284.000976562 l 1
 681 475.000976562 l 2
 693 485.000976562 703.333007812 490.000976562 712 490.000976562 c 0
 724.23046875 490.000976562 737.01953125 475.530273438 728 462.000976562 c 0
 724.666992188 456.66796875 718 450.000976562 708 442.000976562 c 2
 475 249.000976562 l 1
 627 58.0009765625 l 2
 633.666992188 49.333984375 637 41.333984375 637 34.0009765625 c 0
 637 22.1572265625 623.817382812 10.0009765625 612 10.0009765625 c 0
 603.333007812 10.0009765625 595 15.0009765625 587 25.0009765625 c 2
 435 217.000976562 l 1
 202 25.0009765625 l 2
 190 15.0009765625 179.666992188 10.0009765625 171 10.0009765625 c 0
 158.76953125 10.0009765625 145.98046875 24.4716796875 155 38.0009765625 c 0
 158.333007812 43.333984375 165 50.0009765625 175 58.0009765625 c 2
 409 251.000976562 l 1
 257 442.000976562 l 2
 250.333007812 451.333984375 247 459.666992188 247 467 c 0
EndSplineSet
EndChar

StartChar: Oslash
Encoding: 216 216 152
Width: 778
GlyphClass: 2
Flags: W
HStem: -22 68<309.522 498.423> 648 68<425.493 613.978>
VStem: 118.999 92<150.979 387.068> 712.999 91<304.64 540.848>
LayerCount: 2
Fore
SplineSet
730 634 m 1
 779.333007812 583.333007812 803.999023438 516.333007812 803.999023438 433 c 0
 803.999023438 405 800.666015625 375.333007812 793.999023438 344 c 0
 773.33203125 246 724.999023438 161.666992188 648.999023438 91 c 0
 568.999023438 15.6669921875 480.666015625 -22 383.999023438 -22 c 0
 332.666015625 -22 285.666015625 -9 242.999023438 17 c 1
 176.999023438 -66 l 1
 122.999023438 -30 l 1
 192.999023438 60 l 1
 143.666015625 114.666992188 118.999023438 180.666992188 118.999023438 258 c 0
 118.999023438 286 122.33203125 315.333007812 128.999023438 346 c 0
 148.999023438 443.333007812 197.33203125 528.333007812 273.999023438 601 c 0
 354.666015625 677.666992188 443.333007812 716 540 716 c 0
 588.666992188 716 635.666992188 703 681 677 c 1
 747 760 l 1
 802 724 l 1
 730 634 l 1
676.999023438 567 m 1
 291.999023438 78 l 1
 323.999023438 56.6669921875 359.33203125 46 397.999023438 46 c 0
 473.999023438 46 541.33203125 78 599.999023438 142 c 0
 651.33203125 198 685.33203125 266 701.999023438 346 c 0
 709.33203125 378 712.999023438 408 712.999023438 436 c 0
 712.999023438 487.333007812 700.999023438 531 676.999023438 567 c 1
525.999023438 648 m 0
 449.999023438 648 382.666015625 615.333984375 323.999023438 550.000976562 c 0
 271.999023438 492.66796875 237.666015625 424.000976562 220.999023438 344.000976562 c 0
 214.33203125 313.333984375 210.999023438 284.666992188 210.999023438 258 c 0
 210.999023438 207.333007812 222.666015625 163.333007812 245.999023438 126 c 1
 632.999023438 615 l 1
 599.666015625 637 563.999023438 648 525.999023438 648 c 0
EndSplineSet
Position2: "'cpsp' Capital Spacing lookup 0 subtable" dx=7 dy=0 dh=14 dv=0
EndChar

StartChar: Ugrave
Encoding: 217 217 153
Width: 688
GlyphClass: 2
Flags: W
HStem: -21.999 63<284.51 437.958> 676.001 20G<236.783 337 652.749 742.001>
VStem: 137 95<94.0054 299.398>
LayerCount: 2
Fore
SplineSet
506 739 m 1
 326 868 l 1
 449 868 l 1
 606 739 l 1
 506 739 l 1
232 173 m 0
 232 93.5302734375 282.875 41.0009765625 355.000976562 41.0009765625 c 0
 463.442382812 41.0009765625 538.520507812 138.623046875 559.000976562 235.000976562 c 2
 657.000976562 696.000976562 l 1
 742.000976562 696.000976562 l 1
 644.000976562 234.000976562 l 2
 629.333984375 163.333984375 593.166992188 103.000976562 535.5 53.0009765625 c 0
 477.833007812 3.0009765625 413.333007812 -21.9990234375 342 -21.9990234375 c 0
 273.333007812 -21.9990234375 219 2.66796875 179 52.0009765625 c 0
 151 87.333984375 137 128.666992188 137 176 c 0
 137 194.666992188 139.333007812 214.666992188 144 236 c 2
 241 696 l 1
 337 696 l 1
 239 233 l 2
 234.333007812 211.666992188 232 191.666992188 232 173 c 0
EndSplineSet
Position2: "'cpsp' Capital Spacing lookup 0 subtable" dx=7 dy=0 dh=14 dv=0
EndChar

StartChar: Uacute
Encoding: 218 218 154
Width: 688
GlyphClass: 2
Flags: W
HStem: -21.999 63<284.51 437.958> 676.001 20G<236.783 337 652.749 742.001>
VStem: 137 95<94.0054 299.398>
LayerCount: 2
Fore
SplineSet
496 739 m 1
 393 739 l 1
 605 868 l 1
 731 868 l 1
 496 739 l 1
232 173 m 0
 232 93.5302734375 282.875 41.0009765625 355.000976562 41.0009765625 c 0
 463.442382812 41.0009765625 538.520507812 138.623046875 559.000976562 235.000976562 c 2
 657.000976562 696.000976562 l 1
 742.000976562 696.000976562 l 1
 644.000976562 234.000976562 l 2
 629.333984375 163.333984375 593.166992188 103.000976562 535.5 53.0009765625 c 0
 477.833007812 3.0009765625 413.333007812 -21.9990234375 342 -21.9990234375 c 0
 273.333007812 -21.9990234375 219 2.66796875 179 52.0009765625 c 0
 151 87.333984375 137 128.666992188 137 176 c 0
 137 194.666992188 139.333007812 214.666992188 144 236 c 2
 241 696 l 1
 337 696 l 1
 239 233 l 2
 234.333007812 211.666992188 232 191.666992188 232 173 c 0
EndSplineSet
Position2: "'cpsp' Capital Spacing lookup 0 subtable" dx=7 dy=0 dh=14 dv=0
EndChar

StartChar: Ucircumflex
Encoding: 219 219 155
Width: 688
GlyphClass: 2
Flags: W
HStem: -21.999 63<284.51 437.958> 676.001 20G<236.783 337 652.749 742.001>
VStem: 137 95<94.0054 299.398>
LayerCount: 2
Fore
SplineSet
593 729 m 1
 519 824 l 1
 405 729 l 1
 335 729 l 1
 497 870 l 1
 559 870 l 1
 661 729 l 1
 593 729 l 1
232 173 m 0
 232 93.5302734375 282.875 41.0009765625 355.000976562 41.0009765625 c 0
 463.442382812 41.0009765625 538.520507812 138.623046875 559.000976562 235.000976562 c 2
 657.000976562 696.000976562 l 1
 742.000976562 696.000976562 l 1
 644.000976562 234.000976562 l 2
 629.333984375 163.333984375 593.166992188 103.000976562 535.5 53.0009765625 c 0
 477.833007812 3.0009765625 413.333007812 -21.9990234375 342 -21.9990234375 c 0
 273.333007812 -21.9990234375 219 2.66796875 179 52.0009765625 c 0
 151 87.333984375 137 128.666992188 137 176 c 0
 137 194.666992188 139.333007812 214.666992188 144 236 c 2
 241 696 l 1
 337 696 l 1
 239 233 l 2
 234.333007812 211.666992188 232 191.666992188 232 173 c 0
EndSplineSet
Position2: "'cpsp' Capital Spacing lookup 0 subtable" dx=7 dy=0 dh=14 dv=0
EndChar

StartChar: Udieresis
Encoding: 220 220 156
Width: 688
GlyphClass: 2
Flags: W
HStem: -22 63<284.51 437.854> 675 20G<236.783 337 652.749 742.001> 729 87<387 456 559 628>
VStem: 137 95<94.0048 298.828>
LayerCount: 2
Fore
SplineSet
628 729 m 1
 541 729 l 1
 559 816 l 1
 646 816 l 1
 628 729 l 1
456 729 m 1
 369 729 l 1
 387 816 l 1
 474 816 l 1
 456 729 l 1
232 173 m 0
 232 93.5302734375 282.875 41 355.000976562 41 c 0
 462.993164062 41 538.44140625 138.45703125 559.000976562 234 c 2
 657.000976562 695 l 1
 742.000976562 695 l 1
 644.000976562 234 l 2
 629.333984375 163.333007812 593.166992188 103 535.5 53 c 0
 477.833007812 3 413.333007812 -22 342 -22 c 0
 273.333007812 -22 219 2.6669921875 179 52 c 0
 151 87.3330078125 137 128.666015625 137 175.999023438 c 0
 137 194.666015625 139.333007812 214.333007812 144 235 c 2
 241 695 l 1
 337 695 l 1
 239 233 l 2
 234.333007812 211.666992188 232 191.666992188 232 173 c 0
EndSplineSet
Position2: "'cpsp' Capital Spacing lookup 0 subtable" dx=7 dy=0 dh=14 dv=0
EndChar

StartChar: Yacute
Encoding: 221 221 157
Width: 667
GlyphClass: 2
Flags: W
HStem: 0 21G<287 384.26> 676 20G<149 270.343 667.691 816>
LayerCount: 2
Fore
SplineSet
486 739 m 1
 383 739 l 1
 595 868 l 1
 721 868 l 1
 486 739 l 1
396 407 m 2
 398 404.333007812 405.333007812 387 418 355 c 1
 515.176757812 471.490234375 617.3828125 582.951171875 718 696 c 1
 816 696 l 1
 439 277 l 1
 380 0 l 1
 287 0 l 1
 346 279 l 1
 149 696 l 1
 261 696 l 1
 396 407 l 2
EndSplineSet
Position2: "'cpsp' Capital Spacing lookup 0 subtable" dx=7 dy=0 dh=14 dv=0
EndChar

StartChar: Thorn
Encoding: 222 222 158
Width: 583
GlyphClass: 2
Flags: W
HStem: 0 21G<95.999 190.156> 178 63<237 428.136> 505 63<306.999 469.396> 674 20G<238.763 332.999>
VStem: 520.999 89.001<329.711 459.067>
LayerCount: 2
Fore
SplineSet
342 178 m 2
 222.999023438 178 l 1
 185.999023438 0 l 1
 95.9990234375 0 l 1
 242.999023438 694 l 1
 332.999023438 694 l 1
 306.999023438 568 l 1
 430.999023438 568 l 2
 497.666015625 568 546.333007812 548 577 508 c 0
 599 478.666992188 610 446.666992188 610 412 c 0
 610 399.333007812 608.666992188 386.333007812 606 373 c 0
 592.666992188 313 560.333984375 265 509.000976562 229 c 0
 460.333984375 195 404.666992188 178 342 178 c 2
520.999023438 398 m 0
 520.999023438 469.833007812 454.165039062 505 378 505 c 2
 293 505 l 1
 237 241 l 1
 326 241 l 2
 387.333007812 241 435.166015625 258 469.499023438 292 c 0
 503.83203125 326 520.999023438 361.333007812 520.999023438 398 c 0
EndSplineSet
Position2: "'cpsp' Capital Spacing lookup 0 subtable" dx=7 dy=0 dh=14 dv=0
EndChar

StartChar: germandbls
Encoding: 223 223 159
Width: 481
GlyphClass: 2
Flags: W
HStem: -11 68<211.343 348.525> 0 21G<81.001 167.235> 379 68<304 359.713> 637 68<318.616 446.253>
LayerCount: 2
Fore
SplineSet
401 705 m 0x70
 477.9296875 705 546.001953125 658.53125 546.001953125 584 c 0
 546.001953125 574.666992188 545.001953125 565 543.001953125 555 c 0
 530.334960938 495 489.66796875 446.666992188 421.000976562 410 c 1
 477.791992188 365.703125 512.861328125 284.616210938 491.000976562 180 c 0
 471.360351562 85.48046875 383.638671875 -11 275 -11 c 0
 257.990234375 -11 187 -3.59375 187 14 c 1
 198.516601562 33.81640625 210.33984375 53.3271484375 222.000976562 73 c 1
 243.333984375 62.3330078125 264.666992188 57 286 57 c 0xb0
 369.541015625 57 413 148.170898438 413 236 c 0
 413 320.501953125 371.767578125 376.319335938 290 379 c 1
 304 447 l 1
 383.291015625 448.416015625 444.973632812 491.885742188 460 557 c 0
 471.0703125 608.200195312 436.1796875 637 388 637 c 0
 370.666992188 637 352.333984375 632.666992188 333.000976562 624 c 0
 305.000976562 611.333007812 287.000976562 586 279.000976562 548 c 2
 163.000976562 0 l 1
 81.0009765625 0 l 1
 197.000976562 551 l 2
 207.000976562 596.333007812 231.66796875 633.333007812 271.000976562 662 c 0
 310.333984375 690.666992188 353.666992188 705 401 705 c 0x70
EndSplineSet
EndChar

StartChar: agrave
Encoding: 224 224 160
Width: 481
GlyphClass: 2
Flags: W
HStem: -10.999 68<146.331 293.625> 191.001 59<221.957 364.999> 397 67<226.24 373.936> 674 20G<240 337.561>
VStem: 389.998 85.001<252.355 382.289>
LayerCount: 2
Fore
SplineSet
357 521 m 1
 240 694 l 1
 326 694 l 1
 426 521 l 1
 357 521 l 1
341 464 m 0
 419.25 464 474.999023438 410.30078125 474.999023438 332 c 0
 474.999023438 318.666992188 473.33203125 304.333984375 469.999023438 289.000976562 c 2
 409.999023438 0.0009765625 l 1
 327.999023438 0.0009765625 l 1
 334.999023438 31.0009765625 l 1
 288.999023438 3.0009765625 233.33203125 -10.9990234375 167.999023438 -10.9990234375 c 0
 125.33203125 -10.9990234375 97.9990234375 5.0009765625 85.9990234375 37.0009765625 c 0
 75.33203125 67.0009765625 72.6650390625 93.333984375 77.998046875 116.000976562 c 0
 89.3310546875 165.333984375 130.998046875 201.333984375 202.998046875 224.000976562 c 0
 252.998046875 240.000976562 311.331054688 248.66796875 377.998046875 250.000976562 c 1
 385.998046875 289.333984375 389.998046875 314.666992188 389.998046875 326 c 0
 389.998046875 368.8203125 366.224609375 397 327.998046875 397 c 0
 276.665039062 397 222.33203125 379.333007812 164.999023438 344 c 1
 173.999023438 420 l 1
 230.666015625 449.333007812 286.333007812 464 341 464 c 0
155.999023438 117 m 0
 147.897460938 76.490234375 189.280273438 57.0009765625 230.999023438 57.0009765625 c 0
 301.666015625 57.0009765625 342.666015625 83.0009765625 353.999023438 135.000976562 c 2
 364.999023438 191.000976562 l 1
 234.999023438 184.333984375 165.33203125 159.666992188 155.999023438 117 c 0
EndSplineSet
EndChar

StartChar: aacute
Encoding: 225 225 161
Width: 481
GlyphClass: 2
Flags: W
HStem: -10.999 68<146.333 294.055> 191.001 59<222.241 366.001> 397 67<226.757 374.054> 674 20G<426.884 535>
VStem: 391 85.001<252.355 380.659>
LayerCount: 2
Fore
SplineSet
344 521 m 1
 273 521 l 1
 447 694 l 1
 535 694 l 1
 344 521 l 1
341 464 m 0
 420.079101562 464 476.000976562 410.821289062 476.000976562 332 c 0
 476.000976562 318.666992188 474.333984375 304.333984375 471.000976562 289.000976562 c 2
 410.000976562 0.0009765625 l 1
 329.000976562 0.0009765625 l 1
 335.000976562 31.0009765625 l 1
 289.66796875 3.0009765625 234.000976562 -10.9990234375 168.000976562 -10.9990234375 c 0
 125.333984375 -10.9990234375 98.0009765625 5.0009765625 86.0009765625 37.0009765625 c 0
 75.333984375 67.0009765625 72.6669921875 93.333984375 78 116.000976562 c 0
 90 165.333984375 132 201.333984375 204 224.000976562 c 0
 253.333007812 240.000976562 311.333007812 248.66796875 378 250.000976562 c 1
 386.666992188 289.333984375 391 314.666992188 391 326 c 0
 391 367.608398438 366.912109375 397 329 397 c 0
 277 397 222.333007812 379.333007812 165 344 c 1
 175 420 l 1
 231.666992188 449.333007812 287 464 341 464 c 0
156.000976562 117 m 0
 147.899414062 76.490234375 189.282226562 57.0009765625 231.000976562 57.0009765625 c 0
 302.333984375 57.0009765625 343.333984375 83.0009765625 354.000976562 135.000976562 c 2
 366.000976562 191.000976562 l 1
 235.333984375 184.333984375 165.333984375 159.666992188 156.000976562 117 c 0
EndSplineSet
EndChar

StartChar: acircumflex
Encoding: 226 226 162
Width: 481
GlyphClass: 2
Flags: W
HStem: -10.999 68<146.332 294.054> 191.001 59<222.24 366> 397 67<226.456 374.07> 677 20G<336.461 428.337>
VStem: 389.999 85.001<252.355 382.397>
LayerCount: 2
Fore
SplineSet
443 519 m 1
 376 638 l 1
 258 519 l 1
 190 519 l 1
 355 697 l 1
 418 697 l 1
 510 519 l 1
 443 519 l 1
341 464 m 0
 420.108398438 464 475 410.823242188 475 332 c 0
 475 318.666992188 473.666992188 304.333984375 471 289.000976562 c 2
 410 0.0009765625 l 1
 328 0.0009765625 l 1
 335 31.0009765625 l 1
 289.666992188 3.0009765625 234 -10.9990234375 168 -10.9990234375 c 0
 125.333007812 -10.9990234375 98 5.0009765625 86 37.0009765625 c 0
 75.3330078125 67.0009765625 72.666015625 93.333984375 77.9990234375 116.000976562 c 0
 89.9990234375 165.333984375 131.999023438 201.333984375 203.999023438 224.000976562 c 0
 253.33203125 240.000976562 311.33203125 248.66796875 377.999023438 250.000976562 c 1
 385.999023438 289.333984375 389.999023438 314.666992188 389.999023438 326 c 0
 389.999023438 368.8203125 366.225585938 397 327.999023438 397 c 0
 276.666015625 397 222.333007812 379.333007812 165 344 c 1
 174 420 l 1
 231.333007812 449.333007812 287 464 341 464 c 0
156 117 m 0
 147.8984375 76.490234375 189.28125 57.0009765625 231 57.0009765625 c 0
 302.333007812 57.0009765625 343.333007812 83.0009765625 354 135.000976562 c 2
 366 191.000976562 l 1
 235.333007812 184.333984375 165.333007812 159.666992188 156 117 c 0
EndSplineSet
EndChar

StartChar: atilde
Encoding: 227 227 163
Width: 481
GlyphClass: 2
Flags: W
HStem: -11.001 68.001<146.433 294.312> -0.000976562 21G<329 415.152> 191 59<225.381 366.001> 396.999 66<227.01 374.398> 544 69<386.663 468.21> 601.999 68.001<269.789 348.804>
VStem: 390.999 85.001<252.354 380.498> 481.999 68<624.18 670>
LayerCount: 2
Fore
SplineSet
424 544 m 0x3b
 406.666992188 544 385 553.666015625 359 572.999023438 c 0
 333 592.33203125 314.333007812 601.999023438 303 601.999023438 c 0
 281 601.999023438 265.333007812 582.666015625 256 543.999023438 c 1
 188 543.999023438 l 1
 197.333007812 584.666015625 214.166015625 615.833007812 238.499023438 637.5 c 0
 262.83203125 659.166992188 287.999023438 670 313.999023438 670 c 0x37
 333.33203125 670 353.33203125 661.333007812 373.999023438 644 c 0
 399.999023438 623.333007812 420.33203125 613 434.999023438 613 c 0x3b
 456.999023438 613 472.666015625 632 481.999023438 670 c 1
 549.999023438 670 l 1x37
 540.666015625 630 523.833007812 599 499.5 577 c 0
 475.166992188 555 450 544 424 544 c 0x3b
342 462.999023438 m 0
 420.25 462.999023438 476 410.326171875 476 331.999023438 c 0
 476 317.999023438 474.333007812 303.666015625 471 288.999023438 c 2
 411 -0.0009765625 l 1
 329 -0.0009765625 l 1x73
 336 30.9990234375 l 1
 290 2.9990234375 234 -11.0009765625 168 -11.0009765625 c 0xb3
 125.333007812 -11.0009765625 98 4.9990234375 86 36.9990234375 c 0
 75.3330078125 66.9990234375 72.666015625 93.33203125 77.9990234375 115.999023438 c 0
 101.223632812 211.479492188 245.274414062 247.3515625 378.999023438 250 c 1
 386.999023438 289.333007812 390.999023438 314.666015625 390.999023438 325.999023438 c 0
 390.999023438 367.607421875 366.911132812 396.999023438 328.999023438 396.999023438 c 0
 276.999023438 396.999023438 222.666015625 379.33203125 165.999023438 343.999023438 c 1
 174.999023438 419.999023438 l 1
 231.666015625 448.666015625 287.333007812 462.999023438 342 462.999023438 c 0
157 116.999023438 m 0
 147.724609375 77.2490234375 189.509765625 57 231.000976562 57 c 0xb3
 302.333984375 57 343.333984375 83 354.000976562 135 c 2
 366.000976562 191 l 1
 235.333984375 184.333007812 165.666992188 159.666015625 157 116.999023438 c 0
EndSplineSet
EndChar

StartChar: adieresis
Encoding: 228 228 164
Width: 481
GlyphClass: 2
Flags: W
HStem: -10.999 68.001<146.331 294.053> 191.002 58.999<224.985 364.999> 397 66<226.24 373.936> 564 87<262 330 405 474>
VStem: 389.998 85.001<252.355 382.226>
LayerCount: 2
Fore
SplineSet
474 564 m 1
 387 564 l 1
 405 651 l 1
 492 651 l 1
 474 564 l 1
330 564 m 1
 244 564 l 1
 262 651 l 1
 349 651 l 1
 330 564 l 1
341 463 m 0
 419.25 463 474.999023438 410.328125 474.999023438 332.000976562 c 0
 474.999023438 318.000976562 473.33203125 303.66796875 469.999023438 289.000976562 c 2
 409.999023438 0.0009765625 l 1
 327.999023438 0.0009765625 l 1
 334.999023438 31.0009765625 l 1
 289.666015625 3.0009765625 233.999023438 -10.9990234375 167.999023438 -10.9990234375 c 0
 125.33203125 -10.9990234375 97.9990234375 5.0009765625 85.9990234375 37.0009765625 c 0
 75.33203125 67.0009765625 72.6650390625 93.333984375 77.998046875 116.000976562 c 0
 101.256835938 210.328125 244.865234375 247.337890625 377.998046875 250.000976562 c 1
 385.998046875 289.333984375 389.998046875 314.666992188 389.998046875 326 c 0
 389.998046875 368.8203125 366.224609375 397 327.998046875 397 c 0
 276.665039062 397 222.33203125 379.333007812 164.999023438 344 c 1
 173.999023438 419 l 1
 230.666015625 448.333007812 286.333007812 463 341 463 c 0
155.999023438 117.000976562 m 0
 147.897460938 76.4912109375 189.280273438 57.001953125 230.999023438 57.001953125 c 0
 302.33203125 57.001953125 343.33203125 83.001953125 353.999023438 135.001953125 c 2
 364.999023438 191.001953125 l 1
 234.999023438 184.334960938 165.33203125 159.66796875 155.999023438 117.000976562 c 0
EndSplineSet
EndChar

StartChar: aring
Encoding: 229 229 165
Width: 481
GlyphClass: 2
Flags: W
HStem: -10.999 68<146.332 293.626> 191.001 59<221.957 364.999> 397 67<226.241 373.937> 511 54<321.127 406.011> 631 54<326.521 411.489>
VStem: 389.999 85.001<252.355 382.289>
LayerCount: 2
Fore
SplineSet
384 685 m 0
 432.553710938 685 481.000976562 658.143554688 481.000976562 612 c 0
 481.000976562 582 465.66796875 557.333007812 435.000976562 538 c 0
 408.333984375 520 379.666992188 511 349 511 c 0
 299.733398438 511 252 537.856445312 252 584 c 0
 252 641.92578125 319.46484375 685 384 685 c 0
341.000976562 464 m 0
 419.250976562 464 475 410.30078125 475 332 c 0
 475 318.666992188 473.333007812 304.333984375 470 289.000976562 c 2
 410 0.0009765625 l 1
 328 0.0009765625 l 1
 335 31.0009765625 l 1
 289 3.0009765625 233.333007812 -10.9990234375 168 -10.9990234375 c 0
 125.333007812 -10.9990234375 98 5.0009765625 86 37.0009765625 c 0
 75.3330078125 67.0009765625 72.666015625 93.333984375 77.9990234375 116.000976562 c 0
 89.33203125 165.333984375 130.999023438 201.333984375 202.999023438 224.000976562 c 0
 252.999023438 240.000976562 311.33203125 248.66796875 377.999023438 250.000976562 c 1
 385.999023438 289.333984375 389.999023438 314.666992188 389.999023438 326 c 0
 389.999023438 368.8203125 366.225585938 397 327.999023438 397 c 0
 276.666015625 397 222.333007812 379.333007812 165 344 c 1
 174 420 l 1
 230.666992188 449.333007812 286.333984375 464 341.000976562 464 c 0
374 631 m 0
 343.333007812 631 325.665039062 619.666992188 320.998046875 597 c 0
 316.172851562 572.872070312 336.703125 565 357.999023438 565 c 0
 388.666015625 565 406.333007812 576.333007812 411 599 c 0
 417.219726562 622.323242188 397.170898438 631 374 631 c 0
155.999023438 117 m 0
 147.897460938 76.490234375 189.280273438 57.0009765625 230.999023438 57.0009765625 c 0
 301.666015625 57.0009765625 342.666015625 83.0009765625 353.999023438 135.000976562 c 2
 364.999023438 191.000976562 l 1
 234.999023438 184.333984375 165.33203125 159.666992188 155.999023438 117 c 0
EndSplineSet
EndChar

StartChar: ae
Encoding: 230 230 166
Width: 722
GlyphClass: 2
Flags: W
HStem: -10.999 68.001<137.466 311.827 489.917 641.328> 188.002 61.998<218.781 359.999> 215.001 62<467.999 685.731> 393.001 67.999<216.309 368.146 545.608 661.729>
VStem: 359.999 87.001<101.557 187.634>
LayerCount: 2
Fore
SplineSet
622 461 m 0xd8
 722.533203125 461 759.364257812 383.651367188 748.999023438 280.000976562 c 0
 747.666015625 262.000976562 746.333007812 249.66796875 745 243.000976562 c 2
 739 215.000976562 l 1
 450 215.000976562 l 1xb8
 448 202.333984375 447 190.000976562 447 178.000976562 c 0
 447 110.3125 487.58203125 57.0009765625 553 57.0009765625 c 0
 603 57.0009765625 654.333007812 77.0009765625 707 117.000976562 c 1
 697 42.0009765625 l 1
 646.333007812 6.66796875 593.666015625 -10.9990234375 538.999023438 -10.9990234375 c 0
 475.666015625 -10.9990234375 427.333007812 13.333984375 394 62.0009765625 c 1
 364 29.333984375 320.666992188 8.333984375 264 -0.9990234375 c 0
 222.666992188 -7.666015625 188.666992188 -10.9990234375 162 -10.9990234375 c 0
 114.666992188 -10.9990234375 86.1669921875 6.5009765625 76.5 41.5009765625 c 0
 66.8330078125 76.5009765625 65 101.66796875 71 117.000976562 c 0
 89 196.333984375 189.333007812 240.666992188 372 250 c 1
 379.333007812 288 383 312.333007812 383 323 c 0
 383 365.37890625 358.560546875 395 321 395 c 0
 268.333007812 395 213.333007812 377.333007812 156 342 c 1
 165 417 l 1
 222.333007812 446.333007812 278.333007812 461 333 461 c 0
 393 461 434.666992188 436.666992188 458 388 c 1
 509.333007812 436.666992188 564 461 622 461 c 0xd8
660.999023438 373.000976562 m 0
 645.666015625 386.333984375 628.999023438 393.000976562 610.999023438 393.000976562 c 0
 545.5859375 393.000976562 492.501953125 328.234375 467.999023438 277.000976562 c 1
 684.999023438 277.000976562 l 1
 688.33203125 325.000976562 680.33203125 357.000976562 660.999023438 373.000976562 c 0
203.999023438 162.000976562 m 0
 171.999023438 150.000976562 154 134.668945312 150 116.001953125 c 0
 141.897460938 76.8408203125 183.625 57.001953125 224 57.001953125 c 0
 297.333007812 57.001953125 339.666015625 81.3349609375 350.999023438 130.001953125 c 0
 352.33203125 136.001953125 355.33203125 155.334960938 359.999023438 188.001953125 c 1xd8
 301.33203125 187.334960938 249.33203125 178.66796875 203.999023438 162.000976562 c 0
EndSplineSet
EndChar

StartChar: ccedilla
Encoding: 231 231 167
Width: 444
GlyphClass: 2
Flags: W
HStem: -12.999 71<199.322 362.605> 390.001 71<260.839 432.846>
VStem: 77 85<97.1137 272.61>
LayerCount: 2
Fore
SplineSet
162 174 m 0
 162 106.107421875 197.979492188 58.0009765625 263.999023438 58.0009765625 c 0
 320.666015625 58.0009765625 377.333007812 77.0009765625 434 115.000976562 c 1
 425 39.0009765625 l 1
 367.666992188 4.333984375 309.666992188 -12.9990234375 251 -12.9990234375 c 0
 189 -12.9990234375 142.333007812 10.333984375 111 57.0009765625 c 0
 88.3330078125 89.66796875 77 126.334960938 77 167.001953125 c 0
 77 184.334960938 79 202.66796875 83 222.000976562 c 0
 96.3330078125 286.66796875 128 342.000976562 178 388.000976562 c 0
 230 436.66796875 288.333007812 461.000976562 353 461.000976562 c 0
 404.333007812 461.000976562 453.333007812 446.000976562 500 416.000976562 c 1
 471 344.000976562 l 1
 431.666992188 374.66796875 388 390.000976562 340 390.000976562 c 0
 243.786132812 390.000976562 185.302734375 307.631835938 167 221.000976562 c 0
 163.666992188 204.333984375 162 188.666992188 162 174 c 0
183.999023438 -213.999023438 m 1
 106.999023438 -213.999023438 l 1
 218.999023438 -39.9990234375 l 1
 287.999023438 -39.9990234375 l 1
 183.999023438 -213.999023438 l 1
EndSplineSet
EndChar

StartChar: egrave
Encoding: 232 232 168
Width: 444
GlyphClass: 2
Flags: W
HStem: -11 68<199.034 358.142> 216 63<176.002 409.153> 395 69<254.856 380.418> 674 20G<222 320.445>
VStem: 77.001 77.999<102.348 216> 409.002 61.998<279.566 364.304>
LayerCount: 2
Fore
SplineSet
340 521 m 1
 222 694 l 1
 309 694 l 1
 408 521 l 1
 340 521 l 1
155 181 m 0
 155 112.75390625 194.674804688 57 263.001953125 57 c 0
 316.334960938 57 371.66796875 77 429.000976562 117 c 1
 420.000976562 42 l 1
 363.333984375 6.6669921875 306.333984375 -11 249.000976562 -11 c 0
 189.000976562 -11 143.000976562 12.3330078125 111.000976562 59 c 0
 88.333984375 91 77.0009765625 128.333007812 77.0009765625 171 c 0
 77.0009765625 189 79.0009765625 208 83.0009765625 228 c 0
 95.66796875 289.333007812 124.66796875 343 170.000976562 389 c 0
 219.333984375 439 273.666992188 464 333 464 c 0
 425 464 471 411.666992188 471 307 c 0
 471 280.333007812 467.333007812 250 460 216 c 1
 158 216 l 1
 156 204 155 192.333007812 155 181 c 0
409.001953125 279 m 1
 413.068359375 346.7734375 384.26171875 395 320.000976562 395 c 0
 254.119140625 395 199.62109375 330.737304688 176.001953125 279 c 1
 409.001953125 279 l 1
EndSplineSet
EndChar

StartChar: eacute
Encoding: 233 233 169
Width: 444
GlyphClass: 2
Flags: W
HStem: -11 68<199.431 358.708> 216 63<176.003 409.15> 395 69<255.178 379.7> 674 20G<408.884 517>
VStem: 77.001 77.999<102.348 216> 409.003 61.9971<279.566 364.304>
LayerCount: 2
Fore
SplineSet
326 521 m 1
 255 521 l 1
 429 694 l 1
 517 694 l 1
 326 521 l 1
155 181 m 0
 155 112.1875 194.80078125 57 264.002929688 57 c 0
 317.3359375 57 372.668945312 77 430.001953125 117 c 1
 420.001953125 42 l 1
 363.334960938 6.6669921875 306.66796875 -11 250.000976562 -11 c 0
 189.333984375 -11 143.000976562 12.3330078125 111.000976562 59 c 0
 88.333984375 91 77.0009765625 128.333007812 77.0009765625 171 c 0
 77.0009765625 189 79.0009765625 208 83.0009765625 228 c 0
 95.66796875 289.333007812 124.66796875 343 170.000976562 389 c 0
 219.333984375 439 273.666992188 464 333 464 c 0
 425 464 471 411.666992188 471 307 c 0
 471 280.333007812 467.666992188 250 461 216 c 1
 158 216 l 1
 156 204 155 192.333007812 155 181 c 0
409.002929688 279 m 1
 413.03515625 346.200195312 384.381835938 395 321.002929688 395 c 0
 254.880859375 395 199.801757812 331.131835938 176.002929688 279 c 1
 409.002929688 279 l 1
EndSplineSet
EndChar

StartChar: ecircumflex
Encoding: 234 234 170
Width: 444
GlyphClass: 2
Flags: W
HStem: -11 68<199.281 358.451> 216 63<176.002 409.153> 395 69<254.856 380.418> 677 20G<318.461 410.337>
VStem: 77.001 77.999<102.348 216> 409.002 61.998<279.566 364.304>
LayerCount: 2
Fore
SplineSet
425 519 m 1
 358 638 l 1
 240 519 l 1
 172 519 l 1
 337 697 l 1
 400 697 l 1
 492 519 l 1
 425 519 l 1
155 181 m 0
 155 112.75390625 194.674804688 57 263.001953125 57 c 0
 317.001953125 57 372.334960938 77 429.001953125 117 c 1
 420.001953125 42 l 1
 363.334960938 6.6669921875 306.66796875 -11 250.000976562 -11 c 0
 189.333984375 -11 143.000976562 12.3330078125 111.000976562 59 c 0
 88.333984375 91 77.0009765625 128.333007812 77.0009765625 171 c 0
 77.0009765625 189 79.0009765625 208 83.0009765625 228 c 0
 95.66796875 289.333007812 124.66796875 343 170.000976562 389 c 0
 219.333984375 439 273.666992188 464 333 464 c 0
 425 464 471 411.666992188 471 307 c 0
 471 280.333007812 467.666992188 250 461 216 c 1
 158 216 l 1
 156 204 155 192.333007812 155 181 c 0
409.001953125 279 m 1
 413.068359375 346.7734375 384.26171875 395 320.000976562 395 c 0
 254.119140625 395 199.62109375 330.737304688 176.001953125 279 c 1
 409.001953125 279 l 1
EndSplineSet
EndChar

StartChar: edieresis
Encoding: 235 235 171
Width: 444
GlyphClass: 2
Flags: W
HStem: -11 68<199.281 358.208> 216 62<176.003 409.161> 395 68<254.743 379.665> 564 87<244 312 387 456>
VStem: 77.001 77.999<102.348 216> 409.003 61.9971<278.2 363.938>
LayerCount: 2
Fore
SplineSet
456 564 m 1
 369 564 l 1
 387 651 l 1
 474 651 l 1
 456 564 l 1
312 564 m 1
 226 564 l 1
 244 651 l 1
 331 651 l 1
 312 564 l 1
155 181 m 0
 155 112.75390625 194.67578125 57 263.002929688 57 c 0
 316.3359375 57 371.668945312 77 429.001953125 117 c 1
 420.001953125 42 l 1
 363.334960938 6.6669921875 306.66796875 -11 250.000976562 -11 c 0
 189.333984375 -11 143.000976562 12.3330078125 111.000976562 59 c 0
 88.333984375 91 77.0009765625 128.333007812 77.0009765625 171 c 0
 77.0009765625 189 79.0009765625 208 83.0009765625 228 c 0
 95.66796875 288.666992188 124.66796875 342 170.000976562 388 c 0
 219.333984375 438 273.666992188 463 333 463 c 0
 425 463 471 411 471 307 c 0
 471 280.333007812 467.666992188 250 461 216 c 1
 158 216 l 1
 156 204 155 192.333007812 155 181 c 0
409.002929688 278 m 1
 413.03515625 346.544921875 384.743164062 395 320.001953125 395 c 0
 253.673828125 395 199.5078125 330.606445312 176.002929688 278 c 1
 409.002929688 278 l 1
EndSplineSet
EndChar

StartChar: igrave
Encoding: 236 236 172
Width: 239
GlyphClass: 2
Flags: W
HStem: 0 21G<80 164.116> 427 20G<167.884 252> 674 20G<89 184.329>
VStem: 80 191
LayerCount: 2
Fore
SplineSet
204 521 m 1
 89 694 l 1
 173 694 l 1
 271 521 l 1
 204 521 l 1
160 0 m 1
 80 0 l 1
 172 447 l 1
 252 447 l 1
 160 0 l 1
EndSplineSet
EndChar

StartChar: iacute
Encoding: 237 237 173
Width: 239
GlyphClass: 2
Flags: W
HStem: 0 21G<80 165.206> 427 20G<169.794 255> 674 20G<338 446>
LayerCount: 2
Fore
SplineSet
256 521 m 1
 185 521 l 1
 358 694 l 1
 446 694 l 1
 256 521 l 1
161 0 m 1
 80 0 l 1
 174 447 l 1
 255 447 l 1
 161 0 l 1
EndSplineSet
EndChar

StartChar: icircumflex
Encoding: 238 238 174
Width: 239
GlyphClass: 2
Flags: W
HStem: 0 21G<80 165.161> 427 20G<168.839 254> 677 20G<216.573 308.225>
VStem: 71 318
LayerCount: 2
Fore
SplineSet
322 519 m 1
 255 638 l 1
 139 519 l 1
 71 519 l 1
 235 697 l 1
 298 697 l 1
 389 519 l 1
 322 519 l 1
161 0 m 1
 80 0 l 1
 173 447 l 1
 254 447 l 1
 161 0 l 1
EndSplineSet
EndChar

StartChar: idieresis
Encoding: 239 239 175
Width: 239
GlyphClass: 2
Flags: W
HStem: 0 21G<80 165.161> 427 20G<168.839 254> 564 87<143 211 285 353>
VStem: 80 291
LayerCount: 2
Fore
SplineSet
353 564 m 1
 267 564 l 1
 285 651 l 1
 371 651 l 1
 353 564 l 1
211 564 m 1
 125 564 l 1
 143 651 l 1
 229 651 l 1
 211 564 l 1
161 0 m 1
 80 0 l 1
 173 447 l 1
 254 447 l 1
 161 0 l 1
EndSplineSet
EndChar

StartChar: eth
Encoding: 240 240 176
Width: 500
GlyphClass: 2
Flags: W
HStem: -10.999 71<197.957 336.831> 396.001 68.001<257.693 398.141>
VStem: 71 85.999<101.872 273.091> 437.999 96.001<207.796 407.333>
LayerCount: 2
Fore
SplineSet
534 356 m 0
 534 306.927734375 519.270507812 222.057617188 504.999023438 184.000976562 c 0
 489.739257812 140.127929688 456.524414062 93.494140625 422.999023438 62.0009765625 c 0
 369.666015625 13.333984375 311.333007812 -10.9990234375 248 -10.9990234375 c 0
 188.666992188 -10.9990234375 141.666992188 11.66796875 107 57.0009765625 c 0
 83 89.0009765625 71 126.000976562 71 168.000976562 c 0
 71 185.333984375 73 203.333984375 77 222.000976562 c 0
 90.3330078125 286.66796875 122.333007812 342.334960938 173 389.001953125 c 0
 225.666992188 439.001953125 283.666992188 464.001953125 347 464.001953125 c 0
 379 464.001953125 408 456.668945312 434 442.001953125 c 1
 420.666992188 493.334960938 395.666992188 538.66796875 359 578.000976562 c 1
 270 517.000976562 l 1
 241 570.000976562 l 1
 314 619.000976562 l 1
 287.333007812 637.000976562 259 652.333984375 229 665.000976562 c 1
 274 723.000976562 l 1
 312 711.000976562 348.333007812 692.000976562 383 666.000976562 c 1
 471 725.000976562 l 1
 499 672.000976562 l 1
 429 625.000976562 l 1
 499 548.333984375 534 458.666992188 534 356 c 0
437.999023438 274.000976562 m 0
 437.999023438 344.20703125 400.981445312 396.000976562 332.999023438 396.000976562 c 0
 241.444335938 396.000976562 181.178710938 313.416015625 162.999023438 231.000976562 c 0
 158.999023438 211.000976562 156.999023438 192.66796875 156.999023438 176.000976562 c 0
 156.999023438 109.750976562 195.462890625 60.0009765625 261.999023438 60.0009765625 c 0
 311.999023438 60.0009765625 354.33203125 83.66796875 388.999023438 131.000976562 c 0
 421.666015625 174.333984375 437.999023438 222.000976562 437.999023438 274.000976562 c 0
EndSplineSet
Substitution2: "'ss05' Style Set 5 lookup 23 IPA alts-1" eth.ipa
EndChar

StartChar: ntilde
Encoding: 241 241 177
Width: 517
GlyphClass: 2
Flags: W
HStem: -0.000976562 21G<80 169.245 352 440.228> 388.999 64<300.21 404.496> 544 69<404.663 486.21> 601.999 68.001<287.789 366.804>
VStem: 418 87<267.767 374.712> 499.999 68<624.18 670>
LayerCount: 2
Fore
SplineSet
442 544 m 0xe4
 424.666992188 544 403 553.666015625 377 572.999023438 c 0
 351 592.33203125 332.333007812 601.999023438 321 601.999023438 c 0
 299 601.999023438 283.333007812 582.666015625 274 543.999023438 c 1
 206 543.999023438 l 1
 215.333007812 584.666015625 232.166015625 615.833007812 256.499023438 637.5 c 0
 280.83203125 659.166992188 305.999023438 670 331.999023438 670 c 0xd4
 351.33203125 670 371.33203125 661.333007812 391.999023438 644 c 0
 417.999023438 623.333007812 438.33203125 613 452.999023438 613 c 0xe4
 474.999023438 613 490.666015625 632 499.999023438 670 c 1
 567.999023438 670 l 1xd4
 558.666015625 630 541.833007812 599 517.5 577 c 0
 493.166992188 555 468 544 442 544 c 0xe4
242 391.999023438 m 1
 269.373046875 419.372070312 337.46875 457.999023438 394 457.999023438 c 0
 468 457.999023438 505 422.999023438 505 352.999023438 c 0
 505 336.33203125 503 317.999023438 499 297.999023438 c 2
 436 -0.0009765625 l 1
 352 -0.0009765625 l 1
 414 291.999023438 l 2
 416.666992188 304.666015625 418 315.999023438 418 325.999023438 c 0xc8
 418 367.999023438 393.333007812 388.999023438 344 388.999023438 c 0
 271.465820312 388.999023438 231.418945312 313.490234375 217 244.999023438 c 2
 165 -0.0009765625 l 1
 80 -0.0009765625 l 1
 176 452.999023438 l 1
 255 452.999023438 l 1
 242 391.999023438 l 1
EndSplineSet
EndChar

StartChar: ograve
Encoding: 242 242 178
Width: 500
GlyphClass: 2
Flags: W
HStem: -11 70.998<197.607 336.182> 394.998 69.002<257.096 400.114> 674 20G<250 348.445>
VStem: 71 86<101.535 272.179> 440 82.001<180.68 354.928>
LayerCount: 2
Fore
SplineSet
368 521 m 1
 250 694 l 1
 337 694 l 1
 436 521 l 1
 368 521 l 1
248 -11 m 0
 188 -11 141 11.33203125 107 55.9990234375 c 0
 83 87.9990234375 71 124.999023438 71 166.999023438 c 0
 71 184.999023438 73 203.33203125 77 221.999023438 c 0
 90.3330078125 286.666015625 122 342.333007812 172 389 c 0
 224.666992188 439 283 464 347 464 c 0
 407.666992188 464 454.333984375 440 487.000976562 392 c 0
 510.333984375 358.666992188 522.000976562 320.666992188 522.000976562 278 c 0
 522.000976562 259.333007812 520.000976562 240.333007812 516.000976562 221 c 0
 502.66796875 157.666992188 471.000976562 103.666992188 421.000976562 59 c 0
 368.333984375 12.3330078125 310.666992188 -11 248 -11 c 0
440 283.999023438 m 0
 440 352.565429688 395.388671875 394.998046875 333 394.998046875 c 0
 240.379882812 394.998046875 181.236328125 312.670898438 163 229.998046875 c 0
 159 210.665039062 157 192.665039062 157 175.998046875 c 0
 157 110.303710938 195.33203125 59.998046875 261 59.998046875 c 0
 313 59.998046875 356.666992188 84.998046875 392 134.998046875 c 0
 424 179.665039062 440 229.33203125 440 283.999023438 c 0
EndSplineSet
EndChar

StartChar: oacute
Encoding: 243 243 179
Width: 500
GlyphClass: 2
Flags: W
HStem: -11 70.998<196.602 336.432> 394.998 69.002<257.534 400.477> 674 20G<436.884 545>
VStem: 71.001 86<101.535 272.371> 440.001 82.999<180.68 355.686>
LayerCount: 2
Fore
SplineSet
354 521 m 1
 283 521 l 1
 457 694 l 1
 545 694 l 1
 354 521 l 1
248 -11 m 0
 188.666992188 -11 141.66796875 11.33203125 107.000976562 55.9990234375 c 0
 83.0009765625 87.9990234375 71.0009765625 125.33203125 71.0009765625 167.999023438 c 0
 71.0009765625 185.33203125 73.0009765625 203.33203125 77.0009765625 221.999023438 c 0
 90.333984375 286.666015625 122.000976562 342.333007812 172.000976562 389 c 0
 225.333984375 439 283.666992188 464 347 464 c 0
 407.666992188 464 454.666992188 440 488 392 c 0
 511.333007812 358.666992188 523 320.666992188 523 278 c 0
 523 259.333007812 520.666992188 240.333007812 516 221 c 0
 502.666992188 157.666992188 471 103.666992188 421 59 c 0
 369 12.3330078125 311.333007812 -11 248 -11 c 0
440.000976562 283.999023438 m 0
 440.000976562 352.091796875 396.418945312 394.998046875 334.000976562 394.998046875 c 0
 240.439453125 394.998046875 181.357421875 313.213867188 163.000976562 229.998046875 c 0
 159.000976562 210.665039062 157.000976562 192.665039062 157.000976562 175.998046875 c 0
 157.000976562 110.303710938 195.333007812 59.998046875 261.000976562 59.998046875 c 0
 313.000976562 59.998046875 356.66796875 84.998046875 392.000976562 134.998046875 c 0
 424.000976562 179.665039062 440.000976562 229.33203125 440.000976562 283.999023438 c 0
EndSplineSet
EndChar

StartChar: ocircumflex
Encoding: 244 244 180
Width: 500
GlyphClass: 2
Flags: W
HStem: -11 70.998<197.607 336.182> 394.998 69.002<257.096 399.874> 677 20G<346.348 438.337>
VStem: 71 86<101.535 272.179> 440 82.001<180.68 355.144>
LayerCount: 2
Fore
SplineSet
453 519 m 1
 386 638 l 1
 268 519 l 1
 199 519 l 1
 365 697 l 1
 428 697 l 1
 520 519 l 1
 453 519 l 1
248 -11 m 0
 188 -11 141 11.33203125 107 55.9990234375 c 0
 83 87.9990234375 71 125.33203125 71 167.999023438 c 0
 71 185.33203125 73 203.33203125 77 221.999023438 c 0
 90.3330078125 286.666015625 122 342.333007812 172 389 c 0
 224.666992188 439 283 464 347 464 c 0
 407.666992188 464 454.333984375 440 487.000976562 392 c 0
 510.333984375 358.666992188 522.000976562 320.666992188 522.000976562 278 c 0
 522.000976562 259.333007812 520.000976562 240.333007812 516.000976562 221 c 0
 502.66796875 157.666992188 471.000976562 103.666992188 421.000976562 59 c 0
 368.333984375 12.3330078125 310.666992188 -11 248 -11 c 0
440 283.999023438 m 0
 440 349.528320312 398.97265625 394.998046875 333 394.998046875 c 0
 240.379882812 394.998046875 181.236328125 312.670898438 163 229.998046875 c 0
 159 210.665039062 157 192.665039062 157 175.998046875 c 0
 157 110.303710938 195.33203125 59.998046875 261 59.998046875 c 0
 313 59.998046875 356.666992188 84.998046875 392 134.998046875 c 0
 424 179.665039062 440 229.33203125 440 283.999023438 c 0
EndSplineSet
EndChar

StartChar: otilde
Encoding: 245 245 181
Width: 500
GlyphClass: 2
Flags: W
HStem: -11.001 71<196.601 336.431> 394.999 68.001<256.289 400.477> 544 69<396.663 478.21> 601.999 68.001<279.789 358.804>
VStem: 71 86<101.536 272.372> 198 68<543.999 590.396> 440 83<180.375 355.686> 491.999 68<624.18 670>
LayerCount: 2
Fore
SplineSet
434 544 m 0xed
 416.666992188 544 395 553.666015625 369 572.999023438 c 0
 343 592.33203125 324.333007812 601.999023438 313 601.999023438 c 0
 291 601.999023438 275.333007812 582.666015625 266 543.999023438 c 1
 198 543.999023438 l 1
 207.333007812 584.666015625 224.166015625 615.833007812 248.499023438 637.5 c 0
 272.83203125 659.166992188 297.999023438 670 323.999023438 670 c 0xdd
 343.33203125 670 363.33203125 661.333007812 383.999023438 644 c 0
 409.999023438 623.333007812 430.33203125 613 444.999023438 613 c 0xed
 466.999023438 613 482.666015625 632 491.999023438 670 c 1
 559.999023438 670 l 1xdd
 550.666015625 630 533.833007812 599 509.5 577 c 0
 485.166992188 555 460 544 434 544 c 0xed
248 -11.0009765625 m 0
 188.666992188 -11.0009765625 141.666992188 11.3330078125 107 56 c 0
 83 88 71 125 71 167 c 0
 71 184.333007812 73 202.666015625 77 221.999023438 c 0
 90.3330078125 286.666015625 122.333007812 342.333007812 173 389 c 0
 225.666992188 438.333007812 283.666992188 463 347 463 c 0
 407.666992188 463 454.666992188 439.333007812 488 392 c 0
 511.333007812 358.666992188 523 320.666992188 523 278 c 0xce
 523 259.333007812 521 240 517 220 c 0
 503.666992188 157.333007812 471.666992188 103.666015625 421 58.9990234375 c 0
 369 12.33203125 311.333007812 -11.0009765625 248 -11.0009765625 c 0
440 284 m 0
 440 352.092773438 396.41796875 394.999023438 334 394.999023438 c 0
 240.438476562 394.999023438 181.356445312 313.21484375 163 229.999023438 c 0
 159 210.666015625 157 192.666015625 157 175.999023438 c 0
 157 110.3046875 195.33203125 59.9990234375 261 59.9990234375 c 0
 313 59.9990234375 356.666992188 84.9990234375 392 134.999023438 c 0
 424 179.666015625 440 229.333007812 440 284 c 0
EndSplineSet
EndChar

StartChar: odieresis
Encoding: 246 246 182
Width: 500
GlyphClass: 2
Flags: W
HStem: -11 71<197.607 336.182> 395 68.001<257.096 400.114> 564 87<272 340 416 484>
VStem: 71 86<101.537 272.181> 440 82.001<180.376 354.929>
LayerCount: 2
Fore
SplineSet
484 564 m 1
 397 564 l 1
 416 651 l 1
 502 651 l 1
 484 564 l 1
340 564 m 1
 254 564 l 1
 272 651 l 1
 359 651 l 1
 340 564 l 1
248 -11 m 0
 188 -11 141 11.333984375 107 56.0009765625 c 0
 83 88.0009765625 71 125.000976562 71 167.000976562 c 0
 71 184.333984375 73 202.666992188 77 222 c 0
 90.3330078125 286.666992188 122 342.333984375 172 389.000976562 c 0
 224.666992188 438.333984375 283 463.000976562 347 463.000976562 c 0
 407.666992188 463.000976562 454.333984375 439.333984375 487.000976562 392.000976562 c 0
 510.333984375 358.66796875 522.000976562 320.66796875 522.000976562 278.000976562 c 0
 522.000976562 259.333984375 520.000976562 240.000976562 516.000976562 220.000976562 c 0
 502.66796875 157.333984375 471.000976562 103.666992188 421.000976562 59 c 0
 368.333984375 12.3330078125 310.666992188 -11 248 -11 c 0
440 284.000976562 m 0
 440 352.567382812 395.388671875 395 333 395 c 0
 240.379882812 395 181.236328125 312.672851562 163 230 c 0
 159 210 157 192 157 176 c 0
 157 110.305664062 195.33203125 60 261 60 c 0
 313 60 356.666992188 85 392 135 c 0
 424 179.666992188 440 229.333984375 440 284.000976562 c 0
EndSplineSet
EndChar

StartChar: divide
Encoding: 247 247 183
Width: 778
GlyphClass: 2
Flags: W
HStem: 85 89<381 451> 227 46<109.104 773.911> 325 89<432 502>
LayerCount: 2
Fore
SplineSet
502 325 m 1
 412 325 l 1
 432 414 l 1
 522 414 l 1
 502 325 l 1
732 227 m 2
 143 227 l 2
 119.741210938 227 105.36328125 230.997070312 109 251 c 0
 112.333007812 265.666992188 126 273 150 273 c 2
 741 273 l 2
 763.51953125 273 777.57421875 268.66015625 774 249 c 0
 770.666992188 234.333007812 756.666992188 227 732 227 c 2
451 85 m 1
 361 85 l 1
 381 174 l 1
 471 174 l 1
 451 85 l 1
EndSplineSet
EndChar

StartChar: oslash
Encoding: 248 248 184
Width: 500
GlyphClass: 2
Flags: W
HStem: -12 68.001<214.325 338.018> 394.001 67.999<258.452 381.31>
VStem: 73 81<109.039 270.44> 439.001 82<171.358 336.522>
LayerCount: 2
Fore
SplineSet
477 404 m 1
 506.333007812 369.333007812 521.000976562 327.333984375 521.000976562 278.000976562 c 0
 521.000976562 259.333984375 519.000976562 239.666992188 515.000976562 219 c 0
 501.66796875 157 470.000976562 103.333007812 420.000976562 58 c 0
 367.333984375 11.3330078125 310.000976562 -12 248.000976562 -12 c 0
 219.333984375 -12 192.666992188 -6 168 6 c 1
 76 -113 l 1
 24 -79 l 1
 119 43 l 1
 88.3330078125 81 73 123.333007812 73 170 c 0
 73 186.666992188 74.6669921875 203.666992188 78 221 c 0
 92 285 123.666992188 340.333007812 173 387 c 0
 225.666992188 437 283.666992188 462 347 462 c 0
 375.666992188 462 403 455.666992188 429 443 c 1
 517 558 l 1
 570 524 l 1
 477 404 l 1
426.000976562 338.000976562 m 1
 214 64.0009765625 l 1
 226.666992188 58.66796875 242.333984375 56.0009765625 261.000976562 56.0009765625 c 0
 353.646484375 56.0009765625 416.061523438 137.514648438 433.000976562 221.000976562 c 0
 437.000976562 240.333984375 439.000976562 258.000976562 439.000976562 274.000976562 c 0
 439.000976562 298.66796875 434.66796875 320.000976562 426.000976562 338.000976562 c 1
334 394.000976562 m 0
 282 394.000976562 238.333007812 369.000976562 203 319.000976562 c 0
 170.333007812 273.66796875 154 224.000976562 154 170.000976562 c 0
 154 146.66796875 158.666992188 126.000976562 168 108.000976562 c 1
 382 384.000976562 l 1
 368 390.66796875 352 394.000976562 334 394.000976562 c 0
EndSplineSet
EndChar

StartChar: ugrave
Encoding: 249 249 185
Width: 517
GlyphClass: 2
Flags: W
HStem: -11 62<150.667 303.929> 0 21G<354 440.206> 427 20G<169.82 258.999 440.862 530> 674 20G<259 356.561>
LayerCount: 2
Fore
SplineSet
376 521 m 1x30
 259 694 l 1
 345 694 l 1
 445 521 l 1
 376 521 l 1x30
436 0 m 1x70
 354 0 l 1x70
 363 42 l 1
 311.666992188 6.6669921875 253 -11 187 -11 c 0
 114.333007812 -11 86.666015625 30 103.999023438 112 c 2
 173.999023438 447 l 1
 258.999023438 447 l 1
 188.999023438 115 l 2
 178.305664062 61.53125 192.073242188 51 247 51 c 0xb0
 319.463867188 51 372.387695312 95.19921875 385 157 c 2
 445 447 l 1
 530 447 l 1
 436 0 l 1x70
EndSplineSet
EndChar

StartChar: uacute
Encoding: 250 250 186
Width: 517
GlyphClass: 2
Flags: W
HStem: -11 62<150.667 305.552> 0 21G<355.001 440.206> 427 20G<169.82 258.999 441.793 530> 674 20G<444.884 553>
LayerCount: 2
Fore
SplineSet
362 521 m 1x30
 291 521 l 1
 465 694 l 1
 553 694 l 1
 362 521 l 1x30
436 0 m 1x70
 355.000976562 0 l 1x70
 363.000976562 42 l 1
 312.333984375 6.6669921875 253.666992188 -11 187 -11 c 0
 114.333007812 -11 86.666015625 30 103.999023438 112 c 2
 173.999023438 447 l 1
 258.999023438 447 l 1
 188.999023438 115 l 2
 178.305664062 61.53125 192.073242188 51 247 51 c 0xb0
 319.463867188 51 372.387695312 95.19921875 385 157 c 2
 446 447 l 1
 530 447 l 1
 436 0 l 1x70
EndSplineSet
EndChar

